<?xml version="1.0" encoding="UTF-8" standalone="no"?>
<svg
   xmlns:dc="http://purl.org/dc/elements/1.1/"
   xmlns:cc="http://creativecommons.org/ns#"
   xmlns:rdf="http://www.w3.org/1999/02/22-rdf-syntax-ns#"
   xmlns:svg="http://www.w3.org/2000/svg"
   xmlns="http://www.w3.org/2000/svg"
   xmlns:sodipodi="http://sodipodi.sourceforge.net/DTD/sodipodi-0.dtd"
   xmlns:inkscape="http://www.inkscape.org/namespaces/inkscape"
   width="99.803703mm"
   height="99.999992mm"
   viewBox="0 0 99.803703 99.999992"
   version="1.1"
   id="svg8"
   inkscape:version="1.0.2 (e86c870879, 2021-01-15, custom)"
   sodipodi:docname="digitalocean.svg">
  <defs
     id="defs2" />
  <sodipodi:namedview
     id="base"
     pagecolor="#ffffff"
     bordercolor="#666666"
     borderopacity="1.0"
     inkscape:pageopacity="0.0"
     inkscape:pageshadow="2"
     inkscape:zoom="0.49497475"
     inkscape:cx="-309.35295"
     inkscape:cy="-18.340664"
     inkscape:document-units="mm"
     inkscape:current-layer="layer1"
     inkscape:document-rotation="0"
     showgrid="false"
     inkscape:pagecheckerboard="true"
     fit-margin-top="0"
     fit-margin-left="0"
     fit-margin-right="0"
     fit-margin-bottom="0"
     inkscape:window-width="1920"
     inkscape:window-height="1001"
     inkscape:window-x="-9"
     inkscape:window-y="-9"
     inkscape:window-maximized="1" />
  <metadata
     id="metadata5">
    <rdf:RDF>
      <cc:Work
         rdf:about="">
        <dc:format>image/svg+xml</dc:format>
        <dc:type
           rdf:resource="http://purl.org/dc/dcmitype/StillImage" />
        <dc:title />
      </cc:Work>
    </rdf:RDF>
  </metadata>
  <g
     inkscape:label="Layer 1"
     inkscape:groupmode="layer"
     id="layer1"
     transform="translate(-33.639876,-105.23367)">
    <path
       style="fill:#4e4b44;stroke-width:0.38157;fill-opacity:1"
       d="m 83.625679,195.45849 v -9.77521 h -9.73006 -9.730062 v 7.44064 7.44064 h -7.440634 -7.440634 v -7.44064 -7.44064 h -6.105137 -6.105136 v -6.10513 -6.10513 h 6.105136 6.105137 v 6.10513 6.10513 h 7.440634 7.440634 v -9.53927 -9.53927 h 9.730062 9.73006 v 9.59527 9.59525 l 2.766391,-0.2399 c 16.28929,-1.41268 28.79968,-16.20582 27.63084,-32.6726 -0.80991,-11.41003 -7.36306,-21.13231 -17.272443,-25.62544 -6.095364,-2.76377 -14.660637,-3.55709 -20.803796,-1.92686 -12.407446,3.29261 -21.319831,13.49481 -22.930764,26.24934 l -0.451886,3.57781 H 43.10195 33.639876 l 0.0012,-2.57561 c 0.0027,-5.85888 2.378506,-14.67889 5.571519,-20.6845 5.838531,-10.98144 15.863032,-19.75563 27.238301,-23.84099 5.341781,-1.91847 8.970388,-2.57856 15.320485,-2.78701 11.462236,-0.37628 20.858719,2.20113 29.876999,8.1951 10.22756,6.79772 17.1487,16.71789 20.2322,28.99913 4.45922,17.76051 -0.76851,36.14703 -13.82385,48.62003 -8.56586,8.18377 -19.201427,12.93266 -31.092325,13.88306 l -3.338748,0.26684 z"
       id="path859" />
  </g>
</svg>
