<?xml version="1.0" encoding="UTF-8" standalone="no"?>
<svg
   xmlns:dc="http://purl.org/dc/elements/1.1/"
   xmlns:cc="http://creativecommons.org/ns#"
   xmlns:rdf="http://www.w3.org/1999/02/22-rdf-syntax-ns#"
   xmlns:svg="http://www.w3.org/2000/svg"
   xmlns="http://www.w3.org/2000/svg"
   xmlns:sodipodi="http://sodipodi.sourceforge.net/DTD/sodipodi-0.dtd"
   xmlns:inkscape="http://www.inkscape.org/namespaces/inkscape"
   width="99.999969mm"
   height="80.102875mm"
   viewBox="0 0 99.999968 80.102869"
   version="1.1"
   id="svg8"
   inkscape:version="1.0.2 (e86c870879, 2021-01-15, custom)"
   sodipodi:docname="head_blue.svg">
  <defs
     id="defs2" />
  <sodipodi:namedview
     id="base"
     pagecolor="#ffffff"
     bordercolor="#666666"
     borderopacity="1.0"
     inkscape:pageopacity="0.0"
     inkscape:pageshadow="2"
     inkscape:zoom="1.4142136"
     inkscape:cx="15.557655"
     inkscape:cy="172.13011"
     inkscape:document-units="mm"
     inkscape:current-layer="layer1"
     inkscape:document-rotation="0"
     showgrid="false"
     inkscape:pagecheckerboard="true"
     inkscape:showpageshadow="false"
     inkscape:window-width="1920"
     inkscape:window-height="1001"
     inkscape:window-x="-9"
     inkscape:window-y="-9"
     inkscape:window-maximized="1"
     inkscape:object-paths="true"
     inkscape:snap-intersection-paths="true"
     inkscape:snap-smooth-nodes="true"
     inkscape:snap-midpoints="true"
     inkscape:object-nodes="true"
     inkscape:snap-nodes="false"
     showguides="false"
     fit-margin-top="0"
     fit-margin-left="0"
     fit-margin-right="0"
     fit-margin-bottom="0">
    <inkscape:grid
       type="xygrid"
       id="grid3940"
       originx="0.99738047"
       originy="0.93179013" />
  </sodipodi:namedview>
  <metadata
     id="metadata5">
    <rdf:RDF>
      <cc:Work
         rdf:about="">
        <dc:format>image/svg+xml</dc:format>
        <dc:type
           rdf:resource="http://purl.org/dc/dcmitype/StillImage" />
        <dc:title />
      </cc:Work>
    </rdf:RDF>
  </metadata>
  <g
     inkscape:label="Layer 1"
     inkscape:groupmode="layer"
     id="layer1"
     transform="translate(0.99737905,0.93178946)">
    <path
       id="path3715"
       style="opacity:1;fill:none;fill-opacity:1;fill-rule:evenodd;stroke:#008fff;stroke-width:3;stroke-miterlimit:4;stroke-dasharray:none;stroke-opacity:1"
       d="m 9.4132365,42.423468 c -0.058249,0.01446 -0.1250791,0.02004 -0.1862729,0.02993 -0.1661768,0.02544 -0.3322341,0.05165 -0.4981651,0.07864 -0.1661515,0.02722 -0.3321751,0.0552 -0.4980637,0.08397 -0.1657608,0.02849 -0.3313859,0.05774 -0.4968714,0.08777 -0.1657532,0.03026 -0.3313608,0.06129 -0.4968207,0.0931 -0.165327,0.03153 -0.3305041,0.06382 -0.4955269,0.0969 -0.1648857,0.03331 -0.329616,0.06738 -0.4941825,0.102231 -0.1649161,0.03414 -0.3296708,0.06907 -0.4942586,0.104767 -0.1640307,0.03635 -0.3278882,0.07346 -0.4915696,0.111363 -0.1640358,0.0377 -0.3278948,0.07618 -0.4915696,0.115422 -0.1636223,0.03939 -0.3270572,0.07955 -0.4903013,0.120495 -0.163602,0.04074 -0.327013,0.08227 -0.490225,0.124554 l -0.025367,0.0076 c -0.1544416,0.04041 -0.3087024,0.08151 -0.4627777,0.123286 -0.162325,0.04422 -0.3244414,0.08922 -0.4863439,0.134954 -0.1623235,0.04559 -0.3244314,0.09191 -0.4863186,0.139014 -0.1614663,0.04685 -0.3227117,0.09444 -0.4837311,0.142818 -0.1041029,0.03156 -0.2081098,0.06344 -0.3120191,0.09564 0.00415,0.0411 0.00838,0.08219 0.012684,0.123286 0.014941,0.131631 0.030669,0.263156 0.047183,0.39459 0.016298,0.1312 0.033379,0.262284 0.051242,0.393271 0.017988,0.1312 0.03676,0.262294 0.056316,0.393271 0.019344,0.130769 0.03947,0.261421 0.060374,0.391952 0.021034,0.130769 0.04285,0.261434 0.065448,0.391951 0.022813,0.130364 0.046405,0.260582 0.070775,0.390658 0.024079,0.130364 0.048941,0.26059 0.07458,0.390659 0.025864,0.1295 0.0525,0.258838 0.079907,0.388019 0.027215,0.129501 0.055205,0.258849 0.083966,0.38802 0.028909,0.129095 0.05859,0.257997 0.08904,0.386726 0.03026,0.129095 0.061294,0.257987 0.093098,0.386701 0.031959,0.128232 0.064684,0.256254 0.098172,0.384088 0.033311,0.128232 0.067388,0.256264 0.1022307,0.384088 0.035093,0.12737 0.070946,0.254532 0.1075578,0.381475 0.036782,0.127395 0.074326,0.254542 0.1126313,0.381475 0.02882,0.09627 0.058078,0.192412 0.087771,0.288402 0.00917,0.03019 0.018391,0.06038 0.027651,0.09056 0.039831,0.126533 0.080419,0.252811 0.1217635,0.378862 0.040769,0.125645 0.082288,0.251061 0.124554,0.376224 0.042547,0.125239 0.085841,0.250224 0.1298811,0.37493 0.044239,0.124808 0.089225,0.249337 0.1349546,0.373612 0.045595,0.124376 0.091934,0.248448 0.1390134,0.372266 0.04687,0.123514 0.094477,0.246749 0.1428185,0.36968 0.048647,0.123082 0.09803,0.24586 0.1481457,0.36836 0.050002,0.122651 0.100738,0.245023 0.1522044,0.367066 0.051278,0.121789 0.1032817,0.243273 0.1560096,0.364428 0.012227,0.02801 0.024479,0.05599 0.036783,0.08397 0.04109,0.09325 0.082609,0.186349 0.124554,0.279219 0.054329,0.120496 0.1093767,0.240661 0.1651418,0.360497 0.055684,0.120064 0.1120859,0.239798 0.1692006,0.359202 0.057376,0.119633 0.1154674,0.23891 0.1742741,0.357858 0.058741,0.118339 0.1181842,0.236323 0.1783329,0.353952 0.060009,0.117907 0.1207235,0.23546 0.182138,0.352632 0.061364,0.117476 0.1234302,0.234572 0.1861968,0.351313 0.062642,0.116183 0.125977,0.23196 0.1900018,0.347381 0.064418,0.115752 0.1295311,0.231123 0.1953291,0.346088 0.065273,0.114864 0.1312281,0.229372 0.1978658,0.343449 0.067046,0.114458 0.1347795,0.22851 0.2031929,0.342156 0.068325,0.113139 0.1373265,0.225871 0.206998,0.338198 0.069684,0.112276 0.1400383,0.224147 0.2110569,0.335586 0.071036,0.111844 0.1427449,0.223284 0.2151156,0.334291 0.072312,0.110983 0.1452867,0.221534 0.2189207,0.331654 0.074096,0.109688 0.1488458,0.218921 0.2242479,0.327721 0.074943,0.109258 0.1505403,0.218059 0.2267846,0.326403 0.076221,0.107963 0.1530847,0.215445 0.2305898,0.322496 0.077579,0.107075 0.1557964,0.213695 0.2346485,0.319857 0.078852,0.106214 0.1583383,0.21197 0.2384536,0.317245 0.079788,0.105351 0.1602028,0.21022 0.2412441,0.314607 0.081483,0.104488 0.1635893,0.208494 0.2463175,0.311993 0.082424,0.103195 0.1654589,0.205882 0.2491079,0.308062 0.084156,0.102764 0.1689267,0.204994 0.2543083,0.306743 0.085039,0.101013 0.1706821,0.201519 0.2569211,0.301517 0.085922,0.100582 0.1724426,0.200656 0.2595593,0.300198 0.087662,0.09929 0.1759154,0.198043 0.2647596,0.296266 0.088573,0.0984 0.1777314,0.196293 0.2674734,0.293627 0.08988,0.09711 0.180327,0.193681 0.271356,0.289722 0.09076,0.09579 0.182094,0.191042 0.273993,0.285763 0.09205,0.09538 0.184664,0.190205 0.277849,0.284471 0.09341,0.09363 0.187384,0.186704 0.281908,0.279219 0.09426,0.09277 0.189081,0.184979 0.284445,0.276606 0.09559,0.09191 0.191722,0.183229 0.288402,0.273968 0.09647,0.09059 0.193472,0.180616 0.291015,0.270036 0.09778,0.08929 0.196085,0.178003 0.294921,0.266129 0.09868,0.08798 0.197886,0.175365 0.297611,0.262173 0.09956,0.08711 0.199634,0.173639 0.300223,0.259559 0.100858,0.08582 0.202229,0.171027 0.304104,0.255627 0.101739,0.0845 0.20398,0.168364 0.306718,0.251645 0.102649,0.08323 0.205795,0.165852 0.309431,0.247839 0.103923,0.08232 0.208338,0.164001 0.313237,0.24505 0.104846,0.08062 0.210174,0.160626 0.315977,0.239975 0.105706,0.07971 0.211886,0.15875 0.318538,0.237186 0.106594,0.07844 0.213655,0.156237 0.321177,0.23338 0.107464,0.07709 0.215387,0.153523 0.323764,0.229321 0.108352,0.07582 0.217153,0.150987 0.326403,0.225516 0.109247,0.07448 0.218938,0.148298 0.329066,0.221458 0.110556,0.07321 0.221548,0.145761 0.332972,0.217652 0.110995,0.07187 0.222422,0.143072 0.334266,0.213594 0.111894,0.07017 0.224208,0.139673 0.33693,0.20852 0.112746,0.06925 0.225902,0.137821 0.339467,0.20573 0.113656,0.06798 0.227718,0.135309 0.342181,0.201924 0.114531,0.06621 0.229456,0.131758 0.344768,0.196597 0.115397,0.06537 0.231184,0.130059 0.347356,0.194061 0.115866,0.0636 0.23211,0.126507 0.348726,0.188734 0.116736,0.06235 0.233842,0.123996 0.351313,0.184928 l 0.0051,0.0025 c 0.116325,0.05971 0.232999,0.118719 0.350019,0.177064 0.118063,0.05972 0.236478,0.118745 0.355245,0.177065 0.118951,0.05796 0.238249,0.115193 0.357884,0.171737 0.11983,0.0567 0.239996,0.112682 0.360496,0.167932 0.119838,0.05535 0.240006,0.109968 0.360496,0.163874 0.12116,0.05358 0.242637,0.106416 0.364429,0.158546 0.121606,0.05231 0.243524,0.10388 0.365747,0.154741 0.122055,0.05096 0.244412,0.101191 0.367066,0.150683 0.122936,0.04926 0.246163,0.09782 0.369679,0.145609 0.10597,0.04122 0.212151,0.08189 0.318539,0.122017 l 0.0013,0.0013 0.05124,0.01776 c 0.123831,0.04665 0.247939,0.09256 0.372318,0.137745 0.124265,0.04488 0.248796,0.08901 0.373586,0.132418 0.12516,0.04353 0.250576,0.08633 0.376249,0.128359 0.125602,0.04186 0.251452,0.08295 0.377543,0.123285 0.12561,0.04049 0.25146,0.08024 0.377543,0.119227 0.113849,0.03511 0.227886,0.06961 0.342105,0.103499 l 0.03805,0.01268 c 0.126921,0.03747 0.254065,0.07415 0.381425,0.110094 0.127382,0.03526 0.254974,0.06976 0.382769,0.1035 0.127836,0.03442 0.255875,0.06809 0.384113,0.100962 0.128275,0.03308 0.256746,0.06537 0.385407,0.0969 0.128724,0.03138 0.257635,0.062 0.386727,0.09183 0.02309,0.0051 0.04635,0.01015 0.06951,0.01522 0.10563,0.02461 0.211387,0.04855 0.31727,0.07204 0.129171,0.02834 0.258517,0.05591 0.38802,0.0827 0.129627,0.02656 0.259407,0.05236 0.389339,0.07737 0.130059,0.02511 0.260277,0.04964 0.390633,0.07331 0.130084,0.02359 0.260287,0.04627 0.390632,0.06824 0.130516,0.02207 0.261176,0.04355 0.391952,0.06418 0.130541,0.02055 0.261201,0.04018 0.391977,0.05911 0.130972,0.01877 0.262058,0.03663 0.393246,0.05378 0.131428,0.01725 0.262961,0.03394 0.39459,0.04972 0.131428,0.01598 0.262969,0.03141 0.39459,0.04592 0.131454,0.01395 0.262984,0.02699 0.39459,0.03932 0.131885,0.01294 0.263867,0.02537 0.395909,0.03678 0.131911,0.01091 0.263864,0.0208 0.395884,0.03019 0.13191,0.0094 0.263889,0.01826 0.395909,0.02613 0.131911,0.0076 0.263867,0.01421 0.395858,0.02029 0.132368,0.0066 0.264768,0.01268 0.397203,0.01776 0.131936,0.0051 0.2639,0.0091 0.395884,0.01268 0.132393,0.0033 0.264788,0.0058 0.397203,0.0076 0.132392,0.0016 0.264798,0.0025 0.397203,0.0025 0.05157,1.19e-4 0.103169,1.19e-4 0.154741,0 0.132418,-8.98e-4 0.264813,-0.0025 0.397203,-0.0051 0.132418,-0.0025 0.264823,-0.0061 0.397203,-0.01015 0.132418,-0.0043 0.264833,-0.0094 0.397203,-0.01522 0.131986,-0.0051 0.263958,-0.01116 0.395883,-0.01776 l 0.05632,-0.0025 c 0.113215,-0.0061 0.226404,-0.01294 0.339543,-0.02029 0.132468,-0.0089 0.264861,-0.01852 0.397203,-0.02892 0.131606,-0.01015 0.263126,-0.02106 0.39459,-0.03272 0.132012,-0.01141 0.26398,-0.02384 0.395858,-0.03678 0.131606,-0.01319 0.263144,-0.02712 0.39459,-0.04186 0.131631,-0.01497 0.263156,-0.03067 0.39459,-0.04718 0.131175,-0.01623 0.262266,-0.03338 0.393246,-0.05124 0.131225,-0.01801 0.262326,-0.03676 0.393321,-0.05632 0.130744,-0.01979 0.261391,-0.04031 0.391901,-0.06164 0.130769,-0.02106 0.261434,-0.04284 0.391952,-0.06545 0.130363,-0.02232 0.260612,-0.04556 0.390709,-0.06951 0.129906,-0.02461 0.259661,-0.04997 0.389263,-0.0761 0.0241,-0.0051 0.04805,-0.01015 0.07204,-0.01522 0.105833,-0.0208 0.211564,-0.04226 0.317194,-0.06418 0.129501,-0.02765 0.258852,-0.05606 0.38802,-0.08524 0.12907,-0.02849 0.257994,-0.05774 0.386726,-0.08777 0.128638,-0.0307 0.257112,-0.06215 0.385382,-0.09437 0.128689,-0.03204 0.25717,-0.06484 0.385458,-0.09843 0.127801,-0.03331 0.255384,-0.0674 0.382769,-0.102231 0.127801,-0.03508 0.255411,-0.07095 0.382794,-0.107558 0.126938,-0.03638 0.253648,-0.07349 0.380156,-0.111363 0.126964,-0.03813 0.253674,-0.07704 0.380156,-0.11669 0.126076,-0.03942 0.251923,-0.07958 0.377517,-0.120495 0.125645,-0.0412 0.251062,-0.08313 0.376199,-0.125822 0.12567,-0.04254 0.251112,-0.08584 0.376275,-0.129882 0.124807,-0.04424 0.249336,-0.08922 0.373586,-0.134954 0.123945,-0.04518 0.247611,-0.09109 0.371023,-0.137745 0.123946,-0.04729 0.247586,-0.09533 0.370948,-0.144087 0.123083,-0.04822 0.245861,-0.09718 0.36836,-0.146877 0.12222,-0.04992 0.244111,-0.100582 0.365722,-0.151951 0.122246,-0.0517 0.244161,-0.104108 0.365773,-0.157278 0.121357,-0.05304 0.242385,-0.106848 0.363109,-0.161337 0.120495,-0.05434 0.24066,-0.109384 0.360496,-0.165142 0.120064,-0.05568 0.239773,-0.112073 0.359152,-0.1692 0.119201,-0.05695 0.238073,-0.114635 0.356589,-0.173006 0.118771,-0.05872 0.237211,-0.118187 0.355271,-0.178333 0.117908,-0.06002 0.23546,-0.120723 0.352632,-0.182138 0.117045,-0.06136 0.23371,-0.123438 0.35002,-0.186196 0.116614,-0.06357 0.232847,-0.127827 0.348675,-0.192793 0.115751,-0.064 0.231097,-0.128689 0.346062,-0.19406 0.114864,-0.06527 0.229372,-0.131226 0.343449,-0.197866 0.114027,-0.06705 0.227673,-0.134777 0.340887,-0.203193 0.113139,-0.06831 0.225872,-0.137339 0.338199,-0.206998 0.112707,-0.06968 0.225009,-0.140028 0.336879,-0.211057 0.111414,-0.07095 0.222421,-0.14259 0.332973,-0.214862 0.111007,-0.07232 0.221558,-0.145279 0.331678,-0.218921 0.11012,-0.07367 0.219784,-0.147993 0.329016,-0.222979 0.108826,-0.07496 0.217221,-0.150556 0.325134,-0.226785 0.107938,-0.07631 0.21542,-0.153244 0.322419,-0.230843 0.107533,-0.07757 0.214583,-0.155782 0.321177,-0.234649 0.106214,-0.07884 0.21197,-0.158343 0.317245,-0.238453 0.105376,-0.08021 0.210245,-0.161058 0.314657,-0.242513 0.104489,-0.08105 0.20847,-0.162732 0.311969,-0.245049 0.103194,-0.08285 0.205882,-0.166309 0.308062,-0.250376 0.102332,-0.08369 0.204156,-0.168009 0.305474,-0.252913 0.101444,-0.08506 0.202356,-0.170698 0.30276,-0.256947 0.10015,-0.08635 0.199768,-0.17331 0.298879,-0.260853 0.09926,-0.08724 0.198018,-0.175086 0.29624,-0.263491 0.09845,-0.08899 0.196344,-0.178587 0.293729,-0.268742 0.02004,-0.01877 0.04028,-0.03752 0.06038,-0.05632 0.07679,-0.07083 0.153219,-0.142032 0.229321,-0.213594 0.09624,-0.0912 0.19193,-0.182949 0.287058,-0.275287 0.09495,-0.09208 0.189342,-0.184725 0.283176,-0.277925 0.09409,-0.09338 0.187592,-0.187338 0.280564,-0.281832 0.09277,-0.09427 0.184953,-0.189089 0.276581,-0.28447 0.09145,-0.09515 0.18234,-0.190839 0.272648,-0.287083 0.09061,-0.0969 0.180616,-0.19434 0.270062,-0.292334 0.05614,-0.06185 0.112022,-0.12392 0.167678,-0.186197 l 0.0051,-0.0025 c 0.03067,-0.03359 0.06129,-0.06725 0.09183,-0.100962 0.08843,-0.09865 0.176278,-0.19784 0.263517,-0.29756 0.01446,-0.017 0.02877,-0.03414 0.04312,-0.05124 0.07204,-0.0831 0.143656,-0.166562 0.214862,-0.250376 0.08582,-0.100861 0.171053,-0.202254 0.255653,-0.30413 0.05223,-0.06271 0.104235,-0.125619 0.156009,-0.188733 0.03196,-0.03881 0.06385,-0.07773 0.09564,-0.11669 0.08366,-0.103068 0.166689,-0.206643 0.249107,-0.3107 0.08189,-0.103499 0.163138,-0.207506 0.243781,-0.311969 0.08105,-0.104843 0.161464,-0.210143 0.241244,-0.315951 0.0797,-0.105706 0.15875,-0.211894 0.237186,-0.318538 0.07844,-0.106594 0.156237,-0.213645 0.23338,-0.321177 0.07666,-0.107482 0.152686,-0.215395 0.228053,-0.32379 0.07582,-0.108801 0.150987,-0.218033 0.225516,-0.327721 0.07448,-0.109232 0.148298,-0.218921 0.221457,-0.329041 0.07321,-0.11012 0.145762,-0.220671 0.217653,-0.331653 0.07187,-0.111439 0.143072,-0.22331 0.213593,-0.335586 0.0706,-0.11187 0.140536,-0.224197 0.209789,-0.336904 0.06925,-0.112759 0.137821,-0.225948 0.205729,-0.339518 0.06799,-0.113646 0.13531,-0.227698 0.201925,-0.342155 0.06621,-0.114534 0.131758,-0.229449 0.196597,-0.344743 0.06537,-0.114966 0.130059,-0.230337 0.194061,-0.346088 0.06319,-0.11631 0.12567,-0.232974 0.187465,-0.35002 0.06276,-0.11674 0.124833,-0.233836 0.186197,-0.351313 0.06098,-0.117172 0.121282,-0.234724 0.18087,-0.352632 0.0588,-0.118517 0.116893,-0.237363 0.174274,-0.356564 0.0584,-0.118948 0.116056,-0.238226 0.173005,-0.357858 0.0567,-0.119405 0.112657,-0.239139 0.167933,-0.359203 0.05492,-0.120267 0.10913,-0.240889 0.162605,-0.361815 0.05398,-0.120724 0.107253,-0.241752 0.159814,-0.363109 0.04779,-0.11116 0.09498,-0.222574 0.141551,-0.334267 l 0.01268,-0.03146 c 0.05096,-0.122474 0.101191,-0.245278 0.150683,-0.36836 0.04926,-0.1225 0.09782,-0.245278 0.145609,-0.36836 0.04792,-0.123388 0.0951,-0.247028 0.14155,-0.370973 0.04657,-0.123819 0.09241,-0.247916 0.137491,-0.372292 0.04487,-0.124707 0.08904,-0.249692 0.132418,-0.374931 0.0431,-0.124706 0.08546,-0.249691 0.127091,-0.374905 0.04226,-0.125594 0.08379,-0.251441 0.124554,-0.377543 0.04049,-0.12605 0.08024,-0.252329 0.119226,-0.378837 0.03881,-0.126507 0.07686,-0.253217 0.114154,-0.380181 0.0096,-0.0328 0.01928,-0.0656 0.02867,-0.09843 -0.0794,0.102282 -0.159383,0.204107 -0.239976,0.305449 -0.08199,0.104058 -0.164609,0.207607 -0.247839,0.310675 -0.08326,0.102763 -0.167146,0.205019 -0.251645,0.306768 -0.0846,0.101876 -0.169835,0.203269 -0.255653,0.30413 -0.08592,0.100582 -0.172422,0.200656 -0.259534,0.300198 -0.08681,0.09969 -0.174198,0.198906 -0.262172,0.29756 -0.08856,0.09886 -0.177698,0.197155 -0.267448,0.294946 -0.08899,0.09754 -0.178587,0.194543 -0.268743,0.291015 -0.09076,0.09624 -0.182087,0.191955 -0.273993,0.287109 -0.09163,0.09581 -0.183812,0.191067 -0.276581,0.285763 -0.09297,0.09406 -0.186476,0.187592 -0.280563,0.280539 -0.09381,0.0932 -0.188176,0.185841 -0.283101,0.2779 -0.09472,0.09234 -0.189976,0.184091 -0.285789,0.275287 -0.09647,0.09104 -0.193477,0.181478 -0.291015,0.271355 -0.09693,0.08972 -0.194365,0.178865 -0.292359,0.267423 -0.09822,0.08843 -0.196978,0.176253 -0.296266,0.263491 -0.09952,0.08757 -0.199591,0.174528 -0.300147,0.260879 -0.10043,0.08625 -0.201367,0.171889 -0.302836,0.256921 -0.101318,0.0849 -0.203143,0.169226 -0.305449,0.252913 -0.102206,0.08407 -0.204893,0.167526 -0.308088,0.250376 -0.103499,0.08229 -0.20748,0.163975 -0.311968,0.245049 -0.104387,0.08146 -0.209281,0.162301 -0.314632,0.242513 -0.105275,0.08011 -0.211006,0.159612 -0.317219,0.238453 -0.106163,0.07884 -0.212782,0.157075 -0.319883,0.234649 -0.107457,0.0776 -0.21537,0.154538 -0.323765,0.230843 -0.107912,0.07626 -0.216282,0.15185 -0.325108,0.226785 -0.109232,0.07499 -0.218896,0.149313 -0.329016,0.222979 -0.109688,0.07362 -0.219808,0.146599 -0.330359,0.218921 -0.110983,0.0723 -0.222396,0.14391 -0.334241,0.214862 -0.111439,0.07103 -0.223335,0.141373 -0.335611,0.211057 -0.112758,0.06968 -0.225948,0.138684 -0.339543,0.206998 -0.113189,0.06842 -0.22681,0.136147 -0.340811,0.203193 -0.114077,0.06715 -0.22856,0.13361 -0.343449,0.199388 -0.114991,0.06537 -0.230362,0.130058 -0.346139,0.19406 -0.115852,0.06446 -0.232061,0.128207 -0.348675,0.191271 -0.116309,0.06276 -0.232974,0.124833 -0.350019,0.186196 -0.117172,0.06141 -0.234725,0.122119 -0.352632,0.182138 -0.11806,0.06015 -0.236475,0.119608 -0.355246,0.178333 -0.118491,0.05837 -0.237362,0.116056 -0.356538,0.173006 -0.119405,0.05753 -0.239139,0.114356 -0.359228,0.170469 -0.119836,0.05576 -0.239976,0.110805 -0.360471,0.165142 -0.120724,0.05401 -0.241752,0.107279 -0.363109,0.159815 -0.12118,0.05314 -0.242665,0.105579 -0.364454,0.157277 -0.122042,0.05139 -0.244364,0.102028 -0.367015,0.151951 -0.1225,0.04969 -0.245329,0.09865 -0.368411,0.146878 -0.123362,0.04876 -0.247003,0.0968 -0.370948,0.144086 -0.123387,0.04708 -0.247028,0.0934 -0.370973,0.139014 -0.124275,0.04531 -0.248829,0.08988 -0.373636,0.133686 -0.124707,0.04404 -0.249692,0.08734 -0.374931,0.129881 -0.125594,0.04269 -0.251416,0.08463 -0.377517,0.125822 -0.12562,0.04092 -0.251468,0.08107 -0.377544,0.120496 -0.126481,0.03965 -0.253192,0.07856 -0.380156,0.11669 -0.126507,0.03787 -0.253217,0.07501 -0.380156,0.111363 -0.127369,0.03661 -0.254965,0.07247 -0.382768,0.107557 -0.127395,0.03526 -0.254991,0.06976 -0.382795,0.103499 -0.128257,0.03308 -0.256728,0.06537 -0.385381,0.0969 -0.128258,0.03222 -0.256734,0.06367 -0.385382,0.09437 -0.128739,0.03044 -0.257657,0.06012 -0.386751,0.08904 -0.129171,0.02877 -0.258497,0.05675 -0.387995,0.08397 -0.129627,0.02742 -0.259417,0.05406 -0.389364,0.07991 -0.129628,0.02562 -0.259412,0.05051 -0.389339,0.07458 -0.130084,0.02385 -0.260285,0.04711 -0.390633,0.06951 -0.130541,0.02258 -0.261188,0.04442 -0.391977,0.06545 -0.130515,0.02131 -0.26118,0.04188 -0.391952,0.06164 -0.130972,0.01953 -0.262053,0.03833 -0.393245,0.05632 -0.130998,0.01776 -0.262114,0.03493 -0.393322,0.05124 -0.131429,0.01649 -0.262966,0.03224 -0.39459,0.04718 -0.131429,0.01471 -0.262928,0.02869 -0.394514,0.04186 -0.131454,0.01294 -0.262989,0.02537 -0.39459,0.03678 -0.131911,0.01167 -0.263874,0.02258 -0.395909,0.03272 -0.131911,0.0104 -0.263867,0.02004 -0.395884,0.02892 -0.132342,0.0084 -0.264757,0.01598 -0.397203,0.02283 -0.131936,0.0076 -0.263899,0.01421 -0.395909,0.02029 -0.132367,0.0051 -0.264777,0.0091 -0.397203,0.01268 -0.131936,0.0041 -0.263902,0.0076 -0.395884,0.01015 -0.132392,0.0025 -0.264792,0.0041 -0.397202,0.0051 -0.052,1.22e-4 -0.104007,1.22e-4 -0.15601,0 -0.132418,3.6e-4 -0.264823,-7.1e-5 -0.397228,-0.0013 -0.131987,-0.0018 -0.263956,-0.0043 -0.395909,-0.0076 -0.132418,-0.0036 -0.264828,-0.0076 -0.397203,-0.01268 -0.132443,-0.0051 -0.264838,-0.01116 -0.397203,-0.01776 -0.132012,-0.0061 -0.263963,-0.01268 -0.395884,-0.02029 -0.132012,-0.0079 -0.263958,-0.01674 -0.395858,-0.02613 -0.132038,-0.0094 -0.264001,-0.01928 -0.395909,-0.03019 -0.132038,-0.01116 -0.263994,-0.02283 -0.395884,-0.03551 -0.131606,-0.01268 -0.263126,-0.02628 -0.394565,-0.04059 -0.131631,-0.01421 -0.263151,-0.02897 -0.39459,-0.04465 -0.1312,-0.01573 -0.262314,-0.03237 -0.393321,-0.04972 -0.131201,-0.0175 -0.262274,-0.03592 -0.393246,-0.05505 -0.1312,-0.01902 -0.262284,-0.03861 -0.393246,-0.05911 -0.130769,-0.02055 -0.261431,-0.04201 -0.391951,-0.06418 -0.130338,-0.02207 -0.260559,-0.04472 -0.390633,-0.06824 -0.130389,-0.02359 -0.26062,-0.0481 -0.390709,-0.07331 -0.129475,-0.02511 -0.258818,-0.05081 -0.387994,-0.07737 -0.129958,-0.02679 -0.259742,-0.05436 -0.389365,-0.0827 -0.129044,-0.02806 -0.257941,-0.0569 -0.38665,-0.0865 -0.129095,-0.02983 -0.258002,-0.06045 -0.386726,-0.09183 -0.128663,-0.03153 -0.257132,-0.06382 -0.385407,-0.0969 -0.127826,-0.0329 -0.255432,-0.06654 -0.382845,-0.100962 -0.127801,-0.03417 -0.255389,-0.06908 -0.382769,-0.104768 -0.127369,-0.03595 -0.254503,-0.07263 -0.381424,-0.110094 -0.126938,-0.03772 -0.253674,-0.0762 -0.380156,-0.115422 -0.126533,-0.03899 -0.252837,-0.07874 -0.378888,-0.119227 -0.126101,-0.04033 -0.251949,-0.08143 -0.377543,-0.123285 -0.125644,-0.04211 -0.251061,-0.08498 -0.376198,-0.128613 -0.124808,-0.0434 -0.249362,-0.08754 -0.373637,-0.132418 -0.124376,-0.04467 -0.248474,-0.09008 -0.372292,-0.136223 -0.123945,-0.04645 -0.247586,-0.09363 -0.370973,-0.14155 -0.123514,-0.04822 -0.246749,-0.09718 -0.369679,-0.146877 -0.122626,-0.04949 -0.244973,-0.09972 -0.367016,-0.150683 -0.12222,-0.05086 -0.244161,-0.102433 -0.365772,-0.154741 -0.121351,-0.05213 -0.242391,-0.10497 -0.363111,-0.158546 -0.120914,-0.05391 -0.241503,-0.108522 -0.361764,-0.163874 -0.120526,-0.05517 -0.240717,-0.111058 -0.360573,-0.167678 -0.119627,-0.05654 -0.238915,-0.113773 -0.357858,-0.171738 -0.118772,-0.05789 -0.237198,-0.116487 -0.35527,-0.175796 -0.118327,-0.05959 -0.236295,-0.119861 -0.353901,-0.180869 -0.117471,-0.06093 -0.234577,-0.122576 -0.351313,-0.184929 -0.116617,-0.06223 -0.23286,-0.125137 -0.348726,-0.188733 -0.115739,-0.064 -0.231095,-0.128689 -0.346062,-0.194061 -0.115323,-0.06484 -0.230255,-0.130388 -0.344794,-0.196597 -0.114437,-0.06662 -0.228474,-0.13394 -0.342105,-0.201925 -0.113587,-0.06748 -0.226769,-0.13564 -0.339543,-0.204461 -0.113151,-0.06925 -0.225886,-0.139191 -0.338198,-0.209789 -0.111847,-0.07052 -0.223271,-0.141727 -0.334266,-0.213593 -0.110993,-0.07189 -0.221554,-0.144442 -0.331679,-0.217653 -0.110561,-0.07316 -0.220684,-0.146978 -0.33036,-0.221457 -0.10925,-0.07453 -0.21805,-0.149693 -0.326402,-0.225516 -0.108377,-0.0758 -0.2163,-0.15223 -0.323764,-0.229322 -0.107523,-0.07714 -0.214583,-0.154944 -0.321177,-0.23338 -0.106647,-0.07801 -0.21283,-0.156644 -0.318539,-0.235917 -0.105805,-0.07978 -0.211133,-0.160195 -0.315976,-0.241244 -0.104925,-0.08105 -0.209365,-0.162732 -0.313313,-0.245049 -0.103611,-0.08199 -0.206732,-0.164609 -0.309356,-0.24784 -0.10274,-0.08328 -0.204981,-0.167145 -0.306717,-0.251644 -0.101875,-0.0846 -0.203246,-0.16981 -0.304104,-0.255628 -0.10059,-0.08592 -0.200667,-0.172447 -0.300224,-0.259559 -0.09972,-0.08681 -0.198928,-0.174198 -0.29761,-0.262172 -0.09884,-0.08813 -0.197145,-0.176836 -0.294922,-0.26613 -0.09754,-0.08942 -0.194547,-0.179449 -0.291014,-0.270036 -0.09623,-0.09033 -0.191915,-0.181199 -0.287058,-0.272674 -0.09582,-0.09206 -0.191083,-0.1847 -0.285789,-0.2779 -0.09408,-0.09251 -0.187597,-0.185588 -0.280564,-0.279219 -0.09321,-0.09383 -0.185849,-0.188226 -0.277925,-0.283151 -0.09233,-0.09515 -0.184081,-0.190839 -0.275262,-0.287083 -0.09103,-0.09604 -0.181481,-0.192615 -0.271355,-0.289721 -0.08973,-0.09734 -0.178886,-0.195228 -0.267449,-0.293628 -0.0884,-0.09822 -0.176217,-0.196978 -0.26344,-0.296266 -0.08756,-0.09911 -0.174533,-0.198728 -0.260904,-0.298878 -0.08624,-0.10043 -0.171884,-0.201392 -0.256921,-0.302837 -0.085,-0.101292 -0.169386,-0.203116 -0.253167,-0.305423 -0.08408,-0.102637 -0.167536,-0.205755 -0.250376,-0.309381 -0.0823,-0.103499 -0.163988,-0.207505 -0.245049,-0.311994 -0.08146,-0.103955 -0.162298,-0.208393 -0.242513,-0.313313 -0.08012,-0.105706 -0.159606,-0.211894 -0.238453,-0.318538 -0.07885,-0.106137 -0.15707,-0.212782 -0.234649,-0.319858 -0.0775,-0.107025 -0.154368,-0.214532 -0.230589,-0.32247 -0.07625,-0.10837 -0.151842,-0.217171 -0.226785,-0.326428 -0.07489,-0.108801 -0.149138,-0.218033 -0.222726,-0.327722 -0.07363,-0.11012 -0.146608,-0.220671 -0.218921,-0.331653 -0.07228,-0.110551 -0.143904,-0.221559 -0.214862,-0.332973 -0.07102,-0.11187 -0.141377,-0.224172 -0.211056,-0.336904 -0.06976,-0.112327 -0.138841,-0.22506 -0.207252,-0.338199 -0.06841,-0.113646 -0.136147,-0.227697 -0.203193,-0.342155 -0.06715,-0.114077 -0.13361,-0.228561 -0.199388,-0.34345 -0.0658,-0.114965 -0.130911,-0.230336 -0.195329,-0.346087 -0.06402,-0.115422 -0.12736,-0.231224 -0.190002,-0.347381 -0.06277,-0.116741 -0.124833,-0.233837 -0.186197,-0.351314 -0.06141,-0.117172 -0.122128,-0.234724 -0.182138,-0.352632 -0.06015,-0.117629 -0.119592,-0.235612 -0.178332,-0.353951 -0.05838,-0.118948 -0.116051,-0.238226 -0.173006,-0.357858 C 10.139303,43.855763 10.082477,43.73646 10.026367,43.616827 9.9705991,43.49656 9.9155493,43.375938 9.861225,43.255012 9.8072305,43.134288 9.7539589,43.013261 9.7014103,42.891903 9.634037,42.721408 9.5111345,42.578466 9.4132365,42.423468 Z"
       sodipodi:nodetypes="ccccccccccccccccccccccccccccccccccccccccccccccccccccccccccccccccccccccccccccccccccsccsccccccccccccccccccccccccccccccccsccccccccccccccccccccccccccccccccccccccccccccccccccccccccccccccccccscccccccccccccccccccscccccccccccccccccccccccccccsccccccccccccccccccccccssccccccccccscccccccccccccsscccccccccccccccccccccccccccsccccccccccccccccccccccccccccccccccccccccccccccccccccccccccccccccccccccccccccccccccccccccsccsccccccccscccccccccccccccccccccccccccc" />
    <path
       id="path3605"
       style="opacity:1;fill:none;fill-opacity:1;fill-rule:evenodd;stroke:#008fff;stroke-width:3;stroke-miterlimit:4;stroke-dasharray:none;stroke-opacity:1"
       d="m 66.42466,49.905433 c -0.01091,0.03714 -0.02182,0.07425 -0.03272,0.111363 -0.03729,0.126938 -0.07534,0.253674 -0.114153,0.380156 -0.03899,0.126507 -0.07874,0.252786 -0.119227,0.378837 -0.04077,0.126101 -0.08229,0.251949 -0.124554,0.377543 -0.04163,0.125239 -0.08399,0.250199 -0.127091,0.37493 -0.0434,0.125239 -0.08754,0.250199 -0.132418,0.374905 -0.04518,0.124376 -0.09109,0.248474 -0.137745,0.372292 -0.04645,0.123945 -0.09363,0.247611 -0.14155,0.370998 -0.04779,0.123083 -0.09634,0.245861 -0.145609,0.368361 -0.04949,0.123082 -0.09972,0.245886 -0.150682,0.36836 l -0.01268,0.03146 c -0.04658,0.111693 -0.09376,0.223107 -0.14155,0.334267 -0.05256,0.121357 -0.105808,0.242411 -0.159815,0.363134 -0.05347,0.120926 -0.107684,0.241523 -0.162605,0.361815 -0.05517,0.120064 -0.111058,0.239773 -0.167678,0.359178 -0.05695,0.119632 -0.114636,0.238935 -0.173006,0.357883 -0.05781,0.119201 -0.11631,0.238048 -0.175543,0.356564 -0.05959,0.117883 -0.119886,0.235435 -0.180869,0.352607 -0.06093,0.117477 -0.122576,0.234598 -0.184929,0.351339 -0.0622,0.117045 -0.125112,0.23371 -0.188733,0.349994 -0.06357,0.115751 -0.127852,0.231097 -0.192792,0.346087 -0.06527,0.115321 -0.131226,0.230235 -0.197866,0.344769 -0.06621,0.114458 -0.133078,0.228509 -0.200656,0.342155 -0.06799,0.113596 -0.136655,0.22676 -0.205984,0.339518 -0.06925,0.112707 -0.139191,0.225034 -0.209788,0.336904 -0.07052,0.112277 -0.141728,0.224147 -0.213594,0.335586 -0.07189,0.110982 -0.144442,0.221533 -0.217652,0.331653 -0.07316,0.11012 -0.146979,0.219784 -0.221458,0.329016 -0.0745,0.109688 -0.149693,0.218946 -0.225516,0.327746 -0.07537,0.108395 -0.151393,0.216308 -0.228053,0.32379 -0.07714,0.107507 -0.154944,0.214558 -0.23338,0.321151 -0.07844,0.10667 -0.157481,0.212858 -0.237185,0.318564 -0.07978,0.105782 -0.160195,0.211108 -0.241244,0.315926 -0.08064,0.104488 -0.161895,0.208469 -0.243781,0.311994 -0.08242,0.104057 -0.165446,0.207607 -0.249108,0.310674 -0.03178,0.03897 -0.06367,0.07788 -0.09564,0.116691 -0.05177,0.06352 -0.103778,0.126862 -0.15601,0.190001 -0.08462,0.101445 -0.169835,0.202407 -0.255652,0.302836 -0.07121,0.08381 -0.142819,0.167273 -0.214862,0.250377 -0.01446,0.017 -0.02889,0.03417 -0.04338,0.05124 -0.08721,0.09972 -0.175035,0.198906 -0.26344,0.297585 -0.03054,0.03371 -0.06116,0.06738 -0.09183,0.100962 -0.05784,0.06448 -0.115929,0.128765 -0.174274,0.192793 -0.08945,0.09799 -0.179475,0.19543 -0.270087,0.292334 -0.09031,0.09624 -0.181174,0.191929 -0.272624,0.287083 -0.09163,0.09538 -0.183812,0.190204 -0.27658,0.28447 -0.09297,0.09452 -0.186476,0.188454 -0.280564,0.281857 -0.09383,0.0932 -0.188226,0.185842 -0.283176,0.2779 -0.09513,0.09234 -0.190814,0.184091 -0.287058,0.275287 -0.0761,0.07156 -0.152534,0.142768 -0.229321,0.213594 -0.02004,0.01877 -0.04023,0.03757 -0.06038,0.05631 -0.09736,0.09016 -0.195227,0.179728 -0.293653,0.268717 -0.09822,0.08843 -0.196978,0.176253 -0.296266,0.263491 -0.09914,0.08754 -0.198779,0.174503 -0.298929,0.260879 -0.100405,0.08625 -0.201341,0.171889 -0.302786,0.256921 -0.101317,0.0849 -0.203142,0.169226 -0.305449,0.252913 -0.10218,0.08407 -0.204867,0.167526 -0.308061,0.250376 -0.103499,0.08229 -0.20748,0.164001 -0.311969,0.245049 -0.104412,0.08146 -0.209281,0.162301 -0.314657,0.242513 -0.10525,0.08011 -0.210981,0.159612 -0.317194,0.238454 -0.106594,0.07887 -0.213695,0.157075 -0.321228,0.234648 -0.106999,0.0775 -0.214481,0.154361 -0.322419,0.23059 -0.107913,0.07625 -0.216308,0.151849 -0.325135,0.226784 -0.109232,0.07489 -0.218895,0.149135 -0.329015,0.222726 -0.11012,0.07364 -0.220696,0.146598 -0.331679,0.218921 -0.110551,0.07227 -0.221559,0.143909 -0.332972,0.214862 -0.111871,0.07103 -0.224172,0.141372 -0.336879,0.211057 -0.112327,0.06966 -0.22506,0.138683 -0.338199,0.206998 -0.113214,0.06842 -0.22681,0.136147 -0.340836,0.203193 -0.114103,0.06707 -0.228611,0.133432 -0.3435,0.199134 -0.114965,0.06537 -0.230311,0.130059 -0.346062,0.194061 -0.115853,0.06453 -0.232061,0.128384 -0.348675,0.191523 -0.11631,0.06276 -0.232975,0.124833 -0.35002,0.186197 -0.117172,0.06141 -0.234725,0.122119 -0.352632,0.182138 -0.11806,0.06015 -0.236501,0.119608 -0.355271,0.178333 -0.118491,0.05837 -0.237337,0.116056 -0.356513,0.173006 -0.119405,0.0571 -0.239139,0.113519 -0.359228,0.1692 -0.119836,0.05576 -0.240001,0.110805 -0.360496,0.165142 -0.120724,0.05451 -0.241752,0.108294 -0.36311,0.161337 -0.121585,0.05317 -0.243501,0.105579 -0.365721,0.157278 -0.121637,0.05147 -0.243553,0.102205 -0.365798,0.152204 -0.122474,0.04969 -0.245278,0.09865 -0.368335,0.146878 -0.123362,0.04886 -0.247003,0.09698 -0.370948,0.14434 -0.123412,0.04665 -0.247104,0.09257 -0.371049,0.137745 -0.124249,0.04574 -0.248778,0.09071 -0.37356,0.134955 -0.125138,0.04404 -0.250554,0.08734 -0.376199,0.129881 -0.125163,0.04269 -0.250605,0.08463 -0.376275,0.125822 -0.125619,0.04092 -0.251467,0.08108 -0.377543,0.120495 -0.126482,0.03965 -0.253217,0.07856 -0.380156,0.116691 -0.126507,0.03787 -0.253217,0.07501 -0.380156,0.111362 -0.12737,0.03661 -0.254965,0.07247 -0.382769,0.107558 -0.127395,0.03483 -0.254978,0.06892 -0.382768,0.102231 -0.128283,0.03348 -0.256777,0.06621 -0.385458,0.09817 -0.128258,0.03222 -0.256734,0.06367 -0.385382,0.09437 -0.128714,0.03003 -0.257611,0.05928 -0.386675,0.08777 -0.129196,0.02917 -0.258545,0.05758 -0.388071,0.08523 -0.10563,0.02182 -0.211361,0.0433 -0.317194,0.06418 -0.0241,0.0051 -0.04802,0.01015 -0.07204,0.01522 -0.129628,0.02615 -0.25941,0.05152 -0.389339,0.0761 -0.13011,0.02385 -0.260336,0.04711 -0.390709,0.06951 -0.130515,0.02258 -0.261137,0.04442 -0.391901,0.06545 -0.130541,0.02131 -0.261196,0.04188 -0.391977,0.06164 -0.130998,0.01953 -0.262086,0.03833 -0.393297,0.05632 -0.130972,0.01776 -0.262063,0.03496 -0.393245,0.05124 -0.131429,0.01649 -0.262966,0.03224 -0.39459,0.04718 -0.131454,0.01471 -0.262979,0.02869 -0.39459,0.04186 -0.131885,0.01294 -0.263834,0.02537 -0.395859,0.03678 -0.131454,0.01167 -0.262996,0.02258 -0.39459,0.03272 -0.132341,0.0104 -0.264744,0.02004 -0.397203,0.02892 -0.113138,0.0074 -0.226328,0.01421 -0.339542,0.02029 l -0.05632,0.0025 c -0.13191,0.0066 -0.263872,0.01268 -0.395858,0.01776 -0.132367,0.0058 -0.264773,0.01091 -0.397203,0.01522 -0.132367,0.0041 -0.264783,0.0076 -0.397203,0.01015 -0.132393,0.0025 -0.264793,0.0041 -0.397203,0.0051 -0.05157,1.19e-4 -0.103169,1.19e-4 -0.154741,0 -0.132418,-5.4e-5 -0.264826,-8.98e-4 -0.397228,-0.0025 -0.132418,-0.0017 -0.264818,-0.0043 -0.397203,-0.0076 -0.131987,-0.0036 -0.263933,-0.0076 -0.395859,-0.01268 -0.132443,-0.0051 -0.264838,-0.01116 -0.397203,-0.01776 -0.131986,-0.0061 -0.263947,-0.01268 -0.395858,-0.02029 -0.132037,-0.0079 -0.264009,-0.01674 -0.395934,-0.02613 -0.132012,-0.0094 -0.263969,-0.01928 -0.395859,-0.03019 -0.132037,-0.01141 -0.264031,-0.02385 -0.395934,-0.03678 -0.131606,-0.01243 -0.263124,-0.02542 -0.394565,-0.03932 -0.131606,-0.01446 -0.263118,-0.02983 -0.394539,-0.04591 -0.131606,-0.01573 -0.263144,-0.03237 -0.394565,-0.04972 -0.131226,-0.01725 -0.262322,-0.03506 -0.393322,-0.05378 -0.130769,-0.01903 -0.261436,-0.03863 -0.391977,-0.05911 -0.130769,-0.02055 -0.261396,-0.04201 -0.391901,-0.06418 -0.130363,-0.02207 -0.260592,-0.04472 -0.390683,-0.06824 -0.130363,-0.02359 -0.260569,-0.0481 -0.390633,-0.07331 -0.129932,-0.02511 -0.259714,-0.05081 -0.389339,-0.07737 -0.129501,-0.02679 -0.258846,-0.05436 -0.38802,-0.0827 -0.105883,-0.02359 -0.21164,-0.04751 -0.31727,-0.07204 0.0672,0.03567 0.134498,0.07108 0.201925,0.10629 0.117628,0.06058 0.235637,0.120444 0.353976,0.179601 0.11806,0.05974 0.236475,0.118745 0.355246,0.177065 0.118947,0.05796 0.23825,0.115193 0.357883,0.171737 0.119379,0.0567 0.239088,0.112682 0.359152,0.167932 0.120292,0.05535 0.240914,0.109968 0.36184,0.163874 0.121155,0.05358 0.242614,0.106416 0.364378,0.158546 0.121637,0.05231 0.243552,0.103879 0.365798,0.154741 0.122042,0.05096 0.244364,0.101191 0.36699,0.150682 0.122499,0.04926 0.245328,0.09782 0.368411,0.145609 0.123362,0.04792 0.247028,0.0951 0.370948,0.141551 0.124249,0.04665 0.248778,0.09256 0.373585,0.137745 0.124301,0.04488 0.248855,0.08901 0.373662,0.132417 0.125138,0.04363 0.250529,0.0865 0.376174,0.128613 0.125188,0.04183 0.250604,0.08293 0.376274,0.123286 0.126026,0.04049 0.252305,0.08024 0.378812,0.119227 0.126482,0.03924 0.253217,0.0777 0.380156,0.115421 0.126938,0.03747 0.254115,0.07415 0.3815,0.110095 0.12737,0.03569 0.254973,0.0706 0.382769,0.104767 0.127826,0.03442 0.255876,0.06806 0.384113,0.100963 0.128283,0.03308 0.256746,0.06537 0.385407,0.0969 0.128283,0.03138 0.256739,0.062 0.385382,0.09183 0.129171,0.0296 0.258509,0.05845 0.38802,0.0865 0.129196,0.02833 0.25855,0.05591 0.388071,0.0827 0.129602,0.02656 0.259371,0.05236 0.389288,0.07737 0.130084,0.02511 0.26031,0.04964 0.390683,0.07331 0.130084,0.02359 0.260288,0.04627 0.390633,0.06824 0.130515,0.02207 0.261175,0.04356 0.391952,0.06418 0.13054,0.02055 0.2612,0.04018 0.391977,0.05911 0.130972,0.01903 0.262055,0.03749 0.393245,0.05505 0.131429,0.017 0.262964,0.03308 0.394591,0.04845 0.131428,0.01598 0.262968,0.0314 0.39459,0.04591 0.131453,0.01395 0.262983,0.02699 0.39459,0.03932 0.131453,0.01294 0.262971,0.02537 0.394564,0.03678 0.131911,0.01091 0.263864,0.0208 0.395884,0.03019 0.132342,0.0094 0.264752,0.01826 0.397203,0.02613 0.131936,0.0076 0.2639,0.01421 0.395909,0.02029 0.132367,0.0066 0.264767,0.01268 0.397203,0.01776 0.131936,0.0051 0.2639,0.0091 0.395884,0.01268 0.132392,0.0033 0.264787,0.0058 0.397202,0.0076 0.132393,0.0016 0.264798,0.0025 0.397203,0.0025 h 0.04059 c 0.03805,6.6e-5 0.0761,6.6e-5 0.114154,0 0.132417,-8.98e-4 0.264812,-0.0025 0.397202,-0.0051 0.132418,-0.0025 0.264823,-0.0061 0.397203,-0.01015 0.131987,-0.0043 0.263953,-0.0094 0.395884,-0.01522 0.132443,-0.0051 0.264838,-0.01116 0.397203,-0.01776 0.03932,-0.0025 0.07864,-0.0051 0.117958,-0.0076 0.09264,-0.0046 0.185284,-0.0096 0.277875,-0.01522 0.132037,-0.0089 0.263999,-0.01852 0.395909,-0.02892 0.132012,-0.01015 0.263989,-0.02106 0.395884,-0.03272 0.132037,-0.01141 0.264014,-0.02385 0.395909,-0.03678 0.131606,-0.01319 0.263144,-0.02712 0.39459,-0.04186 0.131175,-0.01497 0.262258,-0.03067 0.393246,-0.04718 0.131631,-0.01624 0.263164,-0.03338 0.39459,-0.05124 0.1312,-0.01801 0.262276,-0.03676 0.393245,-0.05632 0.130794,-0.01979 0.261442,-0.04031 0.391977,-0.06164 0.130338,-0.02106 0.260536,-0.04284 0.390608,-0.06545 0.130363,-0.02232 0.260612,-0.04556 0.390708,-0.06951 0.130364,-0.02461 0.260559,-0.04995 0.390608,-0.0761 0.129932,-0.02544 0.259734,-0.05165 0.389364,-0.07864 0.129069,-0.02765 0.257989,-0.05606 0.386726,-0.08523 0.129501,-0.02849 0.258857,-0.05774 0.38802,-0.08777 0.128638,-0.0307 0.257111,-0.06215 0.385382,-0.09437 0.128232,-0.03204 0.256271,-0.06486 0.384113,-0.09843 0.128232,-0.03331 0.256246,-0.06737 0.384063,-0.10223 0.127369,-0.03508 0.254549,-0.07095 0.3815,-0.107558 0.127395,-0.03635 0.254557,-0.07349 0.381501,-0.111363 0.126507,-0.03815 0.252786,-0.07704 0.378811,-0.11669 0.126533,-0.0394 0.252812,-0.07958 0.378862,-0.120495 0.125645,-0.0412 0.251061,-0.08313 0.376199,-0.125823 0.125239,-0.04254 0.250224,-0.08584 0.37493,-0.129881 0.124808,-0.04381 0.249336,-0.08838 0.373586,-0.133686 0.124376,-0.04558 0.248474,-0.09193 0.372292,-0.139013 0.123514,-0.04729 0.246749,-0.09533 0.369679,-0.144087 0.12354,-0.04822 0.246774,-0.09718 0.369705,-0.146878 0.12222,-0.04992 0.24411,-0.100581 0.365722,-0.15195 0.12222,-0.0517 0.244136,-0.104134 0.365722,-0.157278 0.120926,-0.05256 0.241548,-0.105833 0.36184,-0.159815 0.120927,-0.05434 0.241549,-0.109384 0.361816,-0.165142 0.120064,-0.05611 0.239772,-0.112935 0.359152,-0.170469 0.119201,-0.05695 0.238073,-0.114635 0.356589,-0.173005 0.11877,-0.05873 0.237211,-0.118187 0.355271,-0.178333 0.117907,-0.06002 0.23546,-0.120724 0.352632,-0.182138 0.11702,-0.06136 0.233659,-0.123438 0.349943,-0.186197 0.11664,-0.06306 0.232873,-0.126812 0.348752,-0.19127 0.115751,-0.064 0.231097,-0.128689 0.346062,-0.194061 0.114889,-0.06578 0.229372,-0.13224 0.343449,-0.199388 0.114001,-0.06705 0.227622,-0.134777 0.340811,-0.203193 0.113164,-0.06831 0.225897,-0.137314 0.338224,-0.206998 0.112733,-0.06968 0.225034,-0.140028 0.33693,-0.211057 0.111413,-0.07095 0.222421,-0.14259 0.332972,-0.214862 0.110983,-0.07232 0.221534,-0.145279 0.331628,-0.21892 0.109689,-0.07367 0.218921,-0.147994 0.327722,-0.22298 0.109257,-0.07493 0.218058,-0.15053 0.326402,-0.226784 0.107964,-0.07623 0.215446,-0.153093 0.322496,-0.23059 0.107533,-0.07757 0.214583,-0.155781 0.321177,-0.234649 0.106213,-0.07894 0.21197,-0.158495 0.317245,-0.238707 0.105351,-0.08021 0.21022,-0.161058 0.314606,-0.242512 0.104032,-0.08107 0.207607,-0.162758 0.310675,-0.24505 0.103626,-0.08285 0.206744,-0.166308 0.309356,-0.250376 0.102332,-0.08369 0.204131,-0.168008 0.305449,-0.252913 0.02486,-0.02131 0.04975,-0.04274 0.07458,-0.06418 0.07631,-0.06393 0.152331,-0.128182 0.228053,-0.192793 0.10015,-0.08635 0.199768,-0.173335 0.298878,-0.260878 0.04952,-0.04358 0.09891,-0.08729 0.148146,-0.13115 0.04952,-0.04399 0.09891,-0.08813 0.148146,-0.132418 0.0984,-0.08856 0.196293,-0.177698 0.293628,-0.267423 0.09713,-0.08988 0.193705,-0.180337 0.289746,-0.271355 0.09624,-0.0912 0.19193,-0.18295 0.287058,-0.275287 0.09495,-0.09206 0.189342,-0.1847 0.283176,-0.2779 0.09406,-0.09295 0.187541,-0.186476 0.280487,-0.280538 0.09277,-0.0947 0.18498,-0.189951 0.276607,-0.285764 0.09148,-0.09515 0.182366,-0.190864 0.272699,-0.287108 0.09059,-0.09647 0.180591,-0.193478 0.270011,-0.291015 0.08929,-0.09779 0.177978,-0.19609 0.266104,-0.294947 0.08797,-0.09865 0.175365,-0.197866 0.262172,-0.29756 0.08714,-0.09954 0.173666,-0.199616 0.25961,-0.300198 0.08579,-0.10086 0.171002,-0.202254 0.255577,-0.304129 0.0845,-0.101749 0.168363,-0.204005 0.251645,-0.306769 0.08366,-0.103067 0.166689,-0.206617 0.249108,-0.310674 0.08189,-0.103499 0.163137,-0.207506 0.24378,-0.311994 0.08105,-0.104818 0.161464,-0.210144 0.241244,-0.315926 0.07971,-0.105706 0.15875,-0.211894 0.237186,-0.318538 0.078,-0.106594 0.155375,-0.21367 0.232111,-0.321177 0.07709,-0.107482 0.153524,-0.215395 0.229322,-0.32379 0.07582,-0.108775 0.151012,-0.218032 0.225516,-0.327721 0.07448,-0.109232 0.148298,-0.218921 0.221458,-0.329041 0.07321,-0.11012 0.145761,-0.220671 0.217652,-0.331653 0.06834,-0.105808 0.136071,-0.211996 0.203193,-0.318564 l 0.01015,-0.01776 c 0.0706,-0.111871 0.140535,-0.224197 0.209788,-0.336905 0.06882,-0.112758 0.136984,-0.225947 0.204462,-0.339517 0.06798,-0.113646 0.135309,-0.227698 0.201924,-0.342156 0.06672,-0.114534 0.132773,-0.229448 0.19812,-0.344768 0.06494,-0.114965 0.129221,-0.230336 0.192792,-0.346062 0.06362,-0.116285 0.126532,-0.232975 0.188733,-0.35002 0.06235,-0.116741 0.123996,-0.233837 0.184929,-0.351313 0.06098,-0.117172 0.121281,-0.234725 0.180869,-0.352632 0.05931,-0.118492 0.117908,-0.237363 0.175797,-0.356565 0.05796,-0.118948 0.115193,-0.23825 0.171737,-0.357883 0.0566,-0.119379 0.112504,-0.239113 0.167678,-0.359177 0.05535,-0.120267 0.109968,-0.240889 0.163874,-0.361816 0.05398,-0.120723 0.107253,-0.241751 0.159815,-0.363109 0.05231,-0.121611 0.103879,-0.243527 0.154741,-0.365747 0.05053,-0.122043 0.100353,-0.24439 0.149414,-0.367041 0.04969,-0.12293 0.09865,-0.246165 0.146877,-0.369679 0.04792,-0.123362 0.0951,-0.247028 0.14155,-0.370973 0.04614,-0.123844 0.09155,-0.247941 0.136223,-0.372318 0.04531,-0.124706 0.08988,-0.249666 0.133686,-0.374905 0.01243,-0.03668 0.02461,-0.07339 0.03678,-0.110094 -0.117299,-0.05682 -0.234395,-0.114077 -0.351288,-0.171737 -0.151113,-0.07489 -0.30189,-0.15048 -0.452301,-0.226785 -0.149794,-0.07625 -0.299223,-0.153194 -0.448292,-0.230843 -0.149389,-0.07752 -0.29842,-0.155731 -0.447076,-0.234649 -0.1485,-0.0793 -0.296633,-0.159282 -0.444386,-0.239976 -0.148069,-0.08057 -0.295743,-0.161818 -0.443042,-0.24378 -0.147232,-0.0814 -0.294056,-0.163519 -0.440505,-0.246318 -0.146319,-0.0832 -0.292255,-0.16707 -0.43779,-0.251645 -0.145457,-0.08452 -0.290536,-0.169733 -0.435204,-0.255627 -0.07613,-0.04574 -0.152153,-0.09165 -0.228053,-0.137745 l -0.05631,-0.03399 c -0.04942,-0.0296 -0.09881,-0.05928 -0.148146,-0.08904 -0.144188,-0.08716 -0.287945,-0.174984 -0.431297,-0.263491 -0.142869,-0.08848 -0.285312,-0.177623 -0.427339,-0.267423 -0.142438,-0.09021 -0.284424,-0.181098 -0.425995,-0.272649 -0.141169,-0.09109 -0.28189,-0.182874 -0.42219,-0.275287 -0.140687,-0.09284 -0.280936,-0.186375 -0.420743,-0.280539 -0.139851,-0.09373 -0.27925,-0.188124 -0.418207,-0.283151 -0.138507,-0.09505 -0.276584,-0.190763 -0.414199,-0.287108 -0.105833,-0.07379 -0.211945,-0.150378 -0.301974,-0.214253 z"
       sodipodi:nodetypes="ccccccccsscccccccccccccccccccccccccccccccccccccccccccccscccscccccccccccccccccccssccccccccccccccccccccccccccccccccccccccccccccccccccccccccccccccccsccccccccccccccccccccccccccccccscccccccccccccccccccccccccccccccccccccccccccccccccccccccccccccccccccscccccccccscccccccccccccccccccccccccccccccccccccccscccccccccccc" />
    <path
       id="path4164"
       style="opacity:1;fill:none;fill-opacity:1;fill-rule:evenodd;stroke:#008fff;stroke-width:3;stroke-miterlimit:4;stroke-dasharray:none;stroke-opacity:1"
       d="m 9.2886825,41.893797 c 0.035048,0.08886 0.070476,0.177546 0.1062895,0.266104 0.050002,0.122651 0.100739,0.245024 0.1522044,0.367066 0.051699,0.121789 0.1041256,0.243274 0.1572779,0.364428 0.052549,0.121358 0.1058202,0.242386 0.1598147,0.36311 0.054324,0.120926 0.1093716,0.241548 0.165142,0.361815 0.05611,0.119633 0.112936,0.238936 0.170469,0.357883 0.05696,0.119633 0.114622,0.238911 0.173006,0.357858 0.05874,0.118339 0.118184,0.236323 0.178332,0.353952 0.06001,0.117907 0.120724,0.23546 0.182138,0.352632 0.06136,0.117477 0.123431,0.234572 0.186197,0.351313 0.06264,0.116183 0.125977,0.23196 0.190002,0.347382 0.06442,0.115751 0.129529,0.231122 0.195329,0.346087 0.06578,0.114889 0.13224,0.229372 0.199388,0.343449 0.06705,0.114458 0.134779,0.22851 0.203193,0.342156 0.06841,0.113139 0.137496,0.225871 0.207252,0.338198 0.06968,0.112733 0.140033,0.225035 0.211056,0.336905 0.07096,0.111414 0.14258,0.222421 0.214862,0.332972 0.07231,0.110983 0.145287,0.221534 0.218921,0.331654 0.07359,0.109689 0.147834,0.218921 0.222726,0.327721 0.07494,0.109258 0.150538,0.218059 0.226785,0.326428 0.07622,0.107939 0.153084,0.215446 0.230589,0.322471 0.07758,0.107076 0.155797,0.213695 0.234649,0.319857 0.07885,0.106645 0.158333,0.212833 0.238453,0.318539 0.08022,0.10492 0.161053,0.209357 0.242513,0.313313 0.08106,0.104488 0.162744,0.208495 0.245049,0.311994 0.08284,0.103625 0.166301,0.206744 0.250376,0.30938 0.08378,0.102307 0.168171,0.204132 0.253167,0.305424 0.08504,0.101444 0.170677,0.202407 0.256921,0.302836 0.08637,0.100151 0.173341,0.199768 0.260904,0.298879 0.08722,0.09929 0.175038,0.198043 0.26344,0.296266 0.08856,0.0984 0.177714,0.196293 0.267449,0.293628 0.08987,0.09711 0.180327,0.19368 0.271355,0.289721 0.09118,0.09624 0.182935,0.19193 0.275262,0.287083 0.09208,0.09493 0.18472,0.189317 0.277925,0.283151 0.09297,0.09363 0.186489,0.186704 0.280564,0.279219 0.09471,0.0932 0.189971,0.185841 0.285789,0.2779 0.09514,0.09145 0.190831,0.182341 0.287058,0.272674 0.09647,0.09059 0.193472,0.180616 0.291014,0.270036 0.09778,0.08929 0.196085,0.178003 0.294922,0.26613 0.09868,0.08797 0.197886,0.175364 0.29761,0.262172 0.09956,0.08711 0.199632,0.17364 0.300224,0.259559 0.100858,0.08582 0.202226,0.171027 0.304104,0.255627 0.101736,0.0845 0.203979,0.168364 0.306717,0.251645 0.102624,0.08323 0.205745,0.165852 0.309356,0.24784 0.103948,0.08232 0.208386,0.164 0.313313,0.245049 0.104843,0.08105 0.210171,0.161463 0.315976,0.241244 0.105709,0.07927 0.211892,0.157912 0.318539,0.235917 0.106594,0.07844 0.213654,0.156238 0.321177,0.23338 0.107463,0.07709 0.215387,0.153523 0.323764,0.229321 0.108352,0.07582 0.217152,0.150987 0.326402,0.225517 0.109676,0.07448 0.219799,0.148297 0.33036,0.221457 0.110125,0.07321 0.220686,0.145761 0.331679,0.217652 0.110995,0.07187 0.222419,0.143073 0.334266,0.213594 0.112312,0.0706 0.225047,0.140535 0.338198,0.209788 0.112774,0.06882 0.225956,0.136984 0.339543,0.204462 0.113631,0.06798 0.227668,0.135309 0.342105,0.201924 0.114539,0.06621 0.229471,0.131759 0.344794,0.196598 0.114967,0.06537 0.230323,0.130058 0.346062,0.19406 0.115866,0.0636 0.232109,0.126508 0.348726,0.188734 0.116735,0.06235 0.233842,0.123996 0.351313,0.184928 0.117606,0.06101 0.235574,0.121282 0.353901,0.18087 0.118072,0.05931 0.236497,0.117908 0.35527,0.175796 0.118943,0.05796 0.238231,0.115193 0.357858,0.171737 0.119856,0.05662 0.240049,0.112505 0.360573,0.167679 0.120261,0.05535 0.24085,0.109968 0.361764,0.163873 0.120721,0.05358 0.241759,0.106417 0.363111,0.158547 0.121611,0.05231 0.243527,0.103879 0.365772,0.154741 0.122043,0.05096 0.244364,0.10119 0.367016,0.150682 0.12293,0.04969 0.246165,0.09865 0.369679,0.146878 0.123387,0.04792 0.247028,0.0951 0.370973,0.14155 0.123818,0.04614 0.247916,0.09155 0.372292,0.136223 0.124275,0.04488 0.248829,0.08901 0.373637,0.132418 0.125137,0.04363 0.250554,0.0865 0.376198,0.128612 0.125594,0.04186 0.251442,0.08295 0.377543,0.123286 0.126051,0.04049 0.252355,0.08024 0.378888,0.119227 0.126482,0.03922 0.253217,0.0777 0.380156,0.115421 0.126913,0.03747 0.254065,0.07415 0.381424,0.110095 0.12737,0.03569 0.254973,0.0706 0.382769,0.104767 0.127421,0.03442 0.255031,0.06806 0.382845,0.100963 0.128283,0.03308 0.256746,0.06537 0.385407,0.0969 0.128714,0.03138 0.257637,0.062 0.386726,0.09183 0.128714,0.0296 0.257596,0.05845 0.38665,0.0865 0.129628,0.02833 0.259412,0.05591 0.389365,0.0827 0.12917,0.02656 0.258511,0.05236 0.387994,0.07737 0.130084,0.02511 0.260328,0.04964 0.390709,0.07331 0.130084,0.02359 0.260287,0.04627 0.390633,0.06824 0.130515,0.02207 0.261175,0.04356 0.391951,0.06418 0.130972,0.02055 0.262048,0.04018 0.393246,0.05911 0.130972,0.01903 0.262055,0.03749 0.393246,0.05505 0.130997,0.01725 0.262116,0.03392 0.393321,0.04972 0.131429,0.01573 0.262971,0.03054 0.39459,0.04465 0.131429,0.01421 0.262964,0.02785 0.394565,0.04059 0.131885,0.01268 0.263854,0.02435 0.395884,0.03551 0.13191,0.01091 0.263879,0.0208 0.395909,0.03019 0.13191,0.0094 0.263854,0.01826 0.395858,0.02613 0.131911,0.0076 0.263885,0.01421 0.395884,0.02029 0.132367,0.0066 0.264767,0.01268 0.397203,0.01776 0.132367,0.0051 0.264777,0.0091 0.397203,0.01268 0.131961,0.0033 0.263925,0.0058 0.395909,0.0076 0.132392,0.0012 0.264818,0.0017 0.397228,0.0013 0.052,1.21e-4 0.104006,1.21e-4 0.15601,0 0.132417,-8.98e-4 0.264812,-0.0025 0.397202,-0.0051 0.131987,-0.0025 0.263943,-0.0061 0.395884,-0.01015 0.132418,-0.0036 0.264828,-0.0076 0.397203,-0.01268 0.132012,-0.0061 0.263981,-0.01268 0.395909,-0.02029 0.132443,-0.0069 0.264849,-0.01446 0.397203,-0.02283 0.132012,-0.0089 0.263981,-0.01852 0.395884,-0.02892 0.132037,-0.01015 0.264006,-0.02105 0.395909,-0.03272 0.131606,-0.01141 0.263134,-0.02385 0.39459,-0.03678 0.131581,-0.01319 0.263093,-0.02712 0.394514,-0.04186 0.131631,-0.01497 0.263156,-0.03067 0.39459,-0.04718 0.1312,-0.01624 0.262317,-0.03338 0.393322,-0.05124 0.1312,-0.01801 0.262276,-0.03676 0.393245,-0.05632 0.130769,-0.01979 0.261426,-0.04031 0.391952,-0.06164 0.130794,-0.02106 0.261449,-0.04284 0.391977,-0.06545 0.130338,-0.02232 0.260561,-0.04556 0.390633,-0.06951 0.129932,-0.0241 0.259709,-0.04893 0.389339,-0.07458 0.129957,-0.02585 0.259737,-0.05248 0.389364,-0.07991 0.129501,-0.02722 0.258831,-0.0552 0.387995,-0.08397 0.129094,-0.02892 0.258012,-0.0586 0.386751,-0.08904 0.128638,-0.03069 0.257112,-0.06215 0.385382,-0.09437 0.128663,-0.03153 0.257116,-0.06383 0.385381,-0.0969 0.127801,-0.03374 0.255405,-0.06824 0.382795,-0.103499 0.127801,-0.03508 0.255394,-0.07095 0.382768,-0.107558 0.126939,-0.03638 0.253649,-0.07349 0.380156,-0.111363 0.126939,-0.03813 0.253675,-0.07704 0.380156,-0.11669 0.126076,-0.03942 0.251949,-0.07958 0.377544,-0.120495 0.126101,-0.0412 0.251923,-0.08313 0.377517,-0.125822 0.125239,-0.04254 0.250224,-0.08584 0.374931,-0.129881 0.124807,-0.04381 0.249361,-0.08838 0.373636,-0.133687 0.12392,-0.04561 0.247586,-0.09193 0.370973,-0.139013 0.123945,-0.04729 0.247586,-0.09533 0.370948,-0.144087 0.123108,-0.04822 0.245911,-0.09718 0.368411,-0.146877 0.122651,-0.04992 0.244973,-0.100582 0.367015,-0.151951 0.121789,-0.0517 0.243274,-0.104133 0.364454,-0.157278 0.121357,-0.05256 0.242385,-0.105807 0.363109,-0.159814 0.120495,-0.05434 0.240635,-0.109385 0.360471,-0.165142 0.120089,-0.05611 0.239823,-0.112936 0.359228,-0.170469 0.119176,-0.05695 0.238047,-0.114636 0.356538,-0.173006 0.118771,-0.05873 0.237186,-0.118187 0.355246,-0.178333 0.117907,-0.06002 0.23546,-0.120723 0.352632,-0.182138 0.117045,-0.06136 0.23371,-0.123438 0.350019,-0.186197 0.116614,-0.06306 0.232823,-0.126811 0.348675,-0.19127 0.115777,-0.064 0.231148,-0.128689 0.346139,-0.194061 0.114889,-0.06578 0.229372,-0.13224 0.343449,-0.199387 0.114001,-0.06705 0.227622,-0.134777 0.340811,-0.203193 0.113595,-0.06831 0.226785,-0.137314 0.339543,-0.206998 0.112276,-0.06968 0.224172,-0.140028 0.335611,-0.211057 0.111845,-0.07095 0.223258,-0.142565 0.334241,-0.214862 0.110551,-0.07232 0.220671,-0.145305 0.330359,-0.218921 0.11012,-0.07367 0.219784,-0.147993 0.329016,-0.222979 0.108826,-0.07496 0.217195,-0.150556 0.325108,-0.226785 0.108395,-0.0763 0.216308,-0.153245 0.323765,-0.230843 0.107101,-0.07757 0.21372,-0.155807 0.319883,-0.234649 0.106213,-0.07884 0.211944,-0.158343 0.317219,-0.238454 0.105351,-0.08021 0.210245,-0.161057 0.314632,-0.242512 0.104488,-0.08105 0.208469,-0.162732 0.311968,-0.245049 0.103195,-0.08285 0.205882,-0.166309 0.308088,-0.250376 0.102306,-0.08369 0.204131,-0.168009 0.305449,-0.252914 0.101469,-0.08503 0.202406,-0.170671 0.302836,-0.256921 0.100581,-0.08635 0.20063,-0.17331 0.300147,-0.260878 0.09929,-0.08724 0.198043,-0.175086 0.296266,-0.263491 0.09799,-0.08856 0.19543,-0.177699 0.292359,-0.267424 0.09754,-0.08988 0.194543,-0.180336 0.291015,-0.271355 0.09581,-0.0912 0.191067,-0.182949 0.285789,-0.275287 0.09493,-0.09206 0.189292,-0.1847 0.283101,-0.2779 0.09409,-0.09295 0.187592,-0.186476 0.280563,-0.280538 0.09277,-0.0947 0.184954,-0.189951 0.276581,-0.285764 0.09191,-0.09515 0.183229,-0.190864 0.273993,-0.287108 0.09016,-0.09647 0.179728,-0.193477 0.268743,-0.291015 0.08972,-0.09779 0.178891,-0.19609 0.267448,-0.294947 0.08797,-0.09865 0.175365,-0.197866 0.262172,-0.297559 0.08711,-0.09954 0.173615,-0.199617 0.259534,-0.300198 0.08582,-0.100861 0.171053,-0.202255 0.255653,-0.30413 0.0845,-0.101749 0.168364,-0.204005 0.251645,-0.306768 0.08323,-0.103068 0.165852,-0.206618 0.247839,-0.310675 0.08059,-0.101343 0.160576,-0.203168 0.239976,-0.305449 4.54e-4,-0.03818 -0.07963,-0.06842 -0.106289,-0.09132 -0.136807,-0.09766 -0.273147,-0.195988 -0.409025,-0.294946 -0.135918,-0.09942 -0.271395,-0.19949 -0.406385,-0.300198 -0.135057,-0.100303 -0.269623,-0.20124 -0.403723,-0.302811 -0.134193,-0.101622 -0.26792,-0.203878 -0.40116,-0.306768 -0.133306,-0.102941 -0.266134,-0.206491 -0.398471,-0.310675 -0.132012,-0.10426 -0.263552,-0.209129 -0.39459,-0.314606 -0.131606,-0.105123 -0.262713,-0.21088 -0.393322,-0.317245 -0.130287,-0.106873 -0.260066,-0.21438 -0.389339,-0.322471 -0.128968,-0.10776 -0.257446,-0.21613 -0.385407,-0.325108 -0.128105,-0.10908 -0.255696,-0.218769 -0.382769,-0.329041 -0.127243,-0.110374 -0.25396,-0.221356 -0.380156,-0.332947 -0.12638,-0.111287 -0.252228,-0.223157 -0.377543,-0.335611 -0.125061,-0.112581 -0.249564,-0.22577 -0.37356,-0.339517 -0.123768,-0.1139 -0.247003,-0.228383 -0.369705,-0.34345 C 60.725897,45.238896 60.60355,45.123525 60.481736,45.007596 60.359719,44.891514 60.238234,44.77485 60.117308,44.657602 59.996584,44.540176 59.876419,44.422192 59.756811,44.30365 59.63695,44.185362 59.517673,44.06649 59.398928,43.947086 59.280386,43.827479 59.162428,43.707313 59.045027,43.58659 58.927779,43.466119 58.811114,43.345092 58.695008,43.223506 58.578622,43.101691 58.46282,42.979344 58.347601,42.856439 58.232535,42.733762 58.118052,42.610528 58.004152,42.48676 57.890379,42.362764 57.777215,42.238235 57.664609,42.113174 57.551724,41.98829 57.439423,41.862874 57.32773,41.73695 57.216139,41.610747 57.105156,41.484012 56.994757,41.356769 56.884054,41.229703 56.773934,41.102108 56.664423,40.974 56.555445,40.846047 56.44705,40.717571 56.339289,40.588593 56.231198,40.459321 56.123742,40.329538 56.016869,40.199254 55.910072,40.06955 55.80391,39.939329 55.698331,39.808621 c -0.105503,-0.131479 -0.210398,-0.263445 -0.314658,-0.395909 -0.104184,-0.13191 -0.207759,-0.264316 -0.3107,-0.397203 -0.103321,-0.133229 -0.206008,-0.266941 -0.308062,-0.401135 -0.102002,-0.13366 -0.20337,-0.267811 -0.304104,-0.402428 -0.100252,-0.13498 -0.199895,-0.270457 -0.298879,-0.406386 -0.09939,-0.136299 -0.198145,-0.27308 -0.296266,-0.410318 -0.0981,-0.136755 -0.195557,-0.27395 -0.292359,-0.411611 -0.09678,-0.137619 -0.192894,-0.275716 -0.288351,-0.41425 -0.09548,-0.138506 -0.190307,-0.277464 -0.284496,-0.416863 -0.09373,-0.139825 -0.186806,-0.280094 -0.279219,-0.420794 -0.09287,-0.140282 -0.185055,-0.280977 -0.276606,-0.422114 -0.09155,-0.141144 -0.182468,-0.282725 -0.2727,-0.424726 -0.09023,-0.142464 -0.179779,-0.285351 -0.268666,-0.428659 -0.08894,-0.14292 -0.177242,-0.286238 -0.264836,-0.429977 -0.08719,-0.143783 -0.173716,-0.287989 -0.259559,-0.432591 -0.08633,-0.14467 -0.171966,-0.289751 -0.256921,-0.435228 -0.08458,-0.145559 -0.16844,-0.291502 -0.251645,-0.437842 -0.08331,-0.145989 -0.165903,-0.292369 -0.247839,-0.439135 -0.08196,-0.146877 -0.163214,-0.294135 -0.243781,-0.441774 -0.08069,-0.147765 -0.160677,-0.295898 -0.239976,-0.444411 -0.07935,-0.148628 -0.157988,-0.297631 -0.235917,-0.446999 -0.07765,-0.149516 -0.154614,-0.299414 -0.230843,-0.449663 -0.07674,-0.149947 -0.152737,-0.300264 -0.228053,-0.450931 -0.07494,-0.150403 -0.149186,-0.301169 -0.222726,-0.452275 -0.07326,-0.151723 -0.145812,-0.30378 -0.217652,-0.456183 -0.07232,-0.151722 -0.14396,-0.303787 -0.214862,-0.456182 -0.07065,-0.153041 -0.140587,-0.30643 -0.209789,-0.460139 -0.0693,-0.153498 -0.137872,-0.307301 -0.205729,-0.461433 -0.06761,-0.15393 -0.134498,-0.308189 -0.200657,-0.462752 -0.06677,-0.154361 -0.132798,-0.309054 -0.198119,-0.464046 -0.06499,-0.15569 -0.129272,-0.311685 -0.192792,-0.46798 -0.06322,-0.155707 -0.125696,-0.311709 -0.187466,-0.468003 -0.06187,-0.156575 -0.123006,-0.313441 -0.183406,-0.470591 -0.01573,-0.0415 -0.03151,-0.08302 -0.04718,-0.124554 -0.04454,-0.11565 -0.08869,-0.231452 -0.132418,-0.347406 -0.05926,-0.157468 -0.117781,-0.315212 -0.175543,-0.473229 -0.05756,-0.158346 -0.114381,-0.316962 -0.170469,-0.475842 -0.05581,-0.158803 -0.11083,-0.317866 -0.165141,-0.477186 -0.05454,-0.159239 -0.108319,-0.318735 -0.161337,-0.47848 -0.05317,-0.159678 -0.105605,-0.319604 -0.157278,-0.479774 -0.05139,-0.160127 -0.102053,-0.320492 -0.151951,-0.481093 -0.05013,-0.160571 -0.09952,-0.321377 -0.148145,-0.482412 -0.04878,-0.161448 -0.09683,-0.323125 -0.144087,-0.485025 -0.04668,-0.161469 -0.09259,-0.323157 -0.137745,-0.485058 -0.04574,-0.161902 -0.09074,-0.324019 -0.134955,-0.486344 -0.04399,-0.162782 -0.08719,-0.325768 -0.129627,-0.488956 -0.04229,-0.162791 -0.08379,-0.325778 -0.124554,-0.488957 -0.04094,-0.163237 -0.0811,-0.326663 -0.120496,-0.490276 -0.03924,-0.163683 -0.07773,-0.32755 -0.115421,-0.491595 -0.0379,-0.16413 -0.07501,-0.328436 -0.111363,-0.492914 -0.03663,-0.164125 -0.07248,-0.32842 -0.107558,-0.492881 -0.03486,-0.164576 -0.06892,-0.329313 -0.102231,-0.494208 -0.03351,-0.165018 -0.06623,-0.330194 -0.09817,-0.49552 -0.03138,-0.165466 -0.062,-0.331079 -0.09183,-0.496833 -0.03004,-0.165471 -0.05928,-0.331082 -0.08777,-0.496828 -0.02877,-0.165916 -0.05675,-0.331964 -0.08397,-0.498142 -0.02699,-0.16636 -0.05322,-0.332845 -0.07864,-0.499452 -0.02511,-0.166367 -0.04964,-0.332853 -0.07331,-0.499451 -0.02385,-0.166375 -0.04711,-0.33286 -0.06951,-0.499451 -0.0086,-0.0664 -0.017,-0.132824 -0.02537,-0.199261 -0.01345,-0.100904 -0.02651,-0.201844 -0.03932,-0.302821 -0.0208,-0.166824 -0.04105,-0.333747 -0.06038,-0.50076 -0.01902,-0.167273 -0.03749,-0.334633 -0.05505,-0.502077 -0.01725,-0.167278 -0.03394,-0.334636 -0.04972,-0.502069 -0.01598,-0.167722 -0.0314,-0.335518 -0.04592,-0.503384 -0.0079,-0.09262 -0.01547,-0.185258 -0.02283,-0.277915 -0.0061,-0.07514 -0.01192,-0.150299 -0.01776,-0.225465 -0.01294,-0.167737 -0.02537,-0.3355325 -0.03678,-0.5033836 -0.01116,-0.1677445 -0.02182,-0.3355423 -0.03146,-0.5033857 -0.0081,-0.1498479 -0.01573,-0.2997304 -0.02283,-0.4496424 l -0.0013,-0.055047 c -0.0084,-0.1681935 -0.01598,-0.3364266 -0.02283,-0.5046922 -0.0066,-0.1682036 -0.01268,-0.3364362 -0.01776,-0.5046947 -0.0051,-0.1682138 -0.0091,-0.3364477 -0.01268,-0.5046998 -0.0033,-0.1682189 -0.0058,-0.3364505 -0.0076,-0.5046922 -0.0016,-0.1682265 -0.0025,-0.3364601 -0.0025,-0.5046947 v -0.066868 c 5.6e-5,-0.1682366 9.01e-4,-0.3364715 0.0025,-0.5046998 0.0017,-0.168678 0.0043,-0.3373469 0.0076,-0.5060011 0.0036,-0.1682519 0.0076,-0.336484 0.01268,-0.5046947 0.0051,-0.1682595 0.01116,-0.3364954 0.01776,-0.5046998 0.0061,-0.1678252 0.01268,-0.3356215 0.02029,-0.5033833 0.0081,-0.1682719 0.01674,-0.3365054 0.02638,-0.5046947 0.0094,-0.1634703 0.01928,-0.3268974 0.03019,-0.4902759 l 0.0013,-0.014459 c 0.01091,-0.1678495 0.02283,-0.3356466 0.03526,-0.5033858 0.01243,-0.1678551 0.02542,-0.3356513 0.03932,-0.5033832 l 0.0051,-0.055073 c -0.11225,-0.00801 -0.224552,-0.015453 -0.336879,-0.022323 -0.132367,-0.00781 -0.264762,-0.01483 -0.397203,-0.021055 -0.132367,-0.00604 -0.264772,-0.011278 -0.397203,-0.015728 -0.132367,-0.00561 -0.264774,-0.010432 -0.397202,-0.014459 -0.132393,-0.00299 -0.264791,-0.00519 -0.397203,-0.0066 -0.132395,-0.00164 -0.264798,-0.00248 -0.397203,-0.00254 v -0.00132 c -0.05158,3.186e-4 -0.103162,7.575e-4 -0.154741,0.00132 -0.132393,5.37e-5 -0.264808,8.993e-4 -0.397203,0.00254 -0.132418,0.00225 -0.264839,0.0053 -0.397229,0.00913 -0.131986,0.00403 -0.263935,0.00885 -0.395858,0.01446 -0.132443,0.00487 -0.264838,0.010538 -0.397203,0.016996 -0.132012,0.00708 -0.263988,0.01494 -0.395909,0.023592 -0.132012,0.00839 -0.263978,0.017561 -0.395884,0.027524 -0.132037,0.010135 -0.264006,0.021061 -0.395909,0.032775 -0.131606,0.01189 -0.263136,0.024566 -0.39459,0.038026 -0.132037,0.013195 -0.263991,0.027181 -0.395858,0.041958 -0.131175,0.014515 -0.262256,0.029812 -0.393246,0.04589 l -0.04592,0.0066 c -0.116309,0.01468 -0.232543,0.029978 -0.348675,0.04589 -0.130769,0.018008 -0.261431,0.036799 -0.391977,0.056366 -0.131226,0.019315 -0.262319,0.039414 -0.393296,0.060298 -0.130338,0.021073 -0.260554,0.042923 -0.390633,0.065549 -0.130338,0.02282 -0.260564,0.046422 -0.390633,0.0708 -0.130363,0.024132 -0.260571,0.049042 -0.390632,0.074732 -0.129526,0.025881 -0.258875,0.052534 -0.388071,0.079958 -0.129501,0.02719 -0.258831,0.055154 -0.387995,0.08389 -0.129094,0.028943 -0.258011,0.058657 -0.386751,0.089141 -0.129069,0.030252 -0.257954,0.061277 -0.38665,0.093073 -0.128232,0.03201 -0.256272,0.064785 -0.384113,0.098324 -0.128258,0.033319 -0.256297,0.067404 -0.384139,0.1022561 -0.127344,0.035077 -0.254498,0.070913 -0.381424,0.107507 -0.127395,0.036815 -0.25456,0.074394 -0.381501,0.1127328 -0.126507,0.037695 -0.252761,0.076145 -0.378811,0.1153456 -0.126533,0.039881 -0.252837,0.080521 -0.378888,0.1219158 -0.125645,0.040761 -0.251036,0.082271 -0.376173,0.1245286 -0.125239,0.042513 -0.250224,0.085773 -0.37493,0.1297796 -0.124808,0.044265 -0.249362,0.089276 -0.373637,0.1350307 -0.124376,0.045578 -0.248499,0.0919 -0.372317,0.1389627 -0.123489,0.046896 -0.246698,0.094528 -0.369604,0.1428946 -0.123108,0.048639 -0.245911,0.098013 -0.36841,0.1481203 -0.122652,0.04996 -0.244973,0.1006538 -0.367016,0.1520776 -0.121789,0.051278 -0.243273,0.1032809 -0.364454,0.1560095 -0.121357,0.05302 -0.242385,0.1067664 -0.363109,0.1612353 -0.120926,0.054332 -0.241548,0.1093893 -0.361815,0.1651672 -0.119633,0.055654 -0.238936,0.1120225 -0.357883,0.1690991 -0.119633,0.057401 -0.238936,0.1155181 -0.357884,0.1743502 -0.118321,0.058723 -0.23629,0.1181512 -0.353902,0.1782822 -0.117905,0.060035 -0.235452,0.1207742 -0.352632,0.182214 -0.117492,0.061346 -0.234616,0.1233973 -0.351364,0.1861461 -0.11618,0.062668 -0.231982,0.1260278 -0.347407,0.190078 -0.115744,0.064418 -0.231099,0.1295285 -0.346062,0.195329 -0.114876,0.065296 -0.229362,0.1312789 -0.343449,0.1979419 -0.114458,0.067046 -0.22851,0.1347796 -0.342156,0.2031929 -0.113144,0.068368 -0.225879,0.1374102 -0.338198,0.2071249 -0.112713,0.069679 -0.225009,0.1400332 -0.336879,0.2110568 -0.111416,0.071001 -0.222412,0.1426638 -0.332973,0.2149888 -0.111008,0.072749 -0.221577,0.1461645 -0.331704,0.2202398 -0.109666,0.073632 -0.21889,0.1479174 -0.327671,0.2228527 -0.109273,0.075382 -0.218094,0.1514181 -0.326453,0.2281037 -0.107931,0.076265 -0.215407,0.153171 -0.32242,0.2307166 -0.107093,0.077579 -0.213723,0.1557965 -0.319883,0.2346485 -0.106208,0.078025 -0.21195,0.1566818 -0.317219,0.2359677 -0.105361,0.080209 -0.21024,0.1610475 -0.314632,0.2425124 -0.104481,0.081526 -0.208472,0.1636756 -0.311969,0.2464443 -0.10363,0.082401 -0.206767,0.1654235 -0.309406,0.2490573 -0.102332,0.084161 -0.204157,0.1689342 -0.305474,0.2543158 -0.101432,0.085042 -0.202353,0.1706872 -0.30276,0.2569338 -0.100141,0.085925 -0.199768,0.1724451 -0.298879,0.2595593 -0.0993,0.087675 -0.198074,0.1759433 -0.296317,0.2648003 -0.09839,0.088555 -0.196252,0.1776991 -0.293577,0.2674261 -0.09712,0.08987 -0.193705,0.180329 -0.289746,0.271358 -0.09623,0.09075 -0.191917,0.182079 -0.287058,0.273975 -0.09494,0.09207 -0.189337,0.184708 -0.283176,0.277908 -0.09363,0.09339 -0.186709,0.187341 -0.279219,0.281842 -0.09276,0.09427 -0.184954,0.189094 -0.276581,0.284465 -0.09191,0.09558 -0.183239,0.191719 -0.273993,0.288399 -0.0906,0.09647 -0.180621,0.193475 -0.270062,0.291018 -0.0592,0.06488 -0.118133,0.129985 -0.176811,0.195329 -0.02983,0.03314 -0.0596,0.06635 -0.08929,0.09962 -0.08798,0.09867 -0.175375,0.197863 -0.262172,0.297575 -0.08711,0.09955 -0.173622,0.199613 -0.259534,0.300192 -0.08582,0.100866 -0.171042,0.202245 -0.255653,0.30413 -0.08449,0.101749 -0.168373,0.204 -0.251644,0.306751 -0.08323,0.102631 -0.165842,0.205757 -0.24784,0.309373 -0.08231,0.103943 -0.163993,0.208378 -0.245049,0.3133 -0.08104,0.10439 -0.161456,0.209263 -0.241244,0.314614 -0.07927,0.105714 -0.157912,0.211897 -0.235917,0.318549 -0.07844,0.107025 -0.156233,0.214522 -0.23338,0.322481 -0.07708,0.107474 -0.153526,0.215404 -0.229322,0.323792 -0.07582,0.108354 -0.150994,0.21716 -0.225516,0.326412 -0.07447,0.109235 -0.148293,0.218916 -0.221457,0.329033 -0.07322,0.110557 -0.145767,0.221549 -0.217653,0.332973 -0.07186,0.111 -0.143062,0.222429 -0.213593,0.334282 -0.0706,0.11188 -0.140531,0.224181 -0.209789,0.336896 -0.06883,0.112769 -0.136984,0.225945 -0.204461,0.339528 -0.06799,0.113638 -0.1353,0.227685 -0.201925,0.34213 -0.06622,0.114532 -0.131753,0.229456 -0.196597,0.344769 -0.06538,0.115406 -0.130069,0.231201 -0.194061,0.347381 -0.0636,0.115858 -0.126517,0.232091 -0.188733,0.3487 -0.06234,0.116744 -0.123986,0.233857 -0.184929,0.351339 -0.061,0.117613 -0.121286,0.235592 -0.180869,0.353926 -0.05922,0.118073 -0.117735,0.236498 -0.175543,0.355271 -0.05796,0.118942 -0.115206,0.23823 -0.171737,0.357858 -0.05669,0.119401 -0.112669,0.239141 -0.167932,0.35921 -0.05535,0.120269 -0.109971,0.240868 -0.163874,0.36179 -0.05358,0.121159 -0.106424,0.242636 -0.158546,0.364428 -0.05231,0.121606 -0.10389,0.243524 -0.154741,0.365747 -0.05096,0.122045 -0.101186,0.244395 -0.150683,0.367041 -0.0497,0.122933 -0.09866,0.24616 -0.146877,0.369679 -0.04792,0.122943 -0.0951,0.246173 -0.14155,0.36968 -0.04615,0.124264 -0.09156,0.248803 -0.136223,0.373611 -0.04488,0.124264 -0.08902,0.248796 -0.132418,0.373586 -0.04354,0.12516 -0.08632,0.250579 -0.128359,0.376249 -0.04184,0.125163 -0.08294,0.250572 -0.123286,0.376224 -0.0405,0.12604 -0.080239,0.252322 -0.1192264,0.378837 -0.039231,0.126494 -0.077705,0.253225 -0.1154217,0.380181 -0.037458,0.126928 -0.074157,0.254082 -0.1100945,0.38145 -0.035684,0.127387 -0.070608,0.254988 -0.1047674,0.382794 -0.034418,0.127819 -0.068074,0.255842 -0.1009623,0.384063 -0.033069,0.128275 -0.065372,0.256745 -0.096904,0.385407 -0.031377,0.128288 -0.061988,0.256757 -0.09183,0.385408 l -0.010147,0.04972 c -0.025956,0.112606 -0.051323,0.225339 -0.076102,0.338198 -0.027831,0.129171 -0.05489,0.25852 -0.081176,0.38802 -0.026565,0.129628 -0.052356,0.259407 -0.077371,0.389339 -0.025215,0.130059 -0.049654,0.260293 -0.073312,0.390658 -0.023516,0.130084 -0.04627,0.260288 -0.068238,0.390633 -0.022171,0.130541 -0.043569,0.26119 -0.06418,0.391977 -0.020903,0.130972 -0.041034,0.262061 -0.060374,0.393271 -0.019127,0.130541 -0.037478,0.261193 -0.055047,0.391952 -0.017351,0.131428 -0.033934,0.262961 -0.04972,0.39459 -0.015677,0.131428 -0.03055,0.262956 -0.044647,0.394565 -0.014307,0.131453 -0.027843,0.262981 -0.040588,0.39459 -0.012633,0.131885 -0.024454,0.263854 -0.035514,0.395883 -0.010857,0.13148 -0.020903,0.263002 -0.030187,0.39459 -0.00951,0.132342 -0.018214,0.264752 -0.026128,0.397203 -0.00756,0.131911 -0.014307,0.263885 -0.020294,0.395884 -0.00672,0.132367 -0.012633,0.264767 -0.017757,0.397203 -0.00502,0.131936 -0.00923,0.2639 -0.012684,0.395884 -0.00332,0.132823 -0.00586,0.265667 -0.00761,0.398522 -0.00164,0.132392 -0.00248,0.264797 -0.00254,0.397202 -1.202e-4,0.05157 -1.202e-4,0.10317 0,0.154742 8.99e-4,0.132417 0.00259,0.26483 0.00507,0.397228 0.00259,0.132418 0.00596,0.264823 0.010147,0.397203 0.00429,0.132418 0.00936,0.264815 0.01522,0.397177 0.00512,0.132012 0.01106,0.263976 0.017757,0.395909 0.00682,0.132012 0.014434,0.263969 0.022831,0.395884 0.00885,0.132012 0.018493,0.263981 0.028919,0.395884 0.010122,0.132037 0.02103,0.264006 0.032724,0.395909 0.011466,0.132037 0.023744,0.263996 0.036783,0.395884 0.013166,0.131606 0.027118,0.263128 0.041856,0.394564 0.014941,0.131632 0.030669,0.263157 0.047183,0.39459 0.016286,0.131201 0.033378,0.262284 0.051242,0.393271 0.017985,0.131201 0.03676,0.262294 0.056316,0.393271 0.019761,0.130769 0.040314,0.261427 0.061643,0.391952 0.042404,0.269486 0.09079,0.532934 0.1349546,0.78261 0.024175,0.129932 0.049114,0.259709 0.074834,0.389339 0.02586,0.129932 0.052495,0.259719 0.079907,0.389339 0.027214,0.129501 0.055205,0.258849 0.083966,0.38802 l 0.00254,0.01268 z"
       sodipodi:nodetypes="ccccccccccccccccccccccccccccccsccccccccsccsccccccccccccccccccccccccccccccccccccccccccccccccccccccccccccccccccccccccccccccccccccccccscccccccccccccccccccccccccccsscccccccccccccsccccccssccccscccccccccccccccccccccccccccccccccccccccccccccccccccsccccccccccccccccccccccccccccccccccccccccccccccccccsccccccccccccccccccccccccccccccccccccccccccccccccccsccccccccccccccccccccccccccccccccccccsccccccccccccccccccccccccccccccccccccccccccccccccccccccccccccccccccccccccccccccc" />
    <path
       id="path3545"
       style="opacity:1;fill:#008fff;fill-opacity:1;fill-rule:evenodd;stroke:#008fff;stroke-width:3;stroke-miterlimit:4;stroke-dasharray:none;stroke-opacity:1"
       d="m 43.992642,10.43564 a 53.728157,53.728157 0 0 0 0.02283,0.277911 53.728157,53.728157 0 0 0 0.04592,0.503383 53.728157,53.728157 0 0 0 0.04997,0.502077 53.728157,53.728157 0 0 0 0.05505,0.502074 53.728157,53.728157 0 0 0 0.06037,0.50076 53.728157,53.728157 0 0 0 0.03932,0.302816 53.728157,53.728157 0 0 0 0.02537,0.199261 53.728157,53.728157 0 0 0 0.06951,0.499451 53.728157,53.728157 0 0 0 0.07331,0.499451 53.728157,53.728157 0 0 0 0.07864,0.499452 53.728157,53.728157 0 0 0 0.08397,0.498142 53.728157,53.728157 0 0 0 0.08777,0.496828 53.728157,53.728157 0 0 0 0.09183,0.496834 53.728157,53.728157 0 0 0 0.09843,0.495516 53.728157,53.728157 0 0 0 0.100963,0.494211 53.728157,53.728157 0 0 0 0.107557,0.492899 53.728157,53.728157 0 0 0 0.111363,0.492888 53.728157,53.728157 0 0 0 0.115422,0.491595 53.728157,53.728157 0 0 0 0.120749,0.490276 53.728157,53.728157 0 0 0 0.124554,0.488957 53.728157,53.728157 0 0 0 0.129881,0.488957 53.728157,53.728157 0 0 0 0.134955,0.486344 53.728157,53.728157 0 0 0 0.137745,0.485058 53.728157,53.728157 0 0 0 0.144086,0.485024 53.728157,53.728157 0 0 0 0.148146,0.482412 53.728157,53.728157 0 0 0 0.152205,0.481093 53.728157,53.728157 0 0 0 0.157278,0.479799 53.728157,53.728157 0 0 0 0.161336,0.478481 53.728157,53.728157 0 0 0 0.165142,0.47716 53.728157,53.728157 0 0 0 0.170469,0.475842 53.728157,53.728157 0 0 0 0.175796,0.473229 53.728157,53.728157 0 0 0 0.132418,0.347407 33.205926,33.205931 0 0 1 0.321151,-0.229321 33.205926,33.205931 0 0 1 0.326403,-0.226785 33.205926,33.205931 0 0 1 0.327721,-0.22298 33.205926,33.205931 0 0 1 0.331628,-0.21892 33.205926,33.205931 0 0 1 0.334318,-0.214862 33.205926,33.205931 0 0 1 0.335585,-0.211057 33.205926,33.205931 0 0 1 0.338224,-0.206998 33.205926,33.205931 0 0 1 0.342104,-0.203193 33.205926,33.205931 0 0 1 0.343501,-0.199388 33.205926,33.205931 0 0 1 0.346062,-0.194061 33.205926,33.205931 0 0 1 0.347406,-0.19127 33.205926,33.205931 0 0 1 0.351288,-0.186197 33.205926,33.205931 0 0 1 0.352633,-0.182138 33.205926,33.205931 0 0 1 0.353926,-0.178332 33.205926,33.205931 0 0 1 0.357858,-0.173006 33.205926,33.205931 0 0 1 0.357883,-0.170469 33.205926,33.205931 0 0 1 0.361841,-0.165142 33.205926,33.205931 0 0 1 0.363109,-0.159815 33.205926,33.205931 0 0 1 0.364428,-0.157278 33.205926,33.205931 0 0 1 0.367066,-0.15195 33.205926,33.205931 0 0 1 0.368361,-0.146878 33.205926,33.205931 0 0 1 0.369679,-0.144086 33.205926,33.205931 0 0 1 0.372317,-0.139014 33.205926,33.205931 0 0 1 0.373561,-0.133686 33.205926,33.205931 0 0 1 0.37493,-0.129881 33.205926,33.205931 0 0 1 0.376199,-0.125823 33.205926,33.205931 0 0 1 0.378862,-0.120495 33.205926,33.205931 0 0 1 0.378837,-0.11669 33.205926,33.205931 0 0 1 0.381475,-0.111363 33.205926,33.205931 0 0 1 0.3815,-0.107558 33.205926,33.205931 0 0 1 0.384063,-0.10223 33.205926,33.205931 0 0 1 0.384113,-0.09843 33.205926,33.205931 0 0 1 0.386726,-0.09437 33.205926,33.205931 0 0 1 0.386676,-0.08777 33.205926,33.205931 0 0 1 0.38807,-0.08523 33.205926,33.205931 0 0 1 0.317194,-0.06418 33.205926,33.205931 0 0 1 0.07077,-0.01522 33.205926,33.205931 0 0 1 0.390608,-0.0761 33.205926,33.205931 0 0 1 0.390708,-0.06951 33.205926,33.205931 0 0 1 0.391902,-0.06545 33.205926,33.205931 0 0 1 0.391951,-0.06164 33.205926,33.205931 0 0 1 0.393322,-0.05632 33.205926,33.205931 0 0 1 0.393246,-0.05124 33.205926,33.205931 0 0 1 0.39459,-0.04718 33.205926,33.205931 0 0 1 0.39459,-0.04186 33.205926,33.205931 0 0 1 0.39459,-0.03678 33.205926,33.205931 0 0 1 0.395858,-0.03272 33.205926,33.205931 0 0 1 0.395909,-0.02892 33.205926,33.205931 0 0 1 0.279219,-0.01522 A 33.205926,33.205931 0 0 0 64.745972,18.851565 33.205926,33.205931 0 0 0 64.448437,18.589392 33.205926,33.205931 0 0 0 64.148239,18.329833 33.205926,33.205931 0 0 0 63.84411,18.074206 33.205926,33.205931 0 0 0 63.537392,17.822561 33.205926,33.205931 0 0 0 63.227986,17.574721 33.205926,33.205931 0 0 0 62.914673,17.329596 33.205926,33.205931 0 0 0 62.598747,17.089697 33.205926,33.205931 0 0 0 62.280209,16.852435 33.205926,33.205931 0 0 0 61.959032,16.61908 33.205926,33.205931 0 0 0 61.635268,16.389683 33.205926,33.205931 0 0 0 61.308815,16.164217 33.205926,33.205931 0 0 0 60.978506,15.942684 33.205926,33.205931 0 0 0 60.646827,15.725082 33.205926,33.205931 0 0 0 60.312561,15.511413 33.205926,33.205931 0 0 0 59.974362,15.302969 33.205926,33.205931 0 0 0 59.63482,15.097163 33.205926,33.205931 0 0 0 59.292639,14.895289 33.205926,33.205931 0 0 0 58.949215,14.698641 33.205926,33.205931 0 0 0 58.601808,14.50595 33.205926,33.205931 0 0 0 58.253133,14.315872 33.205926,33.205931 0 0 0 57.90182,14.131045 33.205926,33.205931 0 0 0 57.547843,13.951444 33.205926,33.205931 0 0 0 57.192598,13.774481 33.205926,33.205931 0 0 0 56.834714,13.602743 33.205926,33.205931 0 0 0 56.474244,13.434938 33.205926,33.205931 0 0 0 56.112454,13.27109 33.205926,33.205931 0 0 0 55.749294,13.112468 33.205926,33.205931 0 0 0 55.383572,12.957777 33.205926,33.205931 0 0 0 55.016505,12.807019 33.205926,33.205931 0 0 0 54.646877,12.661511 33.205926,33.205931 0 0 0 54.275853,12.519936 33.205926,33.205931 0 0 0 53.903536,12.382292 33.205926,33.205931 0 0 0 53.529975,12.2499 33.205926,33.205931 0 0 0 53.153777,12.121439 33.205926,33.205931 0 0 0 52.776234,11.99823 33.205926,33.205931 0 0 0 52.397346,11.878927 33.205926,33.205931 0 0 0 52.01719,11.763581 a 33.205926,33.205931 0 0 0 -0.3815,-0.11012 33.205926,33.205931 0 0 0 -0.381425,-0.104869 33.205926,33.205931 0 0 0 -0.384113,-0.100937 33.205926,33.205931 0 0 0 -0.385382,-0.09568 33.205926,33.205931 0 0 0 -0.386751,-0.09175 33.205926,33.205931 0 0 0 -0.06951,-0.01573 33.205926,33.205931 0 0 0 -0.31727,-0.07209 33.205926,33.205931 0 0 0 -0.387995,-0.0826 33.205926,33.205931 0 0 0 -0.389364,-0.07735 33.205926,33.205931 0 0 0 -0.390633,-0.07341 33.205926,33.205931 0 0 0 -0.390607,-0.06816 33.205926,33.205931 0 0 0 -0.391977,-0.06423 33.205926,33.205931 0 0 0 -0.393246,-0.059 33.205926,33.205931 0 0 0 -0.393321,-0.05375 33.205926,33.205931 0 0 0 -0.276581,-0.03539 33.205926,33.205931 0 0 0 -0.11669,-0.01446 33.205926,33.205931 0 0 0 -0.394565,-0.04589 33.205926,33.205931 0 0 0 -0.39459,-0.03932 33.205926,33.205931 0 0 0 -0.395858,-0.03539 33.205926,33.205931 0 0 0 -0.395935,-0.03146 33.205926,33.205931 0 0 0 -0.395858,-0.02623 33.205926,33.205931 0 0 0 -0.395935,-0.02106 33.205926,33.205931 0 0 0 -0.213593,-0.0091 z" />
    <path
       style="opacity:1;fill:none;fill-opacity:1;fill-rule:evenodd;stroke:#008fff;stroke-width:3;stroke-miterlimit:4;stroke-dasharray:none;stroke-opacity:1"
       d="m 66.67113,18.999728 c -0.132418,8.99e-4 -0.264813,0.0026 -0.397203,0.0051 -0.132418,0.0026 -0.264823,0.006 -0.397203,0.01015 -0.131987,0.0043 -0.263938,0.0094 -0.395859,0.01522 -0.132443,0.0051 -0.264838,0.01103 -0.397202,0.01776 -0.03889,0.0025 -0.0778,0.005 -0.11669,0.0076 -0.0931,0.0047 -0.186172,0.0098 -0.27922,0.01522 -0.132037,0.0089 -0.263998,0.01849 -0.395909,0.02892 -0.132012,0.01012 -0.263973,0.02103 -0.395858,0.03272 -0.131606,0.01147 -0.263134,0.02374 -0.39459,0.03678 -0.131606,0.01317 -0.263144,0.02712 -0.39459,0.04186 -0.131632,0.01494 -0.263157,0.03067 -0.39459,0.04718 -0.131175,0.01629 -0.262266,0.03338 -0.393246,0.05124 -0.131225,0.01799 -0.262327,0.03676 -0.393321,0.05632 -0.130769,0.01976 -0.261427,0.04031 -0.391952,0.06164 -0.130769,0.02103 -0.261399,0.04285 -0.391901,0.06545 -0.130363,0.0224 -0.260612,0.04556 -0.390709,0.06951 -0.130363,0.02458 -0.260559,0.04996 -0.390607,0.0761 -0.02359,0.005 -0.04718,0.01012 -0.07078,0.01522 -0.105833,0.02088 -0.211565,0.04227 -0.317195,0.06418 -0.129525,0.02764 -0.258884,0.05605 -0.38807,0.08524 -0.129069,0.02849 -0.257959,0.05774 -0.386676,0.08777 -0.129094,0.03068 -0.258006,0.06214 -0.386726,0.09437 -0.128232,0.03204 -0.256271,0.06485 -0.384113,0.09843 -0.128232,0.03331 -0.256246,0.06739 -0.384062,0.102231 -0.12737,0.03509 -0.25455,0.07095 -0.381501,0.107558 -0.12737,0.03636 -0.254539,0.07348 -0.381475,0.111363 -0.126507,0.03814 -0.252786,0.07704 -0.378837,0.11669 -0.126532,0.03941 -0.252811,0.07957 -0.378862,0.120495 -0.125645,0.04119 -0.251061,0.08313 -0.376199,0.125822 -0.125239,0.04255 -0.250224,0.08584 -0.37493,0.129881 -0.124782,0.04382 -0.249311,0.08838 -0.37356,0.133687 -0.124377,0.0456 -0.2485,0.09193 -0.372318,0.139013 -0.123514,0.04729 -0.246749,0.09532 -0.369679,0.144087 -0.123083,0.04823 -0.245861,0.09718 -0.36836,0.146877 -0.122652,0.04992 -0.245024,0.100569 -0.367067,0.151951 -0.121789,0.0517 -0.243273,0.104126 -0.364428,0.157278 -0.121358,0.05263 -0.242385,0.10599 -0.363109,0.160068 -0.120952,0.05432 -0.241548,0.109372 -0.361841,0.165142 -0.119632,0.05611 -0.238935,0.112933 -0.357883,0.170469 -0.119633,0.05695 -0.23891,0.114623 -0.357858,0.173006 -0.118339,0.05874 -0.236297,0.118184 -0.353926,0.178333 -0.117908,0.06001 -0.23546,0.120723 -0.352632,0.182138 -0.117477,0.06136 -0.234573,0.12343 -0.351288,0.186196 -0.116183,0.06315 -0.231985,0.126992 -0.347407,0.191524 -0.115726,0.064 -0.231097,0.128687 -0.346062,0.194061 -0.114889,0.06569 -0.229398,0.132073 -0.3435,0.199134 -0.114433,0.06705 -0.228484,0.13478 -0.342105,0.203193 -0.113164,0.06833 -0.225897,0.137327 -0.338224,0.206998 -0.112276,0.06968 -0.224146,0.140038 -0.335585,0.211057 -0.11187,0.07095 -0.223309,0.142575 -0.334317,0.214862 -0.110983,0.07231 -0.221534,0.145287 -0.331628,0.218921 -0.109689,0.07367 -0.218921,0.148001 -0.327722,0.222979 -0.109257,0.07494 -0.218058,0.15054 -0.326402,0.226785 -0.107507,0.0758 -0.214558,0.152245 -0.321152,0.229321 0.01547,0.04154 0.03123,0.08306 0.04693,0.124554 0.0604,0.157159 0.121535,0.314032 0.183406,0.470616 0.06177,0.156286 0.12425,0.31228 0.187466,0.467978 0.06352,0.156304 0.127801,0.312307 0.192792,0.468005 0.06522,0.154995 0.131175,0.309675 0.197866,0.464046 0.06616,0.154563 0.133052,0.308815 0.200656,0.462752 0.06786,0.154132 0.136426,0.307945 0.20573,0.461433 0.0692,0.153701 0.13914,0.30709 0.209788,0.46014 0.0709,0.152382 0.142539,0.304457 0.214862,0.456182 0.07184,0.152407 0.144391,0.304464 0.217652,0.456182 0.07362,0.151113 0.147943,0.301867 0.22298,0.452275 0.07532,0.150657 0.151316,0.300979 0.228053,0.450931 0.07625,0.150251 0.153194,0.300122 0.230843,0.449638 0.07793,0.149388 0.156568,0.298386 0.235917,0.447024 0.0793,0.148501 0.159282,0.296634 0.239976,0.444386 0.08057,0.147639 0.161818,0.294899 0.243781,0.441774 0.08194,0.146775 0.164533,0.293161 0.247839,0.43916 0.0832,0.146345 0.16707,0.292289 0.251645,0.437842 0.08496,0.145456 0.170596,0.290538 0.256921,0.435203 0.08584,0.144594 0.172371,0.2888 0.259559,0.43259 0.08757,0.143732 0.175822,0.287068 0.26476,0.429978 0.08891,0.143326 0.178485,0.286213 0.268742,0.428684 0.09023,0.142006 0.181149,0.283579 0.2727,0.424726 0.09155,0.141144 0.183736,0.281842 0.276606,0.422114 0.09241,0.140688 0.185461,0.280967 0.279194,0.420794 0.09416,0.139394 0.188987,0.278354 0.28447,0.416863 0.09548,0.138531 0.191625,0.276619 0.288402,0.41425 0.0968,0.137669 0.194263,0.274866 0.292359,0.411611 0.09812,0.137238 0.196877,0.274011 0.296266,0.410318 0.09898,0.135919 0.198627,0.271376 0.298879,0.406361 0.100734,0.134625 0.202102,0.26878 0.304104,0.402454 0.102054,0.134193 0.204741,0.267907 0.308062,0.401134 0.102941,0.1329 0.206516,0.26529 0.3107,0.397203 0.104235,0.132444 0.209104,0.264417 0.314581,0.395884 0.10558,0.130718 0.211742,0.260937 0.318539,0.390658 0.106898,0.130287 0.21438,0.260067 0.322496,0.389339 0.107761,0.128968 0.216156,0.257446 0.325134,0.385407 0.109511,0.128106 0.219631,0.255699 0.330334,0.382769 0.110399,0.127243 0.221382,0.253961 0.332973,0.380156 0.111693,0.125924 0.223994,0.25134 0.336879,0.376224 0.112606,0.125061 0.22577,0.249615 0.339543,0.373611 0.1139,0.123768 0.228383,0.247003 0.343449,0.369679 0.115219,0.12288 0.231021,0.245252 0.347407,0.367041 0.116106,0.121586 0.232771,0.24264 0.350019,0.363135 0.117401,0.120723 0.235359,0.240889 0.353901,0.360496 0.118745,0.119404 0.238022,0.238276 0.357883,0.356564 0.119608,0.118542 0.239773,0.236526 0.360471,0.353952 0.120927,0.117248 0.242411,0.233887 0.364454,0.349994 0.121789,0.115929 0.244136,0.2313 0.367015,0.346087 0.122677,0.115067 0.245912,0.22955 0.36968,0.34345 0.124021,0.113747 0.24855,0.226937 0.373636,0.339517 0.125315,0.112454 0.251163,0.224324 0.377543,0.335586 0.126203,0.111591 0.252913,0.222573 0.380156,0.332972 0.127066,0.110272 0.254666,0.219961 0.382769,0.329041 0.127953,0.108978 0.256429,0.217348 0.385407,0.325108 0.129272,0.108091 0.259055,0.215598 0.389339,0.322471 0.130592,0.106366 0.261667,0.212122 0.393246,0.317245 0.131048,0.105477 0.262568,0.210346 0.39459,0.314606 0.132367,0.104184 0.265211,0.207734 0.398547,0.310675 0.133204,0.102865 0.266911,0.205121 0.401084,0.306743 0.134118,0.101571 0.268725,0.202533 0.403799,0.302836 0.13498,0.100708 0.270454,0.200783 0.406385,0.300198 0.288583,0.210904 0.552992,0.396107 0.821879,0.587179 0.137618,0.09635 0.275685,0.192031 0.414199,0.287083 0.138963,0.09505 0.278362,0.189418 0.418207,0.283151 0.1398,0.09416 0.280056,0.187693 0.420744,0.280538 0.140307,0.09241 0.28103,0.184193 0.42219,0.275287 0.141575,0.09155 0.283569,0.182443 0.425995,0.272675 0.142032,0.0898 0.284475,0.178941 0.427339,0.267397 0.143351,0.08851 0.287118,0.176329 0.431297,0.263492 0.04934,0.02976 0.09873,0.05944 0.148145,0.08904 0.074,-0.01953 0.174274,0.104945 0.284369,0.17123 0.14467,0.08589 0.289736,0.171103 0.435203,0.255628 0.145533,0.08458 0.291467,0.168439 0.437791,0.251644 0.146446,0.0828 0.293285,0.164914 0.440505,0.246318 0.147308,0.08196 0.29498,0.163214 0.443042,0.243781 0.147739,0.08069 0.295883,0.160677 0.444386,0.239975 0.148653,0.07892 0.297684,0.157126 0.447075,0.234649 0.149059,0.07757 0.298504,0.154437 0.448293,0.23059 0.150403,0.0763 0.30118,0.1519 0.452301,0.226784 0.116893,0.05769 0.233989,0.114915 0.351288,0.171738 0.03407,0.01649 0.06814,0.03318 0.10223,0.04972 0.151292,0.07369 0.302935,0.146649 0.454914,0.21892 0.152154,0.07192 0.30465,0.143123 0.457476,0.213594 0.153067,0.07022 0.306451,0.139724 0.460165,0.20852 0.153498,0.0693 0.3073,0.137872 0.461433,0.20573 0.153929,0.0676 0.308171,0.134498 0.462727,0.200656 0.154817,0.06626 0.309954,0.131784 0.46539,0.196597 0.155249,0.06448 0.310807,0.128233 0.466659,0.191271 0.156136,0.06321 0.312577,0.12572 0.469305,0.187465 0.156593,0.06195 0.313475,0.123184 0.470641,0.18366 0.157024,0.06017 0.314312,0.119632 0.471885,0.178333 0.157912,0.05883 0.316075,0.116918 0.474522,0.174274 0.157938,0.05756 0.316134,0.114381 0.474599,0.170469 0.158775,0.05578 0.317834,0.11083 0.477136,0.165142 0.159256,0.05451 0.318751,0.108318 0.478505,0.161336 0.160119,0.05276 0.320484,0.104768 0.481093,0.15601 0.0485,0.01547 0.09706,0.03067 0.145609,0.04592 0.0951,-0.05594 0.1899,-0.112327 0.284445,-0.169201 0.113138,-0.06831 0.225871,-0.137339 0.338198,-0.206998 0.112733,-0.06968 0.22506,-0.140028 0.336955,-0.211057 0.111414,-0.07095 0.222396,-0.14259 0.332948,-0.214862 0.110982,-0.07232 0.221533,-0.145279 0.331628,-0.21892 0.109688,-0.07367 0.21892,-0.147994 0.327721,-0.22298 0.109258,-0.07493 0.218058,-0.15053 0.326403,-0.226784 0.107963,-0.07631 0.21547,-0.153245 0.322495,-0.230844 0.107508,-0.07757 0.214558,-0.155781 0.321152,-0.234648 0.106239,-0.07894 0.211995,-0.158496 0.31727,-0.238708 0.105351,-0.08021 0.210194,-0.161057 0.314581,-0.242512 0.104057,-0.08107 0.207632,-0.162757 0.3107,-0.245049 0.103601,-0.08285 0.206719,-0.166309 0.30933,-0.250377 0.102333,-0.08369 0.204157,-0.168008 0.305475,-0.252913 0.101469,-0.08506 0.202406,-0.170697 0.302836,-0.256946 0.10015,-0.08635 0.199768,-0.17331 0.298879,-0.260853 0.09926,-0.08724 0.198018,-0.175086 0.29624,-0.263491 0.09843,-0.08899 0.196293,-0.178587 0.293653,-0.268743 0.09708,-0.08944 0.193655,-0.179449 0.289671,-0.270036 0.09627,-0.0912 0.19198,-0.18295 0.287133,-0.275287 0.09495,-0.09208 0.189343,-0.184725 0.283177,-0.277925 0.03501,-0.03526 0.06991,-0.07062 0.104767,-0.106036 0.05873,-0.05829 0.117248,-0.116817 0.175543,-0.175542 0.09277,-0.09427 0.184953,-0.189089 0.276581,-0.284471 0.09147,-0.09515 0.182366,-0.190839 0.272699,-0.287083 0.09059,-0.0969 0.180591,-0.194339 0.270011,-0.292334 0.08929,-0.09733 0.178003,-0.195227 0.266129,-0.293627 0.08843,-0.09868 0.176278,-0.197866 0.263517,-0.297585 0.08668,-0.1 0.172777,-0.200504 0.258266,-0.301517 0.08579,-0.10043 0.170976,-0.201367 0.255576,-0.302811 0.0845,-0.101749 0.168364,-0.204005 0.251645,-0.306743 0.08366,-0.103068 0.166689,-0.206617 0.249108,-0.310674 0.08189,-0.103499 0.163138,-0.207506 0.243781,-0.311994 0.08105,-0.104818 0.161463,-0.210144 0.241244,-0.315926 0.07575,-0.100074 0.15091,-0.20058 0.225516,-0.301517 l 0.01268,-0.01776 c 0.078,-0.106594 0.155375,-0.21367 0.232111,-0.321177 0.07709,-0.107481 0.153524,-0.215394 0.229322,-0.323789 0.07582,-0.108776 0.151012,-0.218033 0.225516,-0.327722 0.07448,-0.109232 0.148298,-0.218921 0.221457,-0.329041 0.07321,-0.110119 0.145762,-0.220671 0.217653,-0.331653 0.07187,-0.111439 0.143072,-0.223309 0.213593,-0.335585 0.0706,-0.111896 0.140536,-0.224198 0.209789,-0.336905 0.06882,-0.112758 0.136984,-0.225948 0.204461,-0.339517 0.06798,-0.113646 0.13531,-0.227698 0.201925,-0.342156 0.06672,-0.114508 0.132773,-0.229423 0.198119,-0.344743 0.06494,-0.114991 0.129222,-0.230336 0.192792,-0.346088 0.0636,-0.116284 0.126533,-0.232974 0.188734,-0.350019 0.06235,-0.116741 0.123996,-0.233837 0.184928,-0.351313 0.06098,-0.117172 0.121282,-0.234725 0.18087,-0.352633 0.05931,-0.118516 0.117908,-0.237362 0.175796,-0.356564 0.05837,-0.118948 0.116056,-0.238251 0.173006,-0.357883 0.0566,-0.119379 0.112504,-0.239114 0.167678,-0.359177 0.05492,-0.120293 0.109131,-0.240889 0.162605,-0.361816 0.05398,-0.120723 0.107254,-0.241751 0.159815,-0.363109 0.05231,-0.121611 0.10388,-0.243527 0.154741,-0.365747 0.05053,-0.122474 0.100354,-0.245278 0.149414,-0.36836 0.04969,-0.122499 0.09865,-0.245278 0.146878,-0.36836 0.04792,-0.123387 0.0951,-0.247028 0.14155,-0.370973 0.04614,-0.123819 0.09155,-0.247916 0.136223,-0.372292 0.04531,-0.124707 0.08988,-0.249692 0.133686,-0.374931 0.0431,-0.124706 0.08546,-0.249691 0.127091,-0.374905 0.04226,-0.125594 0.08379,-0.251441 0.124554,-0.377543 0.04049,-0.12605 0.08024,-0.252329 0.119227,-0.378862 0.03881,-0.126482 0.07686,-0.253217 0.114153,-0.380156 0.03747,-0.126938 0.07415,-0.254098 0.110094,-0.381475 0.03569,-0.12737 0.0706,-0.254973 0.104768,-0.382769 l 0.01015,-0.03805 c -0.02826,-0.05649 -0.05667,-0.112885 -0.08523,-0.169201 -0.06002,-0.117907 -0.120723,-0.23546 -0.182138,-0.352632 -0.06136,-0.117476 -0.123438,-0.234572 -0.186196,-0.351313 -0.06306,-0.116183 -0.126812,-0.231985 -0.191271,-0.347407 -0.064,-0.115751 -0.128689,-0.231097 -0.19406,-0.346062 -0.06578,-0.114889 -0.132241,-0.229372 -0.199388,-0.343449 -0.06705,-0.114458 -0.134777,-0.22851 -0.203193,-0.342156 -0.06831,-0.113139 -0.137339,-0.225871 -0.206998,-0.338198 -0.06968,-0.112276 -0.140028,-0.224147 -0.211057,-0.335586 -0.07095,-0.111844 -0.142565,-0.223284 -0.214862,-0.334291 -0.07232,-0.110983 -0.145279,-0.221534 -0.218921,-0.331654 -0.07367,-0.109688 -0.147993,-0.218921 -0.222979,-0.327721 -0.07494,-0.109258 -0.15053,-0.218059 -0.226785,-0.326428 -0.07623,-0.107938 -0.153092,-0.215446 -0.23059,-0.322471 -0.07757,-0.107075 -0.155806,-0.21372 -0.234648,-0.319857 -0.07894,-0.106214 -0.158496,-0.21197 -0.238707,-0.317245 -0.08021,-0.105351 -0.161058,-0.21022 -0.242513,-0.314607 -0.08115,-0.104488 -0.162909,-0.208494 -0.245303,-0.311993 -0.08285,-0.103195 -0.166308,-0.205882 -0.250376,-0.308062 -0.08369,-0.102738 -0.168008,-0.204994 -0.252913,-0.306743 -0.08503,-0.101013 -0.170672,-0.201519 -0.256921,-0.301517 -0.08635,-0.100582 -0.173285,-0.200656 -0.260828,-0.300198 -0.08724,-0.09929 -0.175086,-0.198043 -0.263491,-0.296266 -0.08899,-0.09842 -0.178587,-0.196293 -0.268742,-0.293627 -0.08945,-0.09711 -0.179475,-0.193681 -0.270087,-0.289722 -0.09117,-0.09624 -0.182925,-0.191929 -0.275237,-0.287083 -0.09208,-0.09495 -0.18475,-0.189317 -0.27795,-0.283151 -0.09338,-0.09363 -0.187339,-0.186704 -0.281832,-0.279219 -0.09427,-0.09277 -0.189089,-0.184979 -0.284445,-0.276606 -0.09515,-0.09188 -0.19089,-0.183229 -0.287134,-0.273968 -0.09688,-0.09061 -0.194314,-0.180616 -0.292283,-0.270061 -0.09736,-0.08929 -0.195253,-0.177978 -0.293653,-0.266104 -0.09868,-0.08798 -0.197866,-0.175365 -0.297585,-0.262173 -0.09997,-0.08711 -0.200479,-0.173639 -0.301492,-0.259559 -0.100429,-0.08582 -0.201391,-0.171022 -0.302836,-0.255629 -0.101748,-0.08449 -0.204004,-0.168373 -0.306742,-0.251644 -0.103068,-0.08323 -0.206618,-0.165847 -0.310675,-0.24784 -0.103499,-0.0823 -0.20748,-0.163987 -0.311968,-0.245049 -0.104819,-0.08104 -0.210144,-0.161461 -0.315926,-0.241244 -0.105706,-0.07927 -0.211894,-0.157912 -0.318539,-0.235917 -0.106594,-0.07843 -0.213644,-0.156228 -0.321176,-0.23338 -0.107482,-0.07708 -0.215446,-0.153526 -0.323841,-0.229321 -0.108775,-0.07583 -0.218033,-0.151 -0.327721,-0.225517 -0.109232,-0.07447 -0.218896,-0.148292 -0.329016,-0.221457 -0.110094,-0.07321 -0.220645,-0.145761 -0.331628,-0.217652 -0.111439,-0.07187 -0.223309,-0.143068 -0.335585,-0.213594 -0.111896,-0.07018 -0.224223,-0.139683 -0.336955,-0.20852 -0.112759,-0.06925 -0.225897,-0.137831 -0.339467,-0.20573 -0.113646,-0.06799 -0.227723,-0.135299 -0.342181,-0.201924 -0.114534,-0.06622 -0.229448,-0.131754 -0.344768,-0.196598 -0.114966,-0.06537 -0.230311,-0.130064 -0.346063,-0.19406 -0.116284,-0.06361 -0.232949,-0.126523 -0.349994,-0.188734 -0.116715,-0.06234 -0.233811,-0.123986 -0.351288,-0.184928 -0.117197,-0.06057 -0.23475,-0.120435 -0.352657,-0.179602 -0.118517,-0.05973 -0.237363,-0.118755 -0.35659,-0.177064 -0.118948,-0.05796 -0.238251,-0.115206 -0.357883,-0.171737 -0.119379,-0.05661 -0.239088,-0.1125 -0.359127,-0.167679 -0.120292,-0.05534 -0.240889,-0.10997 -0.36184,-0.163873 -0.120724,-0.05357 -0.241752,-0.106419 -0.36311,-0.158547 -0.121586,-0.05231 -0.243501,-0.103889 -0.365721,-0.154741 -0.1225,-0.05096 -0.245303,-0.101191 -0.368411,-0.150682 -0.1225,-0.04927 -0.245278,-0.09781 -0.36836,-0.145609 -0.123362,-0.04792 -0.247028,-0.09511 -0.370948,-0.14155 -0.123844,-0.04666 -0.247941,-0.09257 -0.372317,-0.137745 -0.124707,-0.04489 -0.249692,-0.08903 -0.374913,-0.132418 -0.124732,-0.04353 -0.249691,-0.08632 -0.37493,-0.128359 -0.125594,-0.04185 -0.251442,-0.08294 -0.377543,-0.123286 -0.126026,-0.0405 -0.252305,-0.08024 -0.378812,-0.119227 -0.126482,-0.03923 -0.253217,-0.07771 -0.380156,-0.115421 -0.126938,-0.03746 -0.254115,-0.07416 -0.3815,-0.110095 l -0.0383,-0.01015 c -0.114762,-0.03207 -0.229677,-0.06353 -0.344769,-0.09437 -0.127826,-0.03442 -0.255876,-0.06807 -0.384113,-0.100962 -0.127852,-0.03306 -0.255901,-0.06537 -0.384138,-0.0969 -0.128689,-0.03138 -0.257586,-0.06199 -0.386651,-0.09183 -0.12917,-0.02961 -0.258509,-0.05844 -0.388019,-0.0865 -0.129197,-0.02834 -0.25855,-0.05591 -0.388071,-0.0827 -0.129602,-0.02657 -0.259372,-0.05236 -0.389288,-0.07737 -0.129628,-0.02522 -0.259415,-0.04965 -0.389339,-0.07331 -0.130515,-0.02354 -0.261183,-0.04628 -0.391977,-0.06824 -0.130541,-0.02217 -0.261191,-0.04357 -0.391978,-0.06418 -0.13054,-0.02047 -0.261185,-0.04019 -0.391951,-0.05911 -0.130972,-0.01913 -0.262056,-0.03748 -0.393246,-0.05505 l -0.04693,-0.0076 c -0.115294,-0.01456 -0.230691,-0.02851 -0.346138,-0.04186 -0.131403,-0.01608 -0.262918,-0.0314 -0.394514,-0.04591 -0.13191,-0.0139 -0.263879,-0.027 -0.395934,-0.03932 -0.131454,-0.01304 -0.262989,-0.02532 -0.39459,-0.03678 -0.131885,-0.01086 -0.263847,-0.0209 -0.395859,-0.03019 -0.13191,-0.0096 -0.263904,-0.01837 -0.395934,-0.02638 -0.132367,-0.0076 -0.264762,-0.01433 -0.397203,-0.02029 -0.131911,-0.0067 -0.263872,-0.01263 -0.395858,-0.01776 -0.132368,-0.005 -0.264778,-0.0093 -0.397203,-0.01268 -0.132393,-0.0033 -0.264788,-0.0059 -0.397203,-0.0076 -0.132393,-0.0016 -0.264798,-0.0025 -0.397203,-0.0025 -0.05157,-1.2e-4 -0.103169,-1.2e-4 -0.154741,0 z"
       id="path3543"
       sodipodi:nodetypes="ccccccccccccccccccccccccccccccccccccccccccccccccccccccccscccccccccccccccccccccccssccccccccccccccccccccccccccscccccsccccccccccccscccccccccccccsccccscccccccccccccccccccscccccccccccccccccccccccccccccccccccccccccccccccccccccccccccccccccccccccccccccccccccccccccccccccccccccccccccccccccscsccccccccccccccccccccccccccccccccccc" />
  </g>
</svg>
