<?xml version="1.0" encoding="UTF-8" standalone="no"?>
<svg
   xmlns:dc="http://purl.org/dc/elements/1.1/"
   xmlns:cc="http://creativecommons.org/ns#"
   xmlns:rdf="http://www.w3.org/1999/02/22-rdf-syntax-ns#"
   xmlns:svg="http://www.w3.org/2000/svg"
   xmlns="http://www.w3.org/2000/svg"
   xmlns:sodipodi="http://sodipodi.sourceforge.net/DTD/sodipodi-0.dtd"
   xmlns:inkscape="http://www.inkscape.org/namespaces/inkscape"
   width="100.00008mm"
   height="79.542168mm"
   viewBox="0 0 100.00008 79.542168"
   version="1.1"
   id="svg8"
   inkscape:version="1.0.2 (e86c870879, 2021-01-15, custom)"
   sodipodi:docname="head.svg">
  <defs
     id="defs2" />
  <sodipodi:namedview
     id="base"
     pagecolor="#ffffff"
     bordercolor="#666666"
     borderopacity="1.0"
     inkscape:pageopacity="0.0"
     inkscape:pageshadow="2"
     inkscape:zoom="0.35"
     inkscape:cx="5.0995813"
     inkscape:cy="58.710213"
     inkscape:document-units="mm"
     inkscape:current-layer="layer1-9"
     inkscape:document-rotation="0"
     showgrid="false"
     inkscape:window-width="1920"
     inkscape:window-height="1001"
     inkscape:window-x="-9"
     inkscape:window-y="-9"
     inkscape:window-maximized="1"
     fit-margin-top="0"
     fit-margin-left="0"
     fit-margin-right="0"
     fit-margin-bottom="0" />
  <metadata
     id="metadata5">
    <rdf:RDF>
      <cc:Work
         rdf:about="">
        <dc:format>image/svg+xml</dc:format>
        <dc:type
           rdf:resource="http://purl.org/dc/dcmitype/StillImage" />
        <dc:title></dc:title>
      </cc:Work>
    </rdf:RDF>
  </metadata>
  <g
     inkscape:label="Layer 1"
     inkscape:groupmode="layer"
     id="layer1"
     transform="translate(-1.8723623,-140.96422)">
    <g
       inkscape:label="Layer 1"
       id="layer1-9"
       transform="translate(0.87805251,140.03534)">
      <path
         style="opacity:1;fill:none;fill-opacity:1;fill-rule:evenodd;stroke:#008fff;stroke-width:1.04122;stroke-miterlimit:4;stroke-dasharray:none;stroke-opacity:1"
         d="m 69.37846,19.744648 c -0.137877,9.36e-4 -0.275729,0.0027 -0.413577,0.0053 -0.137876,0.0027 -0.275739,0.0062 -0.413576,0.01057 -0.137428,0.0045 -0.274818,0.0098 -0.412177,0.01585 -0.137903,0.0053 -0.275756,0.01149 -0.413576,0.01849 -0.04049,0.0026 -0.08101,0.0052 -0.1215,0.0079 -0.09694,0.0049 -0.193846,0.0102 -0.29073,0.01585 -0.13748,0.0093 -0.274881,0.01925 -0.412229,0.03011 -0.137454,0.01054 -0.274855,0.0219 -0.412176,0.03407 -0.137031,0.01194 -0.273981,0.02472 -0.410856,0.0383 -0.137031,0.01371 -0.273991,0.02824 -0.410856,0.04359 -0.137058,0.01556 -0.274005,0.03194 -0.410856,0.04913 -0.136582,0.01696 -0.273077,0.03476 -0.409456,0.05335 -0.136634,0.01873 -0.273141,0.03828 -0.409534,0.05864 -0.13616,0.02057 -0.272204,0.04197 -0.40811,0.06418 -0.136159,0.0219 -0.272174,0.04462 -0.408055,0.06815 -0.135737,0.02332 -0.271355,0.04744 -0.406815,0.07237 -0.135737,0.02559 -0.2713,0.05202 -0.406709,0.07924 -0.02456,0.0052 -0.04912,0.01054 -0.0737,0.01585 -0.110195,0.02174 -0.220286,0.04401 -0.33027,0.06683 -0.134864,0.02878 -0.269556,0.05836 -0.404067,0.08875 -0.134389,0.02966 -0.268593,0.06012 -0.402616,0.09139 -0.134415,0.03195 -0.268641,0.0647 -0.402667,0.09826 -0.133518,0.03336 -0.266835,0.06752 -0.399947,0.102488 -0.133518,0.03468 -0.266809,0.07017 -0.399894,0.106445 -0.13262,0.03654 -0.265043,0.07387 -0.397227,0.111992 -0.132621,0.03786 -0.265032,0.07651 -0.3972,0.115953 -0.131722,0.03971 -0.263207,0.08022 -0.394454,0.1215 -0.131748,0.04104 -0.263232,0.08285 -0.394479,0.125462 -0.130824,0.04289 -0.26141,0.08656 -0.391707,0.131009 -0.130401,0.0443 -0.260539,0.08938 -0.390385,0.135235 -0.129926,0.04563 -0.259588,0.09202 -0.388959,0.139198 -0.129504,0.04748 -0.258744,0.09572 -0.387666,0.144743 -0.128605,0.04924 -0.25692,0.09925 -0.384918,0.150027 -0.128156,0.05022 -0.255996,0.101186 -0.383544,0.152931 -0.127708,0.05198 -0.255125,0.104715 -0.382198,0.158215 -0.12681,0.05383 -0.253302,0.108418 -0.379451,0.163761 -0.12636,0.0548 -0.252376,0.110359 -0.378077,0.166667 -0.125938,0.05656 -0.251505,0.11388 -0.376757,0.171949 -0.124563,0.05842 -0.248784,0.117588 -0.372635,0.177496 -0.124565,0.0593 -0.248759,0.119348 -0.37261,0.180138 -0.123217,0.06116 -0.246038,0.123056 -0.368516,0.185684 -0.122768,0.06248 -0.245166,0.1257 -0.367168,0.189646 -0.122319,0.06389 -0.244242,0.128518 -0.365769,0.193872 -0.120972,0.06575 -0.241547,0.132226 -0.361727,0.199419 -0.120497,0.06664 -0.240624,0.133991 -0.360328,0.20206 -0.119625,0.0684 -0.238854,0.137517 -0.357659,0.207343 -0.119151,0.06981 -0.237903,0.140336 -0.356208,0.211569 -0.117829,0.07115 -0.235209,0.142988 -0.352166,0.215531 -0.116904,0.07255 -0.233386,0.14581 -0.349418,0.219757 -0.116482,0.07388 -0.232515,0.148452 -0.348099,0.223719 -0.115558,0.07529 -0.230666,0.151276 -0.345298,0.227945 -0.114211,0.07671 -0.227945,0.154102 -0.341231,0.232171 -0.113761,0.07803 -0.227047,0.156746 -0.339857,0.236134 -0.111939,0.07892 -0.223403,0.15852 -0.334391,0.238774 0.01611,0.04325 0.03252,0.08648 0.04886,0.129688 0.06289,0.163637 0.126545,0.326977 0.190966,0.490016 0.06432,0.162728 0.129372,0.325153 0.195194,0.487269 0.06614,0.162747 0.133069,0.325181 0.200739,0.487297 0.06791,0.161384 0.136582,0.32244 0.206022,0.483175 0.06889,0.160934 0.138537,0.321545 0.208928,0.481827 0.07066,0.160486 0.14205,0.320639 0.214211,0.480454 0.07205,0.160037 0.144875,0.319749 0.218435,0.479108 0.07382,0.158664 0.148415,0.317008 0.223719,0.474987 0.0748,0.15869 0.150344,0.317015 0.226624,0.474987 0.07665,0.157342 0.154042,0.31431 0.232172,0.470918 0.07843,0.156868 0.157554,0.313386 0.237454,0.46952 0.07939,0.156444 0.159509,0.312493 0.240359,0.468173 0.08114,0.155546 0.163022,0.310686 0.245642,0.465451 0.08257,0.154622 0.165848,0.308862 0.249868,0.462704 0.08389,0.153725 0.168488,0.307056 0.25383,0.459985 0.08532,0.152826 0.171316,0.305246 0.258056,0.457263 0.08663,0.152378 0.173957,0.304338 0.262018,0.455891 0.08846,0.151452 0.177628,0.302515 0.267512,0.453143 0.08938,0.150554 0.179476,0.300705 0.270258,0.450422 0.09118,0.149657 0.18307,0.298902 0.275674,0.447703 0.09258,0.149234 0.185843,0.298011 0.27982,0.446355 0.09395,0.14786 0.188617,0.295269 0.283941,0.442234 0.09532,0.146962 0.19131,0.29346 0.288009,0.439514 0.09622,0.146488 0.193106,0.292549 0.290703,0.43814 0.09804,0.14514 0.196777,0.289829 0.296196,0.434047 0.09942,0.144242 0.199524,0.288022 0.300291,0.431326 0.10079,0.143344 0.202271,0.286197 0.30441,0.428579 0.102165,0.142895 0.204993,0.285306 0.308479,0.427232 0.10306,0.141522 0.206815,0.282563 0.311199,0.423112 0.104887,0.140175 0.210433,0.27986 0.31664,0.419044 0.106261,0.139725 0.213181,0.278951 0.320761,0.41767 0.107184,0.138378 0.215029,0.276225 0.323508,0.413576 0.108531,0.137904 0.217723,0.275317 0.327548,0.412203 0.109933,0.136107 0.220471,0.271693 0.33167,0.406762 0.111305,0.135658 0.223217,0.270787 0.33579,0.405388 0.112203,0.134284 0.225066,0.268059 0.338537,0.401294 0.114025,0.133387 0.228684,0.26624 0.343951,0.398548 0.11495,0.132488 0.230508,0.26443 0.346699,0.395827 0.116297,0.131115 0.233227,0.2617 0.350765,0.391732 0.117248,0.130217 0.235077,0.259905 0.35354,0.389012 0.118595,0.12887 0.237797,0.257185 0.357607,0.384918 0.119968,0.127946 0.240544,0.255362 0.361727,0.382171 0.120893,0.126598 0.242367,0.252643 0.364448,0.378105 0.12224,0.125699 0.245061,0.250819 0.368489,0.375356 0.12364,0.124326 0.247834,0.248098 0.372636,0.371262 0.124539,0.123429 0.249657,0.246276 0.37533,0.368543 0.125912,0.122081 0.252404,0.243528 0.379478,0.364421 0.126809,0.120708 0.2542,0.240835 0.382144,0.360354 0.127734,0.11981 0.256049,0.239012 0.384919,0.357607 0.129133,0.118436 0.258796,0.236292 0.389038,0.353513 0.130481,0.11709 0.261516,0.233571 0.393106,0.34942 0.131405,0.116191 0.263339,0.231747 0.395827,0.346697 0.132304,0.114818 0.265164,0.229029 0.398547,0.342605 0.133228,0.11347 0.267,0.226308 0.401295,0.33851 0.134601,0.112546 0.269733,0.224485 0.405388,0.335764 0.135975,0.11075 0.272453,0.220866 0.409456,0.330322 0.13645,0.109825 0.273392,0.219017 0.410856,0.327575 0.137824,0.108478 0.276144,0.216297 0.414976,0.323481 0.138695,0.107106 0.277914,0.213577 0.417618,0.319388 0.139646,0.105758 0.279802,0.210882 0.420444,0.315319 0.140544,0.10486 0.281603,0.20906 0.423137,0.312573 0.300479,0.219598 0.575787,0.412435 0.855758,0.611384 0.143291,0.100322 0.28705,0.199947 0.431274,0.298917 0.144691,0.09897 0.289836,0.197226 0.435446,0.294823 0.145563,0.09804 0.2916,0.19543 0.438088,0.292102 0.146091,0.09622 0.292614,0.191786 0.439593,0.286635 0.147411,0.09532 0.295259,0.189964 0.443556,0.283915 0.147887,0.0935 0.296201,0.186318 0.444954,0.27842 0.149261,0.09216 0.298954,0.183598 0.449076,0.274354 0.05137,0.03099 0.1028,0.06189 0.154252,0.09271 0.07705,-0.02034 0.181458,0.109271 0.296091,0.178289 0.150634,0.08943 0.30168,0.178156 0.453143,0.266165 0.151533,0.08807 0.303482,0.175382 0.455838,0.262017 0.152483,0.08621 0.305375,0.171712 0.458663,0.256472 0.153381,0.08534 0.30714,0.169942 0.461306,0.25383 0.153829,0.08402 0.308079,0.167301 0.462704,0.249867 0.154781,0.08217 0.309955,0.163603 0.465504,0.244322 0.155204,0.08077 0.310809,0.160803 0.466773,0.240096 0.156603,0.07944 0.313595,0.158161 0.470946,0.236132 0.121711,0.06007 0.243634,0.119652 0.365768,0.178817 0.03547,0.01717 0.07095,0.03455 0.106445,0.05177 0.157528,0.07673 0.315422,0.152694 0.473666,0.227944 0.158426,0.07489 0.317208,0.149023 0.476334,0.222399 0.159377,0.07312 0.319084,0.145484 0.479134,0.217116 0.159826,0.07216 0.319968,0.143555 0.480454,0.21421 0.160274,0.07039 0.320875,0.140043 0.481802,0.208928 0.161199,0.06899 0.322731,0.137216 0.484574,0.204701 0.161649,0.06714 0.323619,0.133519 0.485896,0.199155 0.162572,0.06582 0.325462,0.130903 0.48865,0.195193 0.163048,0.0645 0.326397,0.128262 0.490042,0.191231 0.163497,0.06265 0.327269,0.124563 0.491337,0.185684 0.164422,0.06125 0.329104,0.121738 0.494083,0.181458 0.164448,0.05993 0.329166,0.119096 0.494163,0.177496 0.16532,0.05808 0.330936,0.115399 0.496804,0.17195 0.165821,0.05676 0.331891,0.112783 0.49823,0.167986 0.16672,0.05494 0.333695,0.109087 0.500925,0.162441 0.0505,0.01611 0.101061,0.03193 0.151611,0.04781 0.09902,-0.05825 0.197728,-0.116957 0.296171,-0.176176 0.117801,-0.07113 0.235181,-0.143 0.352139,-0.21553 0.11738,-0.07255 0.234337,-0.145801 0.350845,-0.219758 0.116006,-0.07387 0.231563,-0.148468 0.346672,-0.223719 0.115557,-0.0753 0.230665,-0.151267 0.345299,-0.227944 0.114209,-0.07671 0.227944,-0.154095 0.34123,-0.232172 0.113762,-0.07802 0.227047,-0.156735 0.339858,-0.236132 0.112414,-0.07946 0.224352,-0.159562 0.335789,-0.24036 0.11194,-0.08077 0.223403,-0.162203 0.334391,-0.244321 0.110618,-0.08219 0.220733,-0.165029 0.330348,-0.248548 0.109694,-0.08352 0.218859,-0.167696 0.327549,-0.252509 0.108346,-0.08441 0.216191,-0.169466 0.323507,-0.25515 0.107872,-0.08626 0.215241,-0.173165 0.322082,-0.260698 0.106551,-0.08714 0.212572,-0.174934 0.318067,-0.263339 0.105652,-0.08857 0.210749,-0.177733 0.315319,-0.267537 0.104279,-0.08991 0.208003,-0.180455 0.3112,-0.271606 0.103351,-0.09084 0.20618,-0.182304 0.308451,-0.274353 0.102488,-0.09266 0.204385,-0.185949 0.305758,-0.279821 0.101082,-0.09313 0.201638,-0.186846 0.301612,-0.281167 0.100239,-0.09496 0.199894,-0.190492 0.298969,-0.286635 0.09886,-0.09588 0.197148,-0.19234 0.29485,-0.289382 0.03645,-0.03671 0.07279,-0.07353 0.109086,-0.110407 0.06115,-0.06069 0.122081,-0.121632 0.182779,-0.182778 0.0966,-0.09816 0.192578,-0.196884 0.287983,-0.296198 0.09524,-0.09907 0.189883,-0.198705 0.28394,-0.298917 0.09432,-0.100894 0.188035,-0.20235 0.281141,-0.304384 0.09297,-0.101343 0.185341,-0.203275 0.2771,-0.305731 0.09207,-0.102748 0.183544,-0.206023 0.274379,-0.309852 0.09025,-0.104123 0.179899,-0.208769 0.268913,-0.313946 0.08933,-0.10457 0.178023,-0.209668 0.266111,-0.315294 0.08798,-0.105943 0.175304,-0.212414 0.262018,-0.319387 0.08711,-0.107317 0.17356,-0.215135 0.259377,-0.323481 0.08527,-0.107766 0.169863,-0.21606 0.25383,-0.324855 0.08439,-0.109139 0.168119,-0.218807 0.251189,-0.328949 0.07887,-0.104199 0.15713,-0.208848 0.234812,-0.313946 l 0.0132,-0.01849 c 0.08122,-0.110988 0.161779,-0.222478 0.241679,-0.334417 0.08027,-0.111912 0.159852,-0.224273 0.238775,-0.337136 0.07895,-0.11326 0.157237,-0.227021 0.234812,-0.341232 0.07755,-0.113734 0.154411,-0.227945 0.230586,-0.342604 0.07623,-0.114659 0.15177,-0.229768 0.226625,-0.345325 0.07483,-0.116032 0.14897,-0.232514 0.222398,-0.349418 0.07351,-0.116509 0.146329,-0.23344 0.218437,-0.350793 0.07166,-0.117406 0.14263,-0.235262 0.212889,-0.353513 0.07078,-0.11833 0.140888,-0.237084 0.210249,-0.35626 0.06947,-0.119228 0.138246,-0.23888 0.206285,-0.358954 0.06762,-0.119731 0.134549,-0.239831 0.20074,-0.360354 0.06622,-0.121078 0.131749,-0.242578 0.196514,-0.364448 0.06492,-0.121553 0.129107,-0.243476 0.192551,-0.365795 0.06349,-0.122002 0.126281,-0.244401 0.188326,-0.367169 0.06175,-0.123401 0.122768,-0.247146 0.183042,-0.371262 0.06078,-0.123852 0.12084,-0.248072 0.180138,-0.372636 0.05893,-0.1243 0.117142,-0.248971 0.17459,-0.373983 0.05718,-0.125252 0.11363,-0.250819 0.169308,-0.376731 0.05621,-0.125699 0.111675,-0.251716 0.166403,-0.378077 0.05447,-0.126624 0.108162,-0.253565 0.16112,-0.380824 0.05261,-0.127522 0.10449,-0.255388 0.155573,-0.383544 0.05174,-0.127549 0.102716,-0.255389 0.152932,-0.383545 0.0499,-0.128473 0.09902,-0.257211 0.147385,-0.386265 0.04804,-0.128923 0.09532,-0.258135 0.141839,-0.387638 0.04718,-0.129848 0.09359,-0.259985 0.139196,-0.390387 0.04488,-0.129847 0.08898,-0.259984 0.13233,-0.390359 0.044,-0.130771 0.08724,-0.261806 0.129689,-0.393106 0.04216,-0.131246 0.08355,-0.262731 0.124139,-0.39448 0.0404,-0.131696 0.08,-0.263655 0.11886,-0.395827 0.039,-0.13217 0.0772,-0.264572 0.11463,-0.3972 0.0372,-0.13262 0.0735,-0.265483 0.10909,-0.398547 l 0.0106,-0.03962 c -0.0294,-0.05882 -0.059,-0.117538 -0.0887,-0.176176 -0.0625,-0.122767 -0.1257,-0.245166 -0.18965,-0.367168 -0.0639,-0.122318 -0.12853,-0.244241 -0.193872,-0.365795 -0.06566,-0.120972 -0.13204,-0.241547 -0.199156,-0.361727 -0.06664,-0.120523 -0.133994,-0.240624 -0.202059,-0.360328 -0.06849,-0.119625 -0.137693,-0.238827 -0.207608,-0.357606 -0.06981,-0.119177 -0.140332,-0.23793 -0.211569,-0.356261 -0.07112,-0.117803 -0.143,-0.235182 -0.21553,-0.352139 -0.07255,-0.116904 -0.145801,-0.233387 -0.219758,-0.349419 -0.07387,-0.116455 -0.148441,-0.232489 -0.223719,-0.348072 -0.0753,-0.115558 -0.151267,-0.230666 -0.227945,-0.345325 -0.07671,-0.11421 -0.154094,-0.227945 -0.232171,-0.34123 -0.07803,-0.113762 -0.156735,-0.227048 -0.236133,-0.339884 -0.07937,-0.112388 -0.159403,-0.224327 -0.240096,-0.335764 -0.08077,-0.111489 -0.162228,-0.22253 -0.24432,-0.333042 -0.08219,-0.110593 -0.16503,-0.220708 -0.248547,-0.330323 -0.08352,-0.109694 -0.167697,-0.218886 -0.25251,-0.327576 -0.0845,-0.108795 -0.169625,-0.217088 -0.255415,-0.324854 -0.08626,-0.107448 -0.173164,-0.214368 -0.260697,-0.32076 -0.08714,-0.106974 -0.174934,-0.213445 -0.263339,-0.319388 -0.08854,-0.105177 -0.177707,-0.209826 -0.267511,-0.313946 -0.08991,-0.104728 -0.180428,-0.208928 -0.27158,-0.312573 -0.09084,-0.103383 -0.182304,-0.206207 -0.274353,-0.308479 -0.09266,-0.102477 -0.185949,-0.204384 -0.27982,-0.30573 -0.09314,-0.101114 -0.186873,-0.201665 -0.28122,-0.301665 -0.09493,-0.100208 -0.190466,-0.199841 -0.286583,-0.298918 -0.09588,-0.09886 -0.192366,-0.197121 -0.289408,-0.294823 -0.09723,-0.09749 -0.195061,-0.1944 -0.29345,-0.290729 -0.09816,-0.09659 -0.196883,-0.192604 -0.29617,-0.288008 -0.09907,-0.09567 -0.198759,-0.190782 -0.29897,-0.285261 -0.100874,-0.09435 -0.202324,-0.188062 -0.304332,-0.281194 -0.101373,-0.09297 -0.203301,-0.185314 -0.305758,-0.277073 -0.102747,-0.09161 -0.206022,-0.182594 -0.309852,-0.27298 -0.104091,-0.0907 -0.208743,-0.180797 -0.31392,-0.270259 -0.104569,-0.08936 -0.209693,-0.178072 -0.315319,-0.266166 -0.105943,-0.08797 -0.212414,-0.175314 -0.319387,-0.262018 -0.107316,-0.08666 -0.215135,-0.172683 -0.323481,-0.258056 -0.107766,-0.08569 -0.216033,-0.170747 -0.324828,-0.255151 -0.10914,-0.08438 -0.218807,-0.168116 -0.328949,-0.251188 -0.110064,-0.08254 -0.220629,-0.164422 -0.33167,-0.245642 -0.110988,-0.08166 -0.222451,-0.162668 -0.334416,-0.243001 -0.111912,-0.08026 -0.224327,-0.159854 -0.33719,-0.238774 -0.113259,-0.07896 -0.227021,-0.157224 -0.341231,-0.234813 -0.113734,-0.07754 -0.227919,-0.154405 -0.342578,-0.230586 -0.114632,-0.07623 -0.229741,-0.151769 -0.345299,-0.226624 -0.116032,-0.07483 -0.232514,-0.148965 -0.349418,-0.222399 -0.116509,-0.07307 -0.233466,-0.145441 -0.350845,-0.217115 -0.117407,-0.07211 -0.235209,-0.143513 -0.353461,-0.214211 -0.11833,-0.07079 -0.23711,-0.140876 -0.356286,-0.210248 -0.119255,-0.06895 -0.238906,-0.137185 -0.35898,-0.204702 -0.119705,-0.06806 -0.239805,-0.135425 -0.360328,-0.202059 -0.121078,-0.06623 -0.242552,-0.131739 -0.364422,-0.196514 -0.121526,-0.06491 -0.243449,-0.129097 -0.365769,-0.192551 -0.122028,-0.06307 -0.244426,-0.1254 -0.367194,-0.187006 -0.123402,-0.06219 -0.247147,-0.12365 -0.371289,-0.184363 -0.123851,-0.06035 -0.248072,-0.119955 -0.372636,-0.178816 -0.1243,-0.05894 -0.248943,-0.117138 -0.373931,-0.174591 -0.12525,-0.05762 -0.250819,-0.114503 -0.376756,-0.170628 -0.1257,-0.05578 -0.251717,-0.110806 -0.378078,-0.165083 -0.126598,-0.05447 -0.253538,-0.108171 -0.380796,-0.16112 -0.12755,-0.05306 -0.255415,-0.105362 -0.383598,-0.156893 -0.12755,-0.0513 -0.255389,-0.101842 -0.383545,-0.151611 -0.128447,-0.0499 -0.257211,-0.09903 -0.386239,-0.147385 -0.128949,-0.04858 -0.258161,-0.09639 -0.387664,-0.143424 -0.129848,-0.04674 -0.259985,-0.0927 -0.390368,-0.137876 -0.129874,-0.04532 -0.259984,-0.08988 -0.390385,-0.13365 -0.130772,-0.04358 -0.261807,-0.08636 -0.393107,-0.128368 -0.131221,-0.04217 -0.262705,-0.08355 -0.394427,-0.124142 -0.131696,-0.04085 -0.263655,-0.08091 -0.395827,-0.120179 -0.13217,-0.039 -0.26459,-0.07722 -0.397226,-0.114633 l -0.03988,-0.01057 c -0.119492,-0.03339 -0.239144,-0.06615 -0.358981,-0.09826 -0.133095,-0.03584 -0.266423,-0.07088 -0.399947,-0.105124 -0.133122,-0.03442 -0.266449,-0.06806 -0.399973,-0.100894 C 77.595032,20.69737 77.460821,20.66549 77.326436,20.63442 77.191941,20.60359 77.057271,20.57357 76.922422,20.54435 76.787899,20.51484 76.653214,20.48614 76.518354,20.45824 76.383409,20.43057 76.24829,20.40372 76.113019,20.37768 75.978047,20.35142 75.84291,20.32598 75.70763,20.30135 75.571735,20.27684 75.435681,20.25316 75.299495,20.2303 75.163573,20.20722 75.027537,20.18493 74.891359,20.16347 74.755438,20.14216 74.619408,20.12162 74.483251,20.10192 74.34688,20.082 74.210393,20.06289 74.073795,20.0446 l -0.04886,-0.0079 c -0.120046,-0.01516 -0.2402,-0.02969 -0.360406,-0.04359 -0.13682,-0.01674 -0.273756,-0.03269 -0.410777,-0.0478 -0.137348,-0.01447 -0.274757,-0.02811 -0.412255,-0.04094 -0.136873,-0.01358 -0.27383,-0.02636 -0.410856,-0.0383 -0.137321,-0.01131 -0.274723,-0.02176 -0.412177,-0.03143 -0.137348,-0.01 -0.274783,-0.01913 -0.412255,-0.02747 -0.137824,-0.0079 -0.275676,-0.01492 -0.413577,-0.02113 -0.137348,-0.007 -0.274749,-0.01315 -0.412176,-0.01849 -0.137824,-0.0052 -0.275692,-0.0097 -0.413576,-0.0132 -0.137851,-0.0034 -0.275703,-0.0061 -0.413577,-0.0079 -0.13785,-0.0017 -0.275713,-0.0026 -0.413576,-0.0026 -0.0537,-1.25e-4 -0.107422,-1.25e-4 -0.16112,0 z"
         id="path3543"
         sodipodi:nodetypes="ccccccccccccccccccccccccccccccccccccccccccccccccccccccccscccccccccccccccccccccccssccccccccccccccccccccccccccscccccsccccccccccccscccccccccccccsccccscccccccccccccccccccscccccccccccccccccccccccccccccccccccccccccccccccccccccccccccccccccccccccccccccccccccccccccccccccccccccccccccccccccscsccccccccccccccccccccccccccccccccccc" />
      <path
         id="path3715"
         style="opacity:0.997975;fill:none;fill-opacity:1;fill-rule:evenodd;stroke:#f6f3eb;stroke-width:1.04122;stroke-miterlimit:4;stroke-dasharray:none;stroke-opacity:1"
         d="m 9.7602816,44.133961 c -0.06065,0.01506 -0.1302351,0.02087 -0.1939514,0.03116 -0.1730269,0.02649 -0.3459295,0.05378 -0.5187005,0.08188 -0.1730006,0.02834 -0.345868,0.05747 -0.5185948,0.08743 -0.1725938,0.02966 -0.3450463,0.06012 -0.5173535,0.09139 -0.1725859,0.03151 -0.3450201,0.06382 -0.5173006,0.09694 -0.1721421,0.03283 -0.3441282,0.06645 -0.5159535,0.100894 -0.1716826,0.03468 -0.3432035,0.07016 -0.5145537,0.106445 -0.1717143,0.03555 -0.3432605,0.07192 -0.5146329,0.109086 -0.1707924,0.03785 -0.3414044,0.07649 -0.5118331,0.115954 -0.1707977,0.03925 -0.3414113,0.07932 -0.5118331,0.12018 -0.1703671,0.04101 -0.3405391,0.08283 -0.5105125,0.125462 -0.170346,0.04242 -0.3404931,0.08566 -0.510433,0.129688 l -0.026413,0.0079 c -0.160808,0.04208 -0.3214278,0.08487 -0.4818543,0.128368 -0.1690164,0.04604 -0.3378156,0.0929 -0.506392,0.140517 -0.1690148,0.04747 -0.3378051,0.0957 -0.5063656,0.144745 -0.1681223,0.04878 -0.3360146,0.09833 -0.5036715,0.148705 -0.1083942,0.03286 -0.2166885,0.06606 -0.3248811,0.09958 0.00432,0.04279 0.00873,0.08558 0.013207,0.128368 0.015557,0.137057 0.031933,0.274004 0.049128,0.410856 0.01697,0.136608 0.034755,0.273095 0.053354,0.409482 0.01873,0.136608 0.038275,0.273106 0.058637,0.409482 0.020141,0.13616 0.041097,0.272198 0.062863,0.408109 0.021901,0.13616 0.044616,0.272211 0.068146,0.408108 0.023753,0.135738 0.048318,0.271324 0.073692,0.406762 0.025072,0.135738 0.050958,0.271332 0.077654,0.406763 0.02693,0.134838 0.054664,0.269508 0.083201,0.404014 0.028337,0.134839 0.057481,0.269519 0.087427,0.404015 0.030101,0.134416 0.061005,0.268632 0.09271,0.402667 0.031507,0.134417 0.063821,0.268622 0.096936,0.402642 0.033276,0.133518 0.06735,0.266817 0.1022188,0.399921 0.034684,0.133518 0.070166,0.266827 0.1064449,0.399921 0.03654,0.13262 0.07387,0.265024 0.1119915,0.3972 0.038298,0.132646 0.07739,0.265035 0.1172742,0.3972 0.030008,0.100238 0.060472,0.200344 0.091389,0.30029 0.00955,0.03143 0.019149,0.06287 0.028791,0.09429 0.041473,0.131748 0.083734,0.263232 0.1267829,0.394479 0.04245,0.130824 0.08568,0.26141 0.1296883,0.391733 0.044301,0.130401 0.08938,0.260538 0.1352351,0.390385 0.046063,0.129953 0.092903,0.259615 0.1405177,0.389013 0.047474,0.129503 0.095724,0.25869 0.1447438,0.387612 0.048802,0.128605 0.098371,0.25692 0.1487058,0.384919 0.050652,0.128155 0.1020709,0.255994 0.1542525,0.383544 0.052063,0.127707 0.1048906,0.255123 0.1584786,0.382197 0.053392,0.12681 0.1075392,0.253302 0.1624406,0.379451 0.012731,0.02916 0.025488,0.0583 0.038299,0.08743 0.042784,0.09709 0.086014,0.194031 0.1296883,0.290729 0.056569,0.125463 0.1138855,0.250582 0.1719493,0.375358 0.057979,0.125013 0.1167063,0.249682 0.1761754,0.374009 0.059741,0.124564 0.1202272,0.248758 0.181458,0.372609 0.061163,0.123217 0.123056,0.246065 0.1856842,0.368543 0.062483,0.122767 0.1256999,0.245166 0.1896461,0.367168 0.063894,0.122319 0.1285182,0.244242 0.1938722,0.365795 0.065224,0.120972 0.13117,0.241522 0.197834,0.361701 0.067073,0.120523 0.1348706,0.24065 0.203381,0.360354 0.067964,0.119599 0.1366376,0.238827 0.2060222,0.357607 0.06981,0.119176 0.1403354,0.237929 0.2115689,0.35626 0.071142,0.117803 0.1429874,0.235182 0.2155309,0.352139 0.072557,0.116904 0.1458109,0.233387 0.2197571,0.34942 0.073964,0.116454 0.1486291,0.232488 0.2239831,0.348071 0.075293,0.115558 0.1512757,0.230666 0.227945,0.345325 0.07715,0.11421 0.1549815,0.227946 0.2334919,0.341231 0.078032,0.113761 0.1567458,0.227047 0.2361331,0.339858 0.079363,0.112413 0.1593951,0.224326 0.2400951,0.33579 0.080777,0.111488 0.1622187,0.222503 0.2443212,0.333042 0.082102,0.110592 0.1648653,0.220707 0.2482832,0.330322 0.083077,0.109694 0.1668066,0.218886 0.2511886,0.327576 0.084842,0.108795 0.1703328,0.217088 0.2564712,0.324854 0.085822,0.107449 0.1722795,0.214369 0.2593766,0.320761 0.087625,0.107 0.1758902,0.213444 0.2647914,0.319387 0.088544,0.105177 0.177718,0.209826 0.2675119,0.313946 0.089464,0.104729 0.1795511,0.208928 0.2702589,0.312573 0.091275,0.103383 0.183167,0.206207 0.275673,0.308479 0.09222,0.102456 0.185058,0.204384 0.278499,0.305731 0.09359,0.101113 0.187761,0.201665 0.282542,0.301665 0.0945,0.09974 0.189601,0.198917 0.285288,0.297542 0.09584,0.09931 0.192276,0.198046 0.289302,0.296198 0.09726,0.09749 0.195109,0.1944 0.293529,0.290729 0.09815,0.09659 0.196875,0.192604 0.296171,0.288008 0.09953,0.0957 0.199625,0.190782 0.30029,0.285262 0.100447,0.09432 0.201447,0.188061 0.303011,0.281167 0.101811,0.09297 0.204168,0.185341 0.307079,0.277099 0.102747,0.09161 0.206043,0.182594 0.309879,0.272981 0.103664,0.0907 0.207863,0.180796 0.312598,0.270258 0.105016,0.08936 0.210566,0.178077 0.31664,0.266165 0.105933,0.08798 0.212389,0.175304 0.319362,0.262018 0.10688,0.08666 0.214278,0.172689 0.322186,0.258055 0.108207,0.08571 0.216926,0.170762 0.326149,0.255152 0.109168,0.08394 0.218838,0.167247 0.329003,0.249867 0.110063,0.083 0.22062,0.165294 0.331668,0.246963 0.110988,0.08167 0.222463,0.162678 0.334417,0.243001 0.111894,0.08027 0.224266,0.159851 0.33711,0.238774 0.112819,0.07895 0.226105,0.157211 0.339858,0.234812 0.11375,0.07755 0.227963,0.154411 0.342631,0.230587 0.115113,0.07623 0.23068,0.15177 0.346698,0.226624 0.11557,0.07483 0.23159,0.14897 0.348045,0.222399 0.116506,0.07306 0.23345,0.14543 0.350819,0.217115 0.117393,0.0721 0.235214,0.143503 0.35346,0.214211 0.118341,0.07078 0.237105,0.140887 0.356287,0.210248 0.119252,0.06894 0.238914,0.137189 0.35898,0.204701 0.120153,0.06807 0.240713,0.13542 0.361674,0.20206 0.120642,0.06622 0.241678,0.131722 0.363101,0.196514 0.121549,0.06492 0.243482,0.129108 0.365795,0.192552 l 0.0053,0.0026 c 0.121121,0.06217 0.242604,0.123612 0.364448,0.184363 0.12293,0.06218 0.246226,0.123639 0.369889,0.184364 0.123854,0.06035 0.24807,0.119941 0.372637,0.178816 0.124769,0.05904 0.249889,0.117327 0.375356,0.174854 0.124778,0.05763 0.249899,0.114501 0.375356,0.17063 0.126155,0.05579 0.252639,0.110802 0.379452,0.165081 0.126619,0.05447 0.253562,0.108162 0.380824,0.16112 0.127086,0.05306 0.254487,0.105362 0.382197,0.156894 0.128003,0.05129 0.25631,0.101853 0.384918,0.151612 0.110338,0.04292 0.220896,0.08526 0.33167,0.127046 l 0.0014,0.0014 0.05335,0.01849 c 0.128936,0.04857 0.25816,0.09638 0.387666,0.143423 0.129387,0.04673 0.259052,0.09268 0.388986,0.137877 0.130319,0.04532 0.260905,0.08989 0.391759,0.13365 0.130779,0.04359 0.261817,0.08637 0.393106,0.128367 0.130788,0.04216 0.261825,0.08355 0.393106,0.124142 0.118542,0.03656 0.23728,0.07248 0.356207,0.107765 l 0.03962,0.0132 c 0.132153,0.03902 0.264538,0.07721 0.397148,0.114632 0.132633,0.03671 0.265484,0.07264 0.398547,0.107767 0.133106,0.03584 0.266423,0.0709 0.399947,0.105124 0.133563,0.03444 0.26733,0.06806 0.401294,0.100894 0.134031,0.03267 0.268256,0.06456 0.402669,0.09562 0.02404,0.0053 0.04826,0.01057 0.07238,0.01585 0.109985,0.02562 0.220101,0.05055 0.330349,0.07501 0.134496,0.02951 0.269173,0.05821 0.404015,0.08611 0.13497,0.02765 0.2701,0.05452 0.405388,0.08056 0.13542,0.02614 0.271006,0.05169 0.406736,0.07633 0.135446,0.02456 0.271016,0.04818 0.406734,0.07105 0.135897,0.02298 0.271943,0.04534 0.408109,0.06682 0.135923,0.0214 0.271969,0.04184 0.408136,0.06155 0.13637,0.01954 0.27286,0.03814 0.409456,0.056 0.136846,0.01796 0.273801,0.03534 0.410856,0.05177 0.136845,0.01664 0.273809,0.0327 0.410856,0.04781 0.136872,0.01452 0.273824,0.0281 0.410855,0.04094 0.137322,0.01347 0.274744,0.02642 0.412229,0.0383 0.137349,0.01136 0.274741,0.02166 0.412204,0.03144 0.137347,0.0098 0.274767,0.01901 0.412229,0.02721 0.137348,0.0079 0.274744,0.0148 0.412176,0.02113 0.137824,0.0069 0.275682,0.0132 0.413576,0.01849 0.137375,0.0053 0.274779,0.0095 0.412203,0.0132 0.137851,0.0034 0.275704,0.006 0.413577,0.0079 0.137849,0.0017 0.275713,0.0026 0.413576,0.0026 0.0537,1.23e-4 0.107422,1.23e-4 0.16112,0 0.137877,-9.35e-4 0.275729,-0.0026 0.413577,-0.0053 0.137876,-0.0026 0.275739,-0.0064 0.413576,-0.01057 0.137877,-0.0045 0.27575,-0.0098 0.413577,-0.01585 0.137426,-0.0053 0.274839,-0.01162 0.412202,-0.01849 l 0.05864,-0.0026 c 0.117882,-0.0064 0.235737,-0.01347 0.35354,-0.02113 0.137929,-0.0093 0.275779,-0.01928 0.413577,-0.03011 0.137031,-0.01057 0.273972,-0.02193 0.410855,-0.03407 0.137454,-0.01188 0.274862,-0.02482 0.412176,-0.0383 0.137031,-0.01373 0.273992,-0.02824 0.410856,-0.04359 0.137057,-0.01559 0.274004,-0.03193 0.410856,-0.04912 0.136582,-0.0169 0.273077,-0.03476 0.409456,-0.05335 0.136635,-0.01875 0.27314,-0.03827 0.409535,-0.05864 0.136133,-0.02061 0.272166,-0.04197 0.408056,-0.06418 0.136159,-0.02193 0.272211,-0.04461 0.408109,-0.06815 0.135737,-0.02324 0.271355,-0.04744 0.406815,-0.07238 0.135261,-0.02562 0.270364,-0.05203 0.405309,-0.07924 0.02509,-0.0053 0.05003,-0.01057 0.07501,-0.01585 0.110196,-0.02166 0.220286,-0.044 0.33027,-0.06683 0.134839,-0.02879 0.269522,-0.05837 0.404015,-0.08875 0.13439,-0.02966 0.268629,-0.06012 0.402667,-0.09139 0.133941,-0.03197 0.267711,-0.06471 0.401269,-0.09826 0.133993,-0.03336 0.267771,-0.06751 0.401347,-0.102487 0.133069,-0.03468 0.265911,-0.07018 0.398547,-0.106445 0.13307,-0.03653 0.26594,-0.07388 0.398574,-0.111992 0.132171,-0.03788 0.264104,-0.07652 0.395827,-0.115954 0.132197,-0.0397 0.264131,-0.08021 0.395827,-0.1215 0.131273,-0.04104 0.262307,-0.08286 0.393079,-0.125462 0.130824,-0.0429 0.261411,-0.08656 0.391706,-0.131008 0.130851,-0.04429 0.261464,-0.08938 0.391786,-0.135236 0.129952,-0.04606 0.259614,-0.0929 0.388986,-0.140517 0.129054,-0.04704 0.257818,-0.09485 0.386317,-0.143424 0.129056,-0.04924 0.257792,-0.09926 0.38624,-0.150026 0.128156,-0.05021 0.255995,-0.101186 0.383544,-0.152932 0.127258,-0.05198 0.254174,-0.104728 0.380798,-0.158214 0.127285,-0.05383 0.254226,-0.1084 0.380851,-0.163762 0.126359,-0.05523 0.252376,-0.111252 0.378077,-0.167987 0.125462,-0.05658 0.25058,-0.113893 0.375356,-0.17195 0.125013,-0.05797 0.249657,-0.116693 0.373957,-0.176175 0.124115,-0.0593 0.247887,-0.11936 0.371288,-0.180137 0.123667,-0.06114 0.24699,-0.123059 0.369916,-0.185685 0.122769,-0.06249 0.245167,-0.125699 0.367169,-0.189646 0.121869,-0.06389 0.243344,-0.128526 0.364448,-0.193871 0.121421,-0.06619 0.242446,-0.133096 0.363048,-0.20074 0.120523,-0.06664 0.240623,-0.133994 0.360328,-0.20206 0.119599,-0.06796 0.238827,-0.136635 0.357606,-0.206022 0.118728,-0.06981 0.237058,-0.140333 0.354939,-0.211569 0.117803,-0.07113 0.235183,-0.143001 0.352141,-0.215531 0.117353,-0.07255 0.234284,-0.1458 0.350765,-0.219757 0.116007,-0.07388 0.23159,-0.148468 0.346699,-0.223719 0.115583,-0.0753 0.230691,-0.151268 0.345351,-0.227946 0.114659,-0.07671 0.228844,-0.154093 0.342578,-0.23217 0.113312,-0.07805 0.226176,-0.156763 0.338537,-0.236134 0.112387,-0.07946 0.2243,-0.159561 0.33571,-0.240359 0.111965,-0.08077 0.223428,-0.162203 0.334416,-0.244321 0.110593,-0.08209 0.220708,-0.164871 0.330323,-0.248283 0.10972,-0.08352 0.218911,-0.167697 0.327628,-0.25251 0.108796,-0.08439 0.217063,-0.16944 0.324829,-0.25515 0.107447,-0.08626 0.214368,-0.173165 0.32076,-0.260697 0.106551,-0.08714 0.212572,-0.174935 0.318067,-0.263339 0.105625,-0.08857 0.210697,-0.177734 0.31524,-0.267539 0.104278,-0.08991 0.208003,-0.180454 0.311199,-0.271606 0.103352,-0.09084 0.206181,-0.182303 0.308452,-0.274352 0.102508,-0.09266 0.204438,-0.185949 0.305837,-0.27982 0.02087,-0.01954 0.04194,-0.03907 0.06287,-0.05864 0.07996,-0.07375 0.159535,-0.147887 0.238774,-0.222399 0.100207,-0.09496 0.199842,-0.19049 0.298891,-0.286635 0.09886,-0.09588 0.197147,-0.192339 0.294849,-0.289381 0.09797,-0.09723 0.195325,-0.195061 0.29213,-0.29345 0.09659,-0.09816 0.192577,-0.196883 0.287982,-0.296196 0.09522,-0.09907 0.189856,-0.198706 0.283887,-0.298917 0.09434,-0.100895 0.188061,-0.202351 0.281195,-0.304385 0.05845,-0.0644 0.116639,-0.129028 0.17459,-0.193872 l 0.0053,-0.0026 c 0.03193,-0.03498 0.06382,-0.07002 0.09561,-0.105124 0.09208,-0.102717 0.183545,-0.205996 0.27438,-0.309826 0.01506,-0.0177 0.02996,-0.03555 0.0449,-0.05335 0.07501,-0.08652 0.149578,-0.173428 0.223719,-0.260697 0.08936,-0.105018 0.178105,-0.210591 0.266192,-0.316666 0.05438,-0.0653 0.108532,-0.130798 0.16244,-0.196513 0.03328,-0.04041 0.06648,-0.08093 0.09958,-0.1215 0.08711,-0.107317 0.173561,-0.215162 0.259376,-0.323508 0.08527,-0.107766 0.169863,-0.21606 0.25383,-0.324829 0.08439,-0.109165 0.16812,-0.218806 0.251189,-0.328975 0.08299,-0.110064 0.165294,-0.220629 0.246963,-0.331669 0.08167,-0.110988 0.162678,-0.222452 0.243001,-0.334417 0.07982,-0.111912 0.15898,-0.224274 0.237453,-0.337137 0.07895,-0.113286 0.157211,-0.227021 0.234813,-0.34123 0.07755,-0.113735 0.154411,-0.227946 0.230585,-0.342605 0.07623,-0.114659 0.151771,-0.229767 0.226626,-0.345324 0.07483,-0.116033 0.148969,-0.232516 0.222397,-0.34942 0.07351,-0.116481 0.146329,-0.233439 0.218437,-0.350792 0.0721,-0.117407 0.143502,-0.235262 0.21421,-0.353513 0.07079,-0.118331 0.140888,-0.237084 0.210249,-0.35626 0.06894,-0.119255 0.137189,-0.238907 0.204701,-0.358954 0.06806,-0.119705 0.13542,-0.239832 0.20206,-0.360354 0.06579,-0.121105 0.130851,-0.242578 0.195193,-0.364449 0.06535,-0.121552 0.129979,-0.243475 0.193872,-0.365794 0.06349,-0.122002 0.126282,-0.2444 0.188326,-0.367169 0.06122,-0.123402 0.121712,-0.247147 0.181458,-0.371262 0.06081,-0.123851 0.12084,-0.248046 0.180137,-0.372609 0.05904,-0.124328 0.117301,-0.248997 0.174855,-0.374011 0.05718,-0.125224 0.113629,-0.250818 0.169308,-0.376729 0.05621,-0.125701 0.111674,-0.251718 0.166402,-0.378077 0.04976,-0.115743 0.09889,-0.231749 0.147386,-0.348047 l 0.0132,-0.03276 c 0.05306,-0.127523 0.105362,-0.255389 0.156894,-0.383545 0.05129,-0.12755 0.101852,-0.255389 0.151611,-0.383544 0.0499,-0.128475 0.09902,-0.257211 0.147385,-0.386266 0.04849,-0.128923 0.09622,-0.258135 0.143159,-0.387638 0.04672,-0.129848 0.09271,-0.259985 0.137877,-0.390387 0.04488,-0.129846 0.08898,-0.259983 0.13233,-0.390359 0.044,-0.130771 0.08724,-0.261806 0.129688,-0.393106 0.04216,-0.131246 0.08355,-0.262731 0.124141,-0.394454 0.04041,-0.131721 0.08003,-0.263655 0.118859,-0.395852 0.01,-0.03415 0.02008,-0.06831 0.02985,-0.102488 -0.08267,0.106498 -0.165953,0.212521 -0.249868,0.31804 -0.08537,0.108348 -0.171395,0.216165 -0.258056,0.323482 -0.08669,0.106999 -0.174036,0.21347 -0.262018,0.319414 -0.08809,0.106075 -0.176836,0.211648 -0.266191,0.316666 -0.08946,0.104729 -0.17953,0.208928 -0.270233,0.312573 -0.09039,0.1038 -0.181379,0.207106 -0.272979,0.309826 -0.09221,0.102935 -0.185023,0.205282 -0.278473,0.307105 -0.09266,0.10156 -0.185949,0.202562 -0.279821,0.303011 -0.0945,0.100207 -0.189593,0.199867 -0.285288,0.298944 -0.09541,0.09976 -0.191389,0.198943 -0.287982,0.297543 -0.0968,0.09794 -0.194163,0.195325 -0.292128,0.292103 -0.09768,0.09704 -0.195933,0.193502 -0.294771,0.289356 -0.09862,0.09615 -0.197807,0.191679 -0.29757,0.286635 -0.100447,0.09479 -0.201452,0.188958 -0.303011,0.28254 -0.100926,0.09342 -0.202377,0.186238 -0.304411,0.278447 -0.102269,0.09207 -0.205098,0.183519 -0.308478,0.274353 -0.103623,0.09118 -0.207819,0.181722 -0.31252,0.271633 -0.10457,0.0898 -0.209668,0.178974 -0.31532,0.267511 -0.105494,0.0884 -0.211517,0.176202 -0.31804,0.263339 -0.106419,0.08753 -0.213339,0.174432 -0.320788,0.260697 -0.107765,0.08568 -0.216033,0.170734 -0.324828,0.25515 -0.10869,0.08482 -0.217908,0.168992 -0.327602,0.25251 -0.109614,0.08341 -0.219704,0.166192 -0.330295,0.248283 -0.110539,0.08209 -0.221553,0.16355 -0.333069,0.244321 -0.111887,0.0808 -0.224248,0.160909 -0.337111,0.240359 -0.112361,0.0794 -0.225198,0.15811 -0.33851,0.236134 -0.113735,0.07808 -0.227919,0.155468 -0.342579,0.23217 -0.114209,0.07666 -0.228869,0.152643 -0.343977,0.227946 -0.115558,0.07528 -0.231563,0.149842 -0.348019,0.223719 -0.116033,0.07396 -0.232541,0.1472 -0.349445,0.219757 -0.117407,0.07255 -0.235262,0.144401 -0.35354,0.215531 -0.117855,0.07124 -0.23616,0.141759 -0.35486,0.211569 -0.118779,0.06992 -0.237982,0.139118 -0.357607,0.207607 -0.119731,0.06807 -0.239858,0.135419 -0.360407,0.20206 -0.120628,0.06712 -0.241627,0.133492 -0.363048,0.199155 -0.121104,0.06535 -0.242578,0.129979 -0.364448,0.193872 -0.122002,0.06394 -0.244401,0.127153 -0.367168,0.189646 -0.122927,0.06263 -0.246223,0.124538 -0.36989,0.185684 -0.123375,0.06078 -0.247146,0.12084 -0.371235,0.180138 -0.124327,0.0599 -0.248997,0.11907 -0.374036,0.177496 -0.124776,0.05806 -0.249868,0.115372 -0.37533,0.171949 -0.125701,0.05624 -0.251718,0.111701 -0.378078,0.166403 -0.126175,0.05533 -0.252668,0.109931 -0.379477,0.16376 -0.127073,0.05351 -0.254437,0.106234 -0.382144,0.158215 -0.12755,0.05174 -0.255442,0.102717 -0.383598,0.152933 -0.128447,0.05077 -0.257185,0.10079 -0.386239,0.150025 -0.128473,0.04902 -0.257211,0.09725 -0.386265,0.144745 -0.129398,0.04718 -0.259087,0.09358 -0.389038,0.139196 -0.129848,0.04586 -0.259985,0.09094 -0.390387,0.135235 -0.130771,0.04445 -0.26178,0.08812 -0.393079,0.131009 -0.130798,0.04261 -0.261834,0.08441 -0.393107,0.125463 -0.131695,0.04128 -0.263629,0.0818 -0.395827,0.1215 -0.131721,0.03943 -0.263655,0.0781 -0.395826,0.115954 -0.13262,0.03812 -0.265476,0.07546 -0.398547,0.111991 -0.132646,0.03671 -0.265502,0.07264 -0.398574,0.107765 -0.133544,0.03444 -0.267311,0.06807 -0.401268,0.100894 -0.133545,0.03355 -0.267317,0.0663 -0.401268,0.09826 -0.134046,0.03169 -0.268278,0.0626 -0.402693,0.09271 -0.134496,0.02996 -0.269153,0.05909 -0.403989,0.08743 -0.134971,0.02855 -0.270111,0.05629 -0.405415,0.0832 -0.134971,0.02668 -0.270105,0.05259 -0.405388,0.07765 -0.135446,0.02483 -0.271015,0.04905 -0.406736,0.07238 -0.135922,0.02351 -0.271954,0.04625 -0.408135,0.06815 -0.135895,0.02219 -0.271946,0.04361 -0.408109,0.06418 -0.136371,0.02034 -0.272855,0.03991 -0.409455,0.05864 -0.136398,0.01849 -0.272919,0.03637 -0.409536,0.05335 -0.136847,0.01717 -0.273806,0.03357 -0.410856,0.04913 -0.136846,0.01532 -0.273766,0.02987 -0.410776,0.04358 -0.136873,0.01347 -0.27383,0.02642 -0.410856,0.0383 -0.137349,0.01215 -0.274751,0.02351 -0.412229,0.03407 -0.137349,0.01083 -0.274744,0.02087 -0.412203,0.03011 -0.137798,0.0087 -0.275671,0.01664 -0.413577,0.02377 -0.137374,0.0079 -0.274777,0.0148 -0.412229,0.02113 -0.137823,0.0053 -0.275692,0.0095 -0.413576,0.0132 -0.137375,0.0043 -0.274781,0.0079 -0.412204,0.01057 -0.137849,0.0026 -0.275707,0.0043 -0.413575,0.0053 -0.05414,1.27e-4 -0.108294,1.27e-4 -0.162441,0 -0.137877,3.75e-4 -0.27574,-7.4e-5 -0.413603,-0.0014 -0.137427,-0.0019 -0.274836,-0.0045 -0.412229,-0.0079 -0.137876,-0.0037 -0.275744,-0.0079 -0.413576,-0.0132 -0.137903,-0.0053 -0.275755,-0.01162 -0.413577,-0.01849 -0.137454,-0.0064 -0.274844,-0.0132 -0.412203,-0.02113 -0.137454,-0.0082 -0.274839,-0.01743 -0.412176,-0.02721 -0.137481,-0.0098 -0.274884,-0.02008 -0.412229,-0.03144 -0.137481,-0.01162 -0.274876,-0.02377 -0.412203,-0.03697 -0.137031,-0.0132 -0.273973,-0.02736 -0.41083,-0.04226 -0.137057,-0.01479 -0.273999,-0.03016 -0.410856,-0.04649 -0.136608,-0.01638 -0.273127,-0.03371 -0.409534,-0.05177 -0.13661,-0.01822 -0.273086,-0.0374 -0.409457,-0.05732 -0.136608,-0.0198 -0.273095,-0.0402 -0.409456,-0.06155 -0.13616,-0.0214 -0.272208,-0.04374 -0.408108,-0.06683 -0.135711,-0.02298 -0.2713,-0.04656 -0.406736,-0.07105 -0.135764,-0.02456 -0.271363,-0.05008 -0.406814,-0.07633 -0.134813,-0.02614 -0.269487,-0.0529 -0.403988,-0.08056 -0.135315,-0.02789 -0.270449,-0.0566 -0.405416,-0.08611 -0.134363,-0.02922 -0.268574,-0.05924 -0.402588,-0.09006 -0.134417,-0.03106 -0.268638,-0.06294 -0.402668,-0.09562 -0.133967,-0.03283 -0.267731,-0.06645 -0.401294,-0.100894 -0.133095,-0.03426 -0.265962,-0.06928 -0.398627,-0.105124 -0.133069,-0.03558 -0.265916,-0.07193 -0.398547,-0.109087 -0.13262,-0.03743 -0.264994,-0.07562 -0.397147,-0.114632 -0.132171,-0.03927 -0.264131,-0.07934 -0.395827,-0.12018 -0.131749,-0.0406 -0.26326,-0.08199 -0.394507,-0.124142 -0.131299,-0.04199 -0.262334,-0.08479 -0.393106,-0.128367 -0.130823,-0.04385 -0.26141,-0.08848 -0.391705,-0.133914 -0.129953,-0.04519 -0.259642,-0.09115 -0.389039,-0.137877 -0.129503,-0.04651 -0.258717,-0.09379 -0.387639,-0.141838 -0.129054,-0.04837 -0.257792,-0.09749 -0.386265,-0.147385 -0.128606,-0.05021 -0.256921,-0.101186 -0.384918,-0.152932 -0.127681,-0.05153 -0.255071,-0.103831 -0.382145,-0.156894 -0.127258,-0.05296 -0.254226,-0.106656 -0.38085,-0.16112 -0.126353,-0.05428 -0.252383,-0.109297 -0.378079,-0.165082 -0.125899,-0.05613 -0.251459,-0.112995 -0.376677,-0.170629 -0.125494,-0.05744 -0.25064,-0.115636 -0.375436,-0.17459 -0.124559,-0.05887 -0.248764,-0.118463 -0.37261,-0.178817 -0.123668,-0.06028 -0.246976,-0.121289 -0.369915,-0.183043 -0.123205,-0.06205 -0.246036,-0.124802 -0.36849,-0.188325 -0.122313,-0.06344 -0.244246,-0.127629 -0.365794,-0.192552 -0.121425,-0.0648 -0.242459,-0.130295 -0.363102,-0.196513 -0.12051,-0.06664 -0.240621,-0.133994 -0.360327,-0.20206 -0.120098,-0.06747 -0.239767,-0.135721 -0.359028,-0.20466 -0.119154,-0.06937 -0.237892,-0.139461 -0.356207,-0.210248 -0.11827,-0.07026 -0.236117,-0.141232 -0.35354,-0.21289 -0.117815,-0.0721 -0.235197,-0.144928 -0.352139,-0.218437 -0.116458,-0.07343 -0.232475,-0.147569 -0.348045,-0.222397 -0.115569,-0.07485 -0.230687,-0.150396 -0.345352,-0.226625 -0.115118,-0.07618 -0.229781,-0.153037 -0.343978,-0.230586 -0.113753,-0.0776 -0.227038,-0.155864 -0.339857,-0.234812 -0.112844,-0.07893 -0.225216,-0.158506 -0.33711,-0.238776 -0.111955,-0.08032 -0.223428,-0.161331 -0.334416,-0.243 -0.111044,-0.08123 -0.221604,-0.163101 -0.33167,-0.245642 -0.110167,-0.08307 -0.219837,-0.166799 -0.329001,-0.251189 -0.109251,-0.08439 -0.217996,-0.16944 -0.326229,-0.25515 -0.107882,-0.08537 -0.215254,-0.171394 -0.322108,-0.258056 -0.106975,-0.08671 -0.213431,-0.174035 -0.319361,-0.262018 -0.106074,-0.08809 -0.211624,-0.17681 -0.316639,-0.266165 -0.104737,-0.08946 -0.208939,-0.179556 -0.3126,-0.270259 -0.103831,-0.09039 -0.207128,-0.181378 -0.309878,-0.272979 -0.102915,-0.09176 -0.205272,-0.184125 -0.30708,-0.2771 -0.10156,-0.09311 -0.202566,-0.186847 -0.30301,-0.281168 -0.100197,-0.09405 -0.199826,-0.188668 -0.298891,-0.283914 -0.09977,-0.09586 -0.19896,-0.192314 -0.29757,-0.289356 -0.09796,-0.09632 -0.19533,-0.193238 -0.292129,-0.290728 -0.09705,-0.0977 -0.19351,-0.195986 -0.289382,-0.294824 -0.09614,-0.09907 -0.191669,-0.198705 -0.286608,-0.298917 -0.09478,-0.1 -0.188963,-0.200555 -0.282541,-0.301664 -0.09343,-0.101352 -0.18626,-0.203275 -0.278474,-0.305731 -0.09204,-0.102269 -0.183481,-0.205098 -0.2743,-0.308479 -0.09117,-0.103196 -0.181727,-0.20692 -0.271659,-0.311199 -0.0898,-0.104569 -0.178969,-0.209693 -0.267511,-0.31532 -0.0885,-0.105468 -0.176369,-0.211489 -0.263603,-0.318013 -0.08755,-0.106868 -0.174443,-0.214237 -0.260697,-0.322134 -0.08569,-0.107766 -0.170748,-0.216059 -0.255151,-0.324856 -0.08482,-0.10824 -0.168988,-0.216983 -0.25251,-0.326228 -0.08342,-0.110063 -0.166185,-0.220629 -0.248282,-0.331669 -0.0821,-0.110512 -0.163545,-0.221553 -0.244322,-0.333043 -0.0807,-0.111437 -0.160731,-0.223375 -0.240094,-0.335763 -0.07939,-0.112837 -0.158101,-0.226123 -0.236134,-0.339884 -0.07798,-0.113286 -0.155286,-0.22702 -0.231907,-0.341231 -0.07667,-0.114659 -0.152651,-0.229768 -0.227945,-0.345324 -0.07526,-0.115109 -0.149836,-0.230693 -0.223719,-0.346699 -0.07395,-0.116482 -0.147205,-0.233413 -0.219757,-0.350792 -0.07264,-0.116957 -0.144564,-0.234338 -0.215795,-0.35214 -0.07123,-0.118331 -0.141759,-0.237084 -0.211569,-0.35626 -0.06992,-0.118779 -0.139118,-0.237982 -0.207607,-0.357607 -0.06851,-0.119704 -0.136307,-0.239831 -0.203381,-0.360354 -0.06666,-0.12018 -0.13261,-0.240755 -0.197834,-0.361701 -0.06536,-0.121553 -0.129979,-0.243476 -0.193873,-0.365795 -0.06394,-0.122002 -0.127162,-0.2444 -0.189646,-0.367169 -0.06263,-0.122477 -0.124522,-0.245324 -0.185683,-0.368541 -0.06079,-0.123851 -0.120835,-0.248046 -0.180138,-0.37261 -0.06,-0.123821 -0.119168,-0.248042 -0.177591,-0.372606 -0.05807,-0.125225 -0.115386,-0.250819 -0.17195,-0.37673 -0.05622,-0.1257 -0.111688,-0.251716 -0.166402,-0.378077 C 9.990184,44.444183 9.8622152,44.295348 9.7602816,44.133961 Z"
         sodipodi:nodetypes="ccccccccccccccccccccccccccccccccccccccccccccccccccccccccccccccccccccccccccccccccccsccsccccccccccccccccccccccccccccccccsccccccccccccccccccccccccccccccccccccccccccccccccccccccccccccccccccscccccccccccccccccccscccccccccccccccccccccccccccsccccccccccccccccccccccssccccccccccscccccccccccccsscccccccccccccccccccccccccccsccccccccccccccccccccccccccccccccccccccccccccccccccccccccccccccccccccccccccccccccccccccccsccsccccccccscccccccccccccccccccccccccccc" />
      <path
         id="path3605"
         style="opacity:0.997975;fill:none;fill-opacity:1;fill-rule:evenodd;stroke:#f6f3eb;stroke-width:1.04122;stroke-miterlimit:4;stroke-dasharray:none;stroke-opacity:1"
         d="m 69.12183,51.924348 c -0.01136,0.03867 -0.02272,0.07731 -0.03407,0.115953 -0.03883,0.132171 -0.07845,0.264131 -0.118859,0.395827 -0.0406,0.131722 -0.08199,0.263206 -0.124141,0.394453 -0.04245,0.1313 -0.08568,0.262335 -0.129689,0.393107 -0.04335,0.130401 -0.08745,0.260512 -0.13233,0.390385 -0.04519,0.130401 -0.09115,0.260513 -0.137876,0.390359 -0.04704,0.129503 -0.09485,0.258717 -0.143423,0.387639 -0.04837,0.129054 -0.09749,0.257818 -0.147385,0.386291 -0.04976,0.128157 -0.100312,0.255996 -0.151612,0.383546 -0.05153,0.128155 -0.10383,0.256022 -0.156893,0.383544 l -0.0132,0.03276 c -0.0485,0.116297 -0.09763,0.232304 -0.147385,0.348046 -0.05473,0.12636 -0.110169,0.252404 -0.166403,0.378103 -0.05567,0.125911 -0.112123,0.251479 -0.169308,0.37673 -0.05744,0.125013 -0.115636,0.249657 -0.17459,0.373984 -0.0593,0.124564 -0.119361,0.248784 -0.180137,0.372636 -0.06019,0.124114 -0.121105,0.247861 -0.182779,0.371262 -0.06205,0.122742 -0.124828,0.24514 -0.188325,0.367142 -0.06344,0.12232 -0.127629,0.244269 -0.192552,0.365822 -0.06476,0.12187 -0.13027,0.243344 -0.196513,0.364422 -0.06619,0.120522 -0.133123,0.240623 -0.20074,0.360353 -0.06796,0.120075 -0.136635,0.239726 -0.206022,0.358981 -0.06894,0.119176 -0.138564,0.237929 -0.208927,0.356259 -0.07079,0.118279 -0.142289,0.236108 -0.214476,0.353514 -0.0721,0.117353 -0.144928,0.23431 -0.218435,0.350792 -0.07343,0.116905 -0.147571,0.233387 -0.222399,0.349419 -0.07485,0.115557 -0.150396,0.230665 -0.226624,0.345325 -0.07618,0.114659 -0.153038,0.228844 -0.230587,0.342578 -0.07757,0.11421 -0.155864,0.227972 -0.234812,0.341257 -0.07848,0.112863 -0.157634,0.225224 -0.237454,0.337137 -0.08032,0.111939 -0.161331,0.223403 -0.243001,0.334389 -0.08167,0.111068 -0.163972,0.221633 -0.246962,0.331696 -0.08307,0.110143 -0.166798,0.219811 -0.251188,0.328949 -0.08397,0.108796 -0.168569,0.217063 -0.253831,0.324855 -0.08582,0.108347 -0.172266,0.216165 -0.259376,0.323481 -0.03309,0.04058 -0.0663,0.08109 -0.09958,0.121501 -0.0539,0.06614 -0.108056,0.132092 -0.162441,0.197833 -0.08811,0.105627 -0.176836,0.210751 -0.26619,0.31532 -0.07415,0.08727 -0.148707,0.174168 -0.223719,0.260698 -0.01506,0.0177 -0.03008,0.03558 -0.04517,0.05335 -0.0908,0.103831 -0.182251,0.207106 -0.2743,0.309852 -0.0318,0.0351 -0.06368,0.07016 -0.09562,0.105124 -0.06022,0.06714 -0.120708,0.134073 -0.181458,0.20074 -0.09314,0.10203 -0.186874,0.203486 -0.281221,0.304385 -0.09403,0.100207 -0.188642,0.199841 -0.283862,0.298917 -0.09541,0.09931 -0.191389,0.198045 -0.287981,0.296197 -0.0968,0.09842 -0.194163,0.196222 -0.29213,0.293475 -0.0977,0.09704 -0.195985,0.193503 -0.294849,0.289356 -0.09905,0.09615 -0.198679,0.19168 -0.298891,0.286635 -0.07924,0.07451 -0.158822,0.148653 -0.238774,0.222399 -0.02087,0.01954 -0.04189,0.03912 -0.06287,0.05863 -0.101373,0.09388 -0.203274,0.187137 -0.305758,0.279794 -0.102269,0.09207 -0.205098,0.183518 -0.308478,0.274352 -0.103227,0.09115 -0.206974,0.181697 -0.311252,0.271633 -0.104544,0.08981 -0.209641,0.178975 -0.315267,0.267512 -0.105494,0.0884 -0.211516,0.176202 -0.318041,0.263339 -0.106392,0.08753 -0.213312,0.174432 -0.320759,0.260697 -0.107766,0.08568 -0.216033,0.170761 -0.324829,0.25515 -0.108717,0.08482 -0.217908,0.168992 -0.327628,0.25251 -0.109589,0.08341 -0.219678,0.166192 -0.33027,0.248284 -0.110988,0.08212 -0.222504,0.16355 -0.334469,0.24432 -0.11141,0.0807 -0.223323,0.160724 -0.33571,0.240096 -0.112361,0.07939 -0.225225,0.158108 -0.338538,0.236132 -0.113734,0.07798 -0.227918,0.155283 -0.342577,0.231907 -0.11466,0.07668 -0.229794,0.152641 -0.345352,0.227946 -0.115108,0.07525 -0.230692,0.149841 -0.346698,0.223719 -0.116482,0.07396 -0.233412,0.147199 -0.350765,0.219757 -0.116958,0.07253 -0.234338,0.1444 -0.352141,0.215531 -0.117881,0.07124 -0.236159,0.141759 -0.354886,0.211569 -0.118806,0.06983 -0.238034,0.138932 -0.357659,0.207343 -0.119704,0.06806 -0.239805,0.13542 -0.360328,0.20206 -0.120628,0.06719 -0.241627,0.133676 -0.363048,0.199418 -0.121104,0.06535 -0.242579,0.129979 -0.364448,0.193872 -0.122002,0.06394 -0.244401,0.127153 -0.367169,0.189647 -0.122926,0.06263 -0.24625,0.124538 -0.369916,0.185684 -0.123375,0.06078 -0.24712,0.12084 -0.371209,0.180137 -0.124327,0.05945 -0.248996,0.118199 -0.374036,0.176175 -0.124776,0.05806 -0.249894,0.115373 -0.375356,0.17195 -0.125701,0.05676 -0.251718,0.112758 -0.378078,0.167987 -0.126597,0.05536 -0.253539,0.109932 -0.380797,0.163762 -0.126651,0.05359 -0.253593,0.106418 -0.380877,0.158478 -0.127523,0.05174 -0.255389,0.102716 -0.383518,0.152932 -0.128448,0.05087 -0.257185,0.100978 -0.38624,0.15029 -0.128499,0.04857 -0.25729,0.09639 -0.386344,0.143424 -0.129371,0.04762 -0.259033,0.09445 -0.388959,0.140518 -0.130296,0.04586 -0.260882,0.09094 -0.391707,0.135235 -0.130322,0.04445 -0.260935,0.08812 -0.391785,0.131008 -0.130798,0.04261 -0.261833,0.08442 -0.393106,0.125462 -0.131696,0.04129 -0.263656,0.0818 -0.395827,0.121502 -0.131722,0.03943 -0.263655,0.0781 -0.395827,0.115952 -0.132621,0.03812 -0.265475,0.07546 -0.398548,0.111992 -0.132646,0.03627 -0.265488,0.07176 -0.398546,0.106445 -0.133571,0.03486 -0.267362,0.06894 -0.401347,0.102217 -0.133545,0.03355 -0.267317,0.06629 -0.401269,0.09826 -0.134019,0.03127 -0.26823,0.06172 -0.402614,0.09139 -0.134522,0.03037 -0.269203,0.05995 -0.404068,0.08874 -0.109984,0.02272 -0.220074,0.04509 -0.33027,0.06683 -0.02509,0.0053 -0.05,0.01057 -0.07501,0.01585 -0.134972,0.02723 -0.270104,0.05364 -0.405388,0.07924 -0.135474,0.02483 -0.271068,0.04905 -0.406815,0.07238 -0.135895,0.02351 -0.271902,0.04625 -0.408056,0.06815 -0.135922,0.02219 -0.271963,0.04361 -0.408135,0.06418 -0.136398,0.02034 -0.27289,0.03991 -0.40951,0.05864 -0.136371,0.01849 -0.272866,0.0364 -0.409455,0.05335 -0.136847,0.01717 -0.273806,0.03357 -0.410856,0.04913 -0.136873,0.01532 -0.273819,0.02987 -0.410856,0.04359 -0.137321,0.01347 -0.274709,0.02642 -0.412177,0.0383 -0.136873,0.01215 -0.273837,0.02351 -0.410856,0.03407 -0.137796,0.01083 -0.275657,0.02087 -0.413576,0.03011 -0.117802,0.0077 -0.235658,0.0148 -0.353539,0.02113 l -0.05864,0.0026 c -0.137348,0.0069 -0.27475,0.0132 -0.412176,0.01849 -0.137824,0.006 -0.275688,0.01136 -0.413577,0.01585 -0.137823,0.0043 -0.275698,0.0079 -0.413576,0.01057 -0.137851,0.0026 -0.275709,0.0043 -0.413577,0.0053 -0.0537,1.24e-4 -0.107422,1.24e-4 -0.16112,0 -0.137876,-5.6e-5 -0.275742,-9.35e-4 -0.413602,-0.0026 -0.137877,-0.0018 -0.275734,-0.0045 -0.413577,-0.0079 -0.137427,-0.0037 -0.274812,-0.0079 -0.412177,-0.0132 -0.137902,-0.0053 -0.275755,-0.01162 -0.413576,-0.01849 -0.137427,-0.0064 -0.274828,-0.0132 -0.412176,-0.02113 -0.13748,-0.0082 -0.274892,-0.01743 -0.412255,-0.02721 -0.137454,-0.0098 -0.274851,-0.02007 -0.412178,-0.03144 -0.137479,-0.01188 -0.274914,-0.02483 -0.412255,-0.0383 -0.137031,-0.01294 -0.27397,-0.02647 -0.41083,-0.04094 -0.137031,-0.01506 -0.273964,-0.03106 -0.410802,-0.0478 -0.137031,-0.01638 -0.273992,-0.0337 -0.41083,-0.05177 -0.136635,-0.01796 -0.273135,-0.0365 -0.409535,-0.056 -0.13616,-0.01981 -0.272213,-0.04022 -0.408136,-0.06155 -0.136159,-0.0214 -0.272171,-0.04374 -0.408056,-0.06683 -0.135736,-0.02298 -0.271334,-0.04656 -0.406787,-0.07105 -0.135737,-0.02456 -0.27131,-0.05008 -0.406736,-0.07633 -0.135288,-0.02614 -0.27042,-0.0529 -0.405388,-0.08056 -0.13484,-0.0279 -0.269516,-0.0566 -0.404015,-0.08611 -0.110248,-0.02456 -0.220364,-0.04947 -0.330349,-0.07501 0.06997,0.03714 0.140043,0.07401 0.210249,0.110672 0.122477,0.06308 0.24535,0.125408 0.368568,0.187004 0.122926,0.0622 0.246223,0.12364 0.36989,0.184364 0.12385,0.06035 0.248071,0.119941 0.372635,0.178816 0.1243,0.05904 0.248944,0.117327 0.373957,0.174855 0.125251,0.05763 0.250845,0.114501 0.376756,0.170629 0.126149,0.05579 0.252615,0.110803 0.379398,0.165082 0.126651,0.05447 0.253592,0.108161 0.380877,0.161119 0.127073,0.05306 0.254437,0.105363 0.382118,0.156894 0.127549,0.05129 0.255441,0.101852 0.383598,0.151611 0.128447,0.0499 0.257211,0.09902 0.386239,0.147386 0.129371,0.04857 0.259033,0.09638 0.388985,0.143423 0.129425,0.04673 0.259113,0.09268 0.389065,0.137876 0.130297,0.04543 0.260857,0.09006 0.391681,0.133914 0.130348,0.04355 0.260934,0.08635 0.391785,0.128368 0.131221,0.04216 0.262705,0.08355 0.394427,0.124142 0.131696,0.04086 0.263655,0.0809 0.395827,0.120179 0.13217,0.03902 0.26459,0.07721 0.397226,0.114633 0.13262,0.03716 0.265483,0.07351 0.398547,0.109086 0.133096,0.03584 0.266424,0.07087 0.399947,0.105125 0.133571,0.03444 0.26733,0.06807 0.401295,0.100894 0.133571,0.03267 0.267322,0.06456 0.401268,0.09562 0.134496,0.03082 0.269165,0.06086 0.404015,0.09007 0.134522,0.0295 0.269208,0.05821 0.404068,0.08611 0.134944,0.02765 0.270063,0.05452 0.405335,0.08056 0.135446,0.02614 0.271041,0.05169 0.406788,0.07633 0.135446,0.02456 0.271017,0.04818 0.406736,0.07105 0.135895,0.02298 0.271941,0.04536 0.408109,0.06683 0.135921,0.0214 0.271967,0.04184 0.408135,0.06155 0.136371,0.01981 0.272857,0.03904 0.409455,0.05732 0.136847,0.0177 0.273804,0.03444 0.410857,0.05045 0.136846,0.01664 0.273808,0.03269 0.410856,0.0478 0.136871,0.01453 0.273823,0.0281 0.410855,0.04094 0.136872,0.01347 0.273812,0.02642 0.410829,0.0383 0.137349,0.01136 0.274741,0.02166 0.412203,0.03143 0.137798,0.0098 0.275666,0.01901 0.413577,0.02721 0.137374,0.0079 0.274778,0.0148 0.412229,0.02113 0.137823,0.0069 0.275681,0.0132 0.413576,0.01849 0.137375,0.0053 0.274779,0.0095 0.412204,0.0132 0.137849,0.0034 0.275702,0.006 0.413575,0.0079 0.13785,0.0017 0.275713,0.0026 0.413576,0.0026 h 0.04226 c 0.03962,6.9e-5 0.07924,6.9e-5 0.118859,0 0.137876,-9.35e-4 0.275728,-0.0026 0.413576,-0.0053 0.137876,-0.0026 0.275739,-0.0064 0.413576,-0.01057 0.137428,-0.0045 0.274834,-0.0098 0.412203,-0.01585 0.137903,-0.0053 0.275756,-0.01162 0.413577,-0.01849 0.04094,-0.0026 0.08188,-0.0053 0.12282,-0.0079 0.09646,-0.0048 0.192922,-0.01 0.28933,-0.01585 0.13748,-0.0093 0.274881,-0.01928 0.412229,-0.03011 0.137454,-0.01057 0.274871,-0.02193 0.412203,-0.03407 0.13748,-0.01188 0.274897,-0.02483 0.412229,-0.0383 0.137031,-0.01373 0.273992,-0.02824 0.410856,-0.04358 0.136582,-0.01559 0.273069,-0.03193 0.409457,-0.04913 0.137057,-0.01691 0.274012,-0.03476 0.410855,-0.05335 0.136609,-0.01875 0.273088,-0.03827 0.409456,-0.05864 0.136185,-0.02061 0.272219,-0.04197 0.408135,-0.06418 0.135711,-0.02193 0.271276,-0.04461 0.406709,-0.06815 0.135737,-0.02324 0.271355,-0.04744 0.406814,-0.07237 0.135738,-0.02562 0.2713,-0.05201 0.40671,-0.07924 0.135288,-0.02649 0.270441,-0.05378 0.405414,-0.08188 0.13439,-0.02879 0.268624,-0.05837 0.402668,-0.08874 0.134839,-0.02966 0.269527,-0.06012 0.404015,-0.09139 0.13394,-0.03197 0.267709,-0.06471 0.401268,-0.09826 0.133518,-0.03336 0.266835,-0.06753 0.399947,-0.102488 0.133518,-0.03468 0.266809,-0.07015 0.399895,-0.106444 0.132619,-0.03653 0.265042,-0.07388 0.397226,-0.111992 0.132646,-0.03785 0.26505,-0.07652 0.397227,-0.115953 0.131722,-0.03972 0.263206,-0.08022 0.394426,-0.1215 0.131749,-0.04102 0.263234,-0.08286 0.39448,-0.125462 0.130824,-0.0429 0.26141,-0.08656 0.391707,-0.13101 0.130401,-0.04429 0.260538,-0.08938 0.390385,-0.135235 0.129953,-0.04562 0.259614,-0.09202 0.388986,-0.139197 0.129503,-0.04746 0.258717,-0.09572 0.387639,-0.144743 0.128605,-0.04924 0.25692,-0.09926 0.384917,-0.150027 0.128633,-0.05021 0.256947,-0.101186 0.384945,-0.152932 0.127259,-0.05198 0.254173,-0.104728 0.380798,-0.158214 0.127258,-0.05383 0.2542,-0.108427 0.380798,-0.163761 0.125911,-0.05473 0.251505,-0.110196 0.376756,-0.166403 0.125912,-0.05658 0.251506,-0.113893 0.376731,-0.17195 0.125013,-0.05842 0.249655,-0.11759 0.373956,-0.177496 0.124115,-0.0593 0.247887,-0.11936 0.371289,-0.180136 0.123666,-0.06115 0.246989,-0.123059 0.369916,-0.185685 0.122767,-0.06249 0.245166,-0.1257 0.367168,-0.189646 0.121844,-0.06389 0.243291,-0.128526 0.364368,-0.193872 0.121448,-0.06566 0.242473,-0.13204 0.363129,-0.199155 0.120522,-0.06664 0.240623,-0.133994 0.360327,-0.20206 0.119625,-0.06849 0.238827,-0.137692 0.357607,-0.207607 0.1187,-0.06981 0.237005,-0.140333 0.35486,-0.21157 0.117828,-0.07112 0.235208,-0.142974 0.352166,-0.21553 0.11738,-0.07255 0.23431,-0.145801 0.350819,-0.219758 0.116005,-0.07387 0.231589,-0.148467 0.346697,-0.223719 0.115558,-0.0753 0.230667,-0.151267 0.345299,-0.227944 0.11421,-0.07671 0.227945,-0.154095 0.341231,-0.232172 0.113761,-0.07802 0.227047,-0.156735 0.339857,-0.236132 0.112415,-0.07937 0.224327,-0.159404 0.33579,-0.240095 0.111966,-0.08077 0.223429,-0.162203 0.334417,-0.244322 0.110591,-0.08219 0.220707,-0.165029 0.330322,-0.248547 0.109694,-0.08352 0.218886,-0.167697 0.327575,-0.252509 0.10832,-0.08441 0.216165,-0.169467 0.323481,-0.255151 0.107898,-0.08627 0.215267,-0.173164 0.322109,-0.260697 0.10655,-0.08714 0.212545,-0.174934 0.31804,-0.263339 0.02589,-0.02219 0.0518,-0.0445 0.07765,-0.06683 0.07946,-0.06656 0.158611,-0.133466 0.237454,-0.20074 0.104278,-0.08991 0.208003,-0.18048 0.311198,-0.271632 0.05156,-0.04538 0.102988,-0.09089 0.154253,-0.136556 0.05156,-0.0458 0.102988,-0.09176 0.154253,-0.137877 0.102456,-0.09221 0.204385,-0.185023 0.305732,-0.278446 0.101134,-0.09359 0.20169,-0.187771 0.30169,-0.282541 0.100207,-0.09496 0.199842,-0.190492 0.298891,-0.286635 0.09886,-0.09586 0.197147,-0.192314 0.294849,-0.289356 0.09794,-0.09678 0.195272,-0.194163 0.292049,-0.292102 0.0966,-0.0986 0.192606,-0.197781 0.28801,-0.297544 0.09525,-0.09907 0.189883,-0.198732 0.28394,-0.298943 0.09432,-0.100447 0.188035,-0.201453 0.281141,-0.303011 0.09297,-0.101821 0.185315,-0.204173 0.277074,-0.307105 0.0916,-0.102717 0.182594,-0.206023 0.272979,-0.309826 0.09073,-0.103644 0.180825,-0.207845 0.270312,-0.312573 0.08933,-0.105018 0.178051,-0.210592 0.266112,-0.316666 0.08798,-0.105943 0.175303,-0.212414 0.262018,-0.319415 0.08711,-0.107315 0.17356,-0.215134 0.259377,-0.32348 0.08527,-0.107766 0.169862,-0.21606 0.253829,-0.324855 0.08439,-0.109139 0.16812,-0.218807 0.251189,-0.328949 0.083,-0.110064 0.165294,-0.220629 0.246963,-0.331669 0.08122,-0.110988 0.16178,-0.222478 0.241679,-0.334417 0.08027,-0.111912 0.159853,-0.224274 0.238775,-0.337137 0.07895,-0.113259 0.157237,-0.22702 0.234812,-0.34123 0.07755,-0.113735 0.154411,-0.227946 0.230587,-0.342605 0.07623,-0.114659 0.15177,-0.229767 0.226624,-0.345324 0.07116,-0.11017 0.14168,-0.220735 0.211569,-0.331696 l 0.01057,-0.01849 c 0.07351,-0.116483 0.146328,-0.233439 0.218436,-0.350793 0.07166,-0.117406 0.14263,-0.235261 0.21289,-0.353513 0.07078,-0.118331 0.140887,-0.237084 0.210248,-0.35626 0.06947,-0.119255 0.138246,-0.238906 0.206287,-0.35898 0.06762,-0.119704 0.134547,-0.239831 0.200739,-0.360328 0.06624,-0.121078 0.131748,-0.242578 0.196513,-0.364448 0.06492,-0.121553 0.129107,-0.243476 0.192552,-0.365795 0.06349,-0.122002 0.12628,-0.244401 0.188325,-0.367168 0.06175,-0.123377 0.122768,-0.247148 0.183043,-0.371263 0.06035,-0.123852 0.119942,-0.248072 0.178817,-0.372636 0.05893,-0.1243 0.117141,-0.24897 0.17459,-0.373983 0.05763,-0.125225 0.114501,-0.250819 0.170629,-0.376731 0.05621,-0.125699 0.111674,-0.251716 0.166403,-0.378077 0.05447,-0.126624 0.108161,-0.253566 0.16112,-0.380824 0.05261,-0.127074 0.104489,-0.254464 0.155573,-0.382171 0.05174,-0.127997 0.102716,-0.256312 0.152931,-0.384918 0.0499,-0.128447 0.09902,-0.257211 0.147385,-0.386265 0.04804,-0.128949 0.09532,-0.258162 0.141839,-0.387666 0.04718,-0.129846 0.09359,-0.259957 0.139196,-0.390359 0.01294,-0.03819 0.02563,-0.07641 0.0383,-0.114632 -0.122135,-0.05916 -0.244058,-0.11878 -0.365769,-0.178817 -0.157342,-0.07798 -0.314335,-0.156683 -0.470946,-0.236133 -0.155969,-0.07939 -0.311558,-0.159509 -0.466771,-0.240359 -0.155548,-0.08072 -0.310722,-0.162151 -0.465506,-0.244322 -0.154621,-0.08257 -0.308861,-0.165848 -0.462704,-0.249868 -0.154173,-0.08389 -0.307934,-0.168488 -0.461305,-0.253829 -0.153302,-0.08476 -0.306178,-0.17026 -0.458664,-0.256472 -0.15235,-0.08663 -0.304302,-0.173957 -0.455836,-0.262018 -0.151453,-0.088 -0.302513,-0.17673 -0.453144,-0.266165 -0.07927,-0.04762 -0.158425,-0.09543 -0.237454,-0.143423 l -0.05863,-0.03539 c -0.05146,-0.03082 -0.102884,-0.06172 -0.154253,-0.09271 -0.150132,-0.09075 -0.299815,-0.182197 -0.449076,-0.274353 -0.148759,-0.09213 -0.297073,-0.184945 -0.444955,-0.278447 -0.14831,-0.09393 -0.296149,-0.188563 -0.443555,-0.283888 -0.146989,-0.09484 -0.29351,-0.190412 -0.439594,-0.286635 -0.146486,-0.09667 -0.292517,-0.194057 -0.438087,-0.292103 -0.145616,-0.09759 -0.290761,-0.195879 -0.435446,-0.294823 -0.144217,-0.09897 -0.287985,-0.198627 -0.431273,-0.298943 -0.110196,-0.07683 -0.220682,-0.156577 -0.314422,-0.223085 z"
         sodipodi:nodetypes="ccccccccsscccccccccccccccccccccccccccccccccccccccccccccscccscccccccccccccccccccssccccccccccccccccccccccccccccccccccccccccccccccccccccccccccccccccsccccccccccccccccccccccccccccccscccccccccccccccccccccccccccccccccccccccccccccccccccccccccccccccccccscccccccccscccccccccccccccccccccccccccccccccccccccscccccccccccc" />
      <path
         id="path3545"
         style="opacity:1;fill:none;fill-opacity:1;fill-rule:evenodd;stroke:#008fff;stroke-width:1.04122;stroke-miterlimit:4;stroke-dasharray:none;stroke-opacity:1"
         d="m 45.765119,10.827531 a 55.942939,55.942939 0 0 0 0.02377,0.289367 55.942939,55.942939 0 0 0 0.04781,0.524134 55.942939,55.942939 0 0 0 0.05203,0.522773 55.942939,55.942939 0 0 0 0.05732,0.522771 55.942939,55.942939 0 0 0 0.06286,0.521402 55.942939,55.942939 0 0 0 0.04094,0.315299 55.942939,55.942939 0 0 0 0.02642,0.207475 55.942939,55.942939 0 0 0 0.07238,0.520039 55.942939,55.942939 0 0 0 0.07633,0.520039 55.942939,55.942939 0 0 0 0.08188,0.520041 55.942939,55.942939 0 0 0 0.08743,0.518676 55.942939,55.942939 0 0 0 0.09139,0.517308 55.942939,55.942939 0 0 0 0.09562,0.517315 55.942939,55.942939 0 0 0 0.102488,0.515942 55.942939,55.942939 0 0 0 0.105125,0.514583 55.942939,55.942939 0 0 0 0.111991,0.513218 55.942939,55.942939 0 0 0 0.115953,0.513205 55.942939,55.942939 0 0 0 0.12018,0.51186 55.942939,55.942939 0 0 0 0.125727,0.510486 55.942939,55.942939 0 0 0 0.129688,0.509113 55.942939,55.942939 0 0 0 0.135235,0.509113 55.942939,55.942939 0 0 0 0.140518,0.506392 55.942939,55.942939 0 0 0 0.143423,0.505053 55.942939,55.942939 0 0 0 0.150026,0.505018 55.942939,55.942939 0 0 0 0.154253,0.502297 55.942939,55.942939 0 0 0 0.158479,0.500925 55.942939,55.942939 0 0 0 0.163761,0.499577 55.942939,55.942939 0 0 0 0.167987,0.498205 55.942939,55.942939 0 0 0 0.171949,0.49683 55.942939,55.942939 0 0 0 0.177496,0.495457 55.942939,55.942939 0 0 0 0.183043,0.492736 55.942939,55.942939 0 0 0 0.137876,0.361728 34.574741,34.574746 0 0 1 0.33439,-0.238774 34.574741,34.574746 0 0 1 0.339858,-0.236133 34.574741,34.574746 0 0 1 0.34123,-0.232172 34.574741,34.574746 0 0 1 0.345299,-0.227944 34.574741,34.574746 0 0 1 0.348099,-0.223719 34.574741,34.574746 0 0 1 0.349418,-0.219758 34.574741,34.574746 0 0 1 0.352167,-0.21553 34.574741,34.574746 0 0 1 0.356206,-0.21157 34.574741,34.574746 0 0 1 0.357661,-0.207607 34.574741,34.574746 0 0 1 0.360327,-0.20206 34.574741,34.574746 0 0 1 0.361727,-0.199155 34.574741,34.574746 0 0 1 0.365769,-0.193872 34.574741,34.574746 0 0 1 0.367169,-0.189646 34.574741,34.574746 0 0 1 0.368515,-0.185683 34.574741,34.574746 0 0 1 0.37261,-0.180138 34.574741,34.574746 0 0 1 0.372636,-0.177496 34.574741,34.574746 0 0 1 0.376756,-0.17195 34.574741,34.574746 0 0 1 0.378077,-0.166403 34.574741,34.574746 0 0 1 0.379451,-0.163761 34.574741,34.574746 0 0 1 0.382197,-0.158214 34.574741,34.574746 0 0 1 0.383546,-0.152932 34.574741,34.574746 0 0 1 0.384918,-0.150026 34.574741,34.574746 0 0 1 0.387664,-0.144744 34.574741,34.574746 0 0 1 0.38896,-0.139197 34.574741,34.574746 0 0 1 0.390385,-0.135235 34.574741,34.574746 0 0 1 0.391707,-0.13101 34.574741,34.574746 0 0 1 0.39448,-0.125462 34.574741,34.574746 0 0 1 0.394453,-0.1215 34.574741,34.574746 0 0 1 0.3972,-0.115953 34.574741,34.574746 0 0 1 0.397226,-0.111992 34.574741,34.574746 0 0 1 0.399895,-0.106444 34.574741,34.574746 0 0 1 0.399947,-0.102488 34.574741,34.574746 0 0 1 0.402668,-0.09826 34.574741,34.574746 0 0 1 0.402615,-0.09139 34.574741,34.574746 0 0 1 0.404067,-0.08874 34.574741,34.574746 0 0 1 0.33027,-0.06683 34.574741,34.574746 0 0 1 0.07369,-0.01585 34.574741,34.574746 0 0 1 0.40671,-0.07924 34.574741,34.574746 0 0 1 0.406813,-0.07238 34.574741,34.574746 0 0 1 0.408057,-0.06815 34.574741,34.574746 0 0 1 0.408108,-0.06418 34.574741,34.574746 0 0 1 0.409536,-0.05864 34.574741,34.574746 0 0 1 0.409456,-0.05335 34.574741,34.574746 0 0 1 0.410856,-0.04913 34.574741,34.574746 0 0 1 0.410856,-0.04359 34.574741,34.574746 0 0 1 0.410856,-0.0383 34.574741,34.574746 0 0 1 0.412176,-0.03407 34.574741,34.574746 0 0 1 0.412229,-0.03011 34.574741,34.574746 0 0 1 0.290729,-0.01585 34.574741,34.574746 0 0 0 -0.232178,-0.208929 34.574741,34.574746 0 0 0 -0.3098,-0.27298 A 34.574741,34.574746 0 0 0 66.751581,19.047112 34.574741,34.574746 0 0 0 66.434915,18.780948 34.574741,34.574746 0 0 0 66.115554,18.51893 34.574741,34.574746 0 0 0 65.793393,18.260873 34.574741,34.574746 0 0 0 65.467165,18.005644 34.574741,34.574746 0 0 0 65.138216,17.755856 34.574741,34.574746 0 0 0 64.806547,17.508813 34.574741,34.574746 0 0 0 64.472131,17.265839 34.574741,34.574746 0 0 0 64.13502,17.026986 34.574741,34.574746 0 0 0 63.79511,16.792225 34.574741,34.574746 0 0 0 63.451185,16.56156 34.574741,34.574746 0 0 0 63.105834,16.334988 34.574741,34.574746 0 0 0 62.757789,16.112512 34.574741,34.574746 0 0 0 62.405649,15.895475 34.574741,34.574746 0 0 0 62.05211,15.681185 34.574741,34.574746 0 0 0 61.695824,15.47099 34.574741,34.574746 0 0 0 61.338243,15.266235 34.574741,34.574746 0 0 0 60.976515,15.065601 34.574741,34.574746 0 0 0 60.613467,14.867688 34.574741,34.574746 0 0 0 60.247672,14.675242 34.574741,34.574746 0 0 0 59.879104,14.488237 34.574741,34.574746 0 0 0 59.509215,14.30398 34.574741,34.574746 0 0 0 59.136578,14.125162 34.574741,34.574746 0 0 0 58.761249,13.95044 34.574741,34.574746 0 0 0 58.384545,13.779838 34.574741,34.574746 0 0 0 58.006415,13.614677 34.574741,34.574746 0 0 0 57.625617,13.45361 34.574741,34.574746 0 0 0 57.243419,13.296637 34.574741,34.574746 0 0 0 56.858554,13.145131 34.574741,34.574746 0 0 0 56.472236,12.99772 a 34.574741,34.574746 0 0 0 -0.387665,-0.143318 34.574741,34.574746 0 0 0 -0.38896,-0.13785 34.574741,34.574746 0 0 0 -0.391706,-0.133756 34.574741,34.574746 0 0 0 -0.393106,-0.128288 34.574741,34.574746 0 0 0 -0.394506,-0.124221 34.574741,34.574746 0 0 0 -0.395827,-0.120101 34.574741,34.574746 0 0 0 -0.397226,-0.114659 34.574741,34.574746 0 0 0 -0.397148,-0.109192 34.574741,34.574746 0 0 0 -0.399947,-0.105098 34.574741,34.574746 0 0 0 -0.401268,-0.09962 34.574741,34.574746 0 0 0 -0.402694,-0.09553 34.574741,34.574746 0 0 0 -0.07238,-0.01638 34.574741,34.574746 0 0 0 -0.330349,-0.07506 34.574741,34.574746 0 0 0 -0.403989,-0.08601 34.574741,34.574746 0 0 0 -0.405414,-0.08054 34.574741,34.574746 0 0 0 -0.406736,-0.07644 34.574741,34.574746 0 0 0 -0.406708,-0.07097 34.574741,34.574746 0 0 0 -0.408135,-0.06688 34.574741,34.574746 0 0 0 -0.409457,-0.06143 34.574741,34.574746 0 0 0 -0.409534,-0.05597 34.574741,34.574746 0 0 0 -0.287983,-0.03685 34.574741,34.574746 0 0 0 -0.1215,-0.01506 34.574741,34.574746 0 0 0 -0.410829,-0.04778 34.574741,34.574746 0 0 0 -0.410856,-0.04094 34.574741,34.574746 0 0 0 -0.412176,-0.03685 34.574741,34.574746 0 0 0 -0.412257,-0.03276 34.574741,34.574746 0 0 0 -0.412176,-0.02731 34.574741,34.574746 0 0 0 -0.412256,-0.02193 34.574741,34.574746 0 0 0 -0.222398,-0.0095 z" />
      <path
         id="path4164"
         style="opacity:0.997975;fill:none;fill-opacity:1;fill-rule:evenodd;stroke:#f6f3eb;stroke-width:1.04122;stroke-miterlimit:4;stroke-dasharray:none;stroke-opacity:1"
         d="m 9.6305933,43.582456 c 0.036493,0.09252 0.073381,0.184865 0.1106709,0.277073 0.052063,0.127707 0.1048917,0.255125 0.1584786,0.382198 0.05383,0.126809 0.1084182,0.253302 0.1637612,0.37945 0.05471,0.126361 0.110182,0.252378 0.166403,0.378078 0.05656,0.125911 0.11388,0.251505 0.171949,0.37673 0.05842,0.124564 0.117592,0.248785 0.177496,0.372635 0.05931,0.124565 0.119347,0.24876 0.180138,0.37261 0.06116,0.123217 0.123056,0.246065 0.185683,0.368543 0.06248,0.122767 0.1257,0.245166 0.189646,0.367168 0.06389,0.12232 0.128519,0.244241 0.193873,0.365795 0.06522,0.120972 0.13117,0.241522 0.197834,0.361702 0.06707,0.120522 0.134868,0.240649 0.203381,0.360353 0.06849,0.119625 0.137691,0.238827 0.207607,0.357607 0.06981,0.119176 0.140335,0.237929 0.211569,0.35626 0.07123,0.117803 0.143164,0.235182 0.215795,0.352139 0.07255,0.11738 0.145806,0.234312 0.219756,0.350793 0.07389,0.116007 0.148458,0.23159 0.223719,0.346698 0.07529,0.115558 0.151276,0.230666 0.227946,0.345325 0.07662,0.114211 0.153928,0.227946 0.231907,0.341231 0.07803,0.113761 0.156743,0.227047 0.236133,0.339884 0.07936,0.112388 0.159395,0.224327 0.240095,0.335763 0.08078,0.11149 0.162219,0.222504 0.244321,0.333043 0.0821,0.111041 0.16486,0.221606 0.248283,0.331669 0.08353,0.109245 0.167692,0.217988 0.25251,0.326229 0.0844,0.108795 0.169452,0.217089 0.25515,0.324855 0.08625,0.107896 0.173157,0.215266 0.260697,0.322133 0.08723,0.106524 0.175104,0.212547 0.263603,0.318014 0.08855,0.105626 0.177713,0.210751 0.267512,0.31532 0.08993,0.104279 0.180487,0.208003 0.271659,0.311199 0.09082,0.103383 0.182254,0.206207 0.2743,0.308479 0.09221,0.102456 0.185039,0.204384 0.278473,0.305732 0.09357,0.101113 0.187761,0.201664 0.282541,0.301664 0.09494,0.100207 0.190476,0.199841 0.286609,0.298917 0.09588,0.09884 0.192335,0.197121 0.289382,0.294823 0.0968,0.09749 0.194176,0.1944 0.292129,0.290729 0.09861,0.09704 0.197802,0.193502 0.29757,0.289355 0.09906,0.09522 0.198697,0.189858 0.298891,0.283915 0.100447,0.09432 0.201447,0.188061 0.30301,0.281167 0.101811,0.09297 0.204168,0.185341 0.307079,0.2771 0.102748,0.0916 0.206044,0.182593 0.309878,0.27298 0.103665,0.0907 0.207862,0.180797 0.3126,0.270258 0.105016,0.08936 0.210562,0.178077 0.31664,0.266165 0.10593,0.08798 0.212388,0.175304 0.319361,0.262018 0.106854,0.08666 0.214226,0.172689 0.322108,0.258056 0.108233,0.08571 0.216976,0.170761 0.326228,0.255151 0.109165,0.08439 0.218835,0.168119 0.329001,0.251188 0.110067,0.08254 0.220627,0.164422 0.33167,0.245642 0.110988,0.08167 0.222461,0.162679 0.334417,0.243001 0.111893,0.08027 0.224265,0.159851 0.33711,0.238774 0.112818,0.07895 0.226103,0.157211 0.339857,0.234813 0.114197,0.07755 0.228859,0.15441 0.343978,0.230586 0.114665,0.07623 0.229783,0.151769 0.345351,0.226624 0.115571,0.07483 0.231588,0.148971 0.348046,0.222399 0.116941,0.07351 0.234323,0.146328 0.352139,0.218436 0.117423,0.07166 0.23527,0.14263 0.353539,0.21289 0.118316,0.07078 0.237053,0.140887 0.356208,0.210248 0.11926,0.06894 0.23893,0.13719 0.359007,0.204702 0.119706,0.06806 0.239817,0.135419 0.360327,0.202059 0.120642,0.06622 0.241677,0.131723 0.363101,0.196514 0.121547,0.06492 0.243482,0.129108 0.365795,0.192551 0.122454,0.06352 0.245285,0.126282 0.36849,0.188326 0.122939,0.06175 0.246246,0.122769 0.369915,0.183043 0.123846,0.06035 0.248051,0.119941 0.372609,0.178816 0.124797,0.05895 0.249945,0.117143 0.375437,0.174591 0.125218,0.05763 0.250778,0.114501 0.376676,0.170629 0.125698,0.05579 0.251725,0.110803 0.37808,0.165082 0.126624,0.05447 0.253565,0.108161 0.380849,0.16112 0.127074,0.05306 0.254438,0.105361 0.382146,0.156893 0.127997,0.05174 0.256312,0.102717 0.384917,0.152933 0.128474,0.04989 0.257211,0.09902 0.386266,0.147385 0.128922,0.04804 0.258135,0.09532 0.387638,0.141838 0.129398,0.04673 0.259087,0.09268 0.389039,0.137877 0.130296,0.04543 0.260883,0.09007 0.391706,0.133913 0.130771,0.04359 0.261807,0.08637 0.393106,0.128369 0.131247,0.04216 0.262758,0.08355 0.394507,0.124141 0.131695,0.04084 0.263655,0.0809 0.395826,0.120179 0.132145,0.03902 0.264538,0.07721 0.397147,0.114634 0.132621,0.03716 0.265484,0.07351 0.398548,0.109085 0.132673,0.03584 0.265544,0.07087 0.398627,0.105125 0.133571,0.03444 0.267329,0.06806 0.401294,0.100895 0.13402,0.03267 0.268257,0.06455 0.402667,0.09562 0.13402,0.03082 0.268215,0.06086 0.402589,0.09007 0.134971,0.0295 0.270105,0.05821 0.405415,0.08611 0.134495,0.02766 0.269168,0.05452 0.403988,0.08056 0.135447,0.02614 0.271059,0.05169 0.406815,0.07633 0.135446,0.02456 0.271017,0.04818 0.406736,0.07105 0.135895,0.02298 0.271941,0.04536 0.408108,0.06683 0.136371,0.0214 0.27285,0.04184 0.409456,0.06155 0.136371,0.01981 0.272858,0.03904 0.409456,0.05732 0.136397,0.01796 0.272921,0.03532 0.409535,0.05177 0.136847,0.01638 0.273811,0.0318 0.410856,0.04649 0.136846,0.0148 0.273804,0.029 0.410829,0.04226 0.137322,0.0132 0.274731,0.02535 0.412204,0.03697 0.137347,0.01136 0.274756,0.02166 0.412229,0.03143 0.137347,0.0098 0.27473,0.01901 0.412176,0.02721 0.137348,0.0079 0.274763,0.0148 0.412203,0.02113 0.137823,0.0069 0.275681,0.0132 0.413576,0.01849 0.137824,0.0053 0.275692,0.0095 0.413577,0.0132 0.137401,0.0034 0.274804,0.006 0.412229,0.0079 0.13785,0.0012 0.275734,0.0018 0.413603,0.0014 0.05414,1.26e-4 0.108293,1.26e-4 0.162441,0 0.137875,-9.35e-4 0.275728,-0.0026 0.413575,-0.0053 0.137428,-0.0026 0.274823,-0.0064 0.412203,-0.01057 0.137877,-0.0037 0.275745,-0.0079 0.413577,-0.0132 0.137454,-0.0064 0.274863,-0.0132 0.412229,-0.02113 0.137902,-0.0072 0.275767,-0.01506 0.413576,-0.02377 0.137454,-0.0093 0.274863,-0.01928 0.412204,-0.03011 0.137479,-0.01057 0.274888,-0.02192 0.412229,-0.03407 0.137031,-0.01188 0.273981,-0.02483 0.410856,-0.0383 0.137005,-0.01373 0.273938,-0.02824 0.410776,-0.04359 0.137057,-0.01559 0.274004,-0.03193 0.410856,-0.04912 0.136608,-0.01691 0.27313,-0.03476 0.409535,-0.05335 0.136609,-0.01875 0.273088,-0.03827 0.409456,-0.05864 0.136159,-0.02061 0.272202,-0.04197 0.408109,-0.06418 0.136185,-0.02193 0.272226,-0.04461 0.408135,-0.06815 0.135711,-0.02324 0.271302,-0.04744 0.406736,-0.07237 0.135288,-0.02509 0.270414,-0.05095 0.405388,-0.07765 0.135314,-0.02692 0.270444,-0.05464 0.405414,-0.0832 0.13484,-0.02834 0.269501,-0.05748 0.403989,-0.08743 0.134416,-0.03011 0.268648,-0.06102 0.402694,-0.09271 0.133941,-0.03195 0.267711,-0.06471 0.401268,-0.09826 0.133967,-0.03283 0.267715,-0.06646 0.401267,-0.100895 0.133069,-0.03513 0.265934,-0.07105 0.398575,-0.107765 0.133069,-0.03653 0.265922,-0.07388 0.398546,-0.111992 0.132172,-0.03788 0.264105,-0.07652 0.395827,-0.115954 0.132172,-0.0397 0.264132,-0.08022 0.395827,-0.1215 0.131273,-0.04104 0.262335,-0.08286 0.393107,-0.125462 0.131299,-0.0429 0.262308,-0.08656 0.393079,-0.131008 0.130402,-0.04429 0.260539,-0.08938 0.390386,-0.135235 0.129952,-0.04562 0.259641,-0.09202 0.389038,-0.139198 0.129029,-0.04749 0.257792,-0.09572 0.386266,-0.144744 0.129054,-0.04924 0.257792,-0.09926 0.386239,-0.150026 0.128183,-0.05021 0.256048,-0.101186 0.383598,-0.152932 0.127706,-0.05198 0.255071,-0.104728 0.382144,-0.158214 0.126809,-0.05383 0.253302,-0.108426 0.379477,-0.163762 0.12636,-0.05473 0.252377,-0.110168 0.378077,-0.166402 0.125462,-0.05658 0.250555,-0.113894 0.375331,-0.171949 0.125039,-0.05842 0.249709,-0.117592 0.374036,-0.177496 0.124088,-0.0593 0.247859,-0.119362 0.371235,-0.180138 0.123667,-0.06115 0.246963,-0.123059 0.36989,-0.185684 0.122767,-0.06249 0.245166,-0.125699 0.367168,-0.189646 0.12187,-0.06389 0.243344,-0.128527 0.364447,-0.193873 0.121422,-0.06566 0.242421,-0.132038 0.363049,-0.199154 0.120549,-0.06664 0.240676,-0.133994 0.360407,-0.202061 0.119625,-0.06849 0.238827,-0.137691 0.357607,-0.207606 0.1187,-0.06981 0.237005,-0.140333 0.35486,-0.211569 0.118277,-0.07113 0.236133,-0.142974 0.353539,-0.215531 0.116905,-0.07255 0.233413,-0.1458 0.349446,-0.219757 0.116455,-0.07387 0.232461,-0.148442 0.348019,-0.223719 0.115108,-0.0753 0.229767,-0.151295 0.343977,-0.227945 0.114659,-0.07671 0.228844,-0.154094 0.342579,-0.232171 0.113312,-0.07805 0.226148,-0.156762 0.338509,-0.236133 0.112864,-0.07945 0.225225,-0.159563 0.337112,-0.240359 0.111515,-0.08077 0.222529,-0.16223 0.333069,-0.244322 0.110591,-0.08209 0.22068,-0.16487 0.330295,-0.248284 0.109694,-0.08352 0.218912,-0.167696 0.327602,-0.252508 0.108795,-0.08439 0.217062,-0.16944 0.324828,-0.255151 0.107449,-0.08627 0.214369,-0.173164 0.320788,-0.260697 0.106523,-0.08714 0.212546,-0.174934 0.31804,-0.263339 0.105652,-0.08854 0.21075,-0.177707 0.31532,-0.267512 0.104727,-0.08991 0.2089,-0.180454 0.312519,-0.271632 0.103383,-0.09084 0.206207,-0.182303 0.308479,-0.274353 0.102029,-0.09221 0.203486,-0.185024 0.304411,-0.278447 0.10156,-0.09359 0.202562,-0.18777 0.303011,-0.282541 0.09976,-0.09496 0.198943,-0.190491 0.29757,-0.286635 0.09884,-0.09586 0.197095,-0.192314 0.29477,-0.289356 0.09797,-0.09678 0.195325,-0.194163 0.292129,-0.292102 0.09659,-0.0986 0.192578,-0.197781 0.287982,-0.297544 0.0957,-0.09907 0.190782,-0.198732 0.285288,-0.298943 0.09388,-0.100447 0.187136,-0.201452 0.279821,-0.303011 0.09342,-0.101821 0.186265,-0.204173 0.278472,-0.307105 0.0916,-0.102717 0.182594,-0.206023 0.27298,-0.309825 0.0907,-0.103644 0.180771,-0.207846 0.270232,-0.312573 0.08936,-0.105019 0.178104,-0.210593 0.266192,-0.316667 0.08798,-0.105943 0.175304,-0.212415 0.262018,-0.319414 0.08666,-0.107316 0.172689,-0.215135 0.258056,-0.323481 0.08391,-0.105521 0.167195,-0.211543 0.249868,-0.318041 4.73e-4,-0.03975 -0.08291,-0.07124 -0.110671,-0.09508 -0.142446,-0.101686 -0.284406,-0.204067 -0.425885,-0.307104 -0.141521,-0.103518 -0.282583,-0.207714 -0.423137,-0.312573 -0.140625,-0.104438 -0.280738,-0.209535 -0.420366,-0.315293 -0.139724,-0.105811 -0.278964,-0.212283 -0.417696,-0.319414 -0.138802,-0.107184 -0.277105,-0.215003 -0.414897,-0.323482 -0.137454,-0.108557 -0.274416,-0.217749 -0.410856,-0.327574 -0.137031,-0.109457 -0.273542,-0.219573 -0.409535,-0.330323 -0.135658,-0.111278 -0.270787,-0.223217 -0.405389,-0.335764 -0.134284,-0.112202 -0.268058,-0.225039 -0.401294,-0.338509 -0.133386,-0.113577 -0.266236,-0.227787 -0.398548,-0.342605 -0.132488,-0.114924 -0.264428,-0.230481 -0.395826,-0.346672 -0.13159,-0.115874 -0.262626,-0.232356 -0.393106,-0.349445 -0.130217,-0.117222 -0.259852,-0.235077 -0.388959,-0.353513 -0.12887,-0.118595 -0.257185,-0.237797 -0.384945,-0.357608 -0.127972,-0.119518 -0.255362,-0.239645 -0.382197,-0.360353 -0.127047,-0.120867 -0.25354,-0.24234 -0.379451,-0.364421 -0.1257,-0.122267 -0.250819,-0.245115 -0.375357,-0.368543 -0.124802,-0.123164 -0.248996,-0.246936 -0.372636,-0.371262 -0.123428,-0.124538 -0.246249,-0.249657 -0.368489,-0.375357 -0.122082,-0.125437 -0.243556,-0.251453 -0.364448,-0.378051 -0.121184,-0.126836 -0.241759,-0.254227 -0.361728,-0.382198 -0.119809,-0.127734 -0.239011,-0.256048 -0.357606,-0.384918 -0.118463,-0.129107 -0.236292,-0.25877 -0.35354,-0.388986 -0.117538,-0.130032 -0.234469,-0.260618 -0.350766,-0.391733 -0.116191,-0.131405 -0.231749,-0.263364 -0.346699,-0.395852 -0.115266,-0.132304 -0.229925,-0.265159 -0.343951,-0.398548 -0.11347,-0.133227 -0.226333,-0.266999 -0.338536,-0.401294 -0.112547,-0.134601 -0.224433,-0.269734 -0.335711,-0.405388 -0.1112,-0.135051 -0.221738,-0.27064 -0.331669,-0.406736 -0.109852,-0.136899 -0.219071,-0.274305 -0.327629,-0.412229 -0.108478,-0.137348 -0.216323,-0.275212 -0.323507,-0.413577 -0.107581,-0.138721 -0.2145,-0.277945 -0.320761,-0.41767 -0.106207,-0.13917 -0.211754,-0.278851 -0.31664,-0.419017 -0.104385,-0.140544 -0.208135,-0.281606 -0.3112,-0.423138 -0.103487,-0.141918 -0.206312,-0.284337 -0.308478,-0.427232 -0.102144,-0.142393 -0.203618,-0.285243 -0.304411,-0.428579 -0.100769,-0.143292 -0.200845,-0.287081 -0.300237,-0.431326 -0.09942,-0.144216 -0.198152,-0.288902 -0.296224,-0.434047 -0.09759,-0.145589 -0.194506,-0.29164 -0.290729,-0.43814 -0.0967,-0.146065 -0.192683,-0.292559 -0.288008,-0.439514 -0.09532,-0.146963 -0.18999,-0.29438 -0.283941,-0.442234 -0.09395,-0.148337 -0.18719,-0.297114 -0.279741,-0.44633 -0.09261,-0.148811 -0.184548,-0.298037 -0.275753,-0.447701 -0.09078,-0.14971 -0.180877,-0.299861 -0.270259,-0.450423 -0.08989,-0.150634 -0.179055,-0.301695 -0.267512,-0.453169 -0.08807,-0.15156 -0.175383,-0.303519 -0.262018,-0.455891 -0.08674,-0.152007 -0.172742,-0.304421 -0.258055,-0.457237 -0.08534,-0.152932 -0.169942,-0.30626 -0.25383,-0.459985 -0.08402,-0.153856 -0.167301,-0.308095 -0.249869,-0.46273 -0.08262,-0.154755 -0.1645,-0.3099 -0.245642,-0.465426 -0.08085,-0.155679 -0.160987,-0.311756 -0.240358,-0.468199 -0.0799,-0.156128 -0.159034,-0.312641 -0.237454,-0.469519 -0.07803,-0.156603 -0.155336,-0.313584 -0.231907,-0.470918 -0.07628,-0.157978 -0.151823,-0.316303 -0.226625,-0.474988 -0.0753,-0.157977 -0.149894,-0.31631 -0.223719,-0.474987 -0.07356,-0.15935 -0.146382,-0.319062 -0.218436,-0.479107 -0.07216,-0.159825 -0.143556,-0.319968 -0.21421,-0.480454 -0.0704,-0.160275 -0.140042,-0.320893 -0.208929,-0.481828 -0.06952,-0.160724 -0.138272,-0.321793 -0.206285,-0.483174 -0.06767,-0.162108 -0.134601,-0.324534 -0.20074,-0.487272 -0.06583,-0.162125 -0.130877,-0.324558 -0.195193,-0.487295 -0.06442,-0.163029 -0.128077,-0.326361 -0.190967,-0.489989 -0.01638,-0.04321 -0.03281,-0.08644 -0.04912,-0.129689 -0.04638,-0.120417 -0.09235,-0.240993 -0.137876,-0.361726 -0.0617,-0.16396 -0.122636,-0.328206 -0.182779,-0.492737 -0.05993,-0.164873 -0.119096,-0.330028 -0.177496,-0.495457 -0.05811,-0.165349 -0.115399,-0.330969 -0.171949,-0.496857 -0.05679,-0.165803 -0.112784,-0.331873 -0.167988,-0.498203 -0.05536,-0.166261 -0.109958,-0.332779 -0.163761,-0.499552 -0.05351,-0.166727 -0.10626,-0.333703 -0.158215,-0.500924 -0.0522,-0.16719 -0.103622,-0.334625 -0.154251,-0.502298 -0.05079,-0.168104 -0.100822,-0.336445 -0.150027,-0.505019 -0.0486,-0.168125 -0.09641,-0.336478 -0.143423,-0.505053 -0.04763,-0.168576 -0.09448,-0.337376 -0.140518,-0.506392 -0.0458,-0.169492 -0.09078,-0.339197 -0.134971,-0.509112 -0.04403,-0.169501 -0.08724,-0.339207 -0.129688,-0.509113 -0.04263,-0.169966 -0.08444,-0.340128 -0.125463,-0.510486 -0.04086,-0.17043 -0.08093,-0.341052 -0.120179,-0.511859 -0.03946,-0.170896 -0.0781,-0.341975 -0.115954,-0.513233 -0.03814,-0.170891 -0.07547,-0.341958 -0.111991,-0.513199 -0.0363,-0.17136 -0.07176,-0.342888 -0.106446,-0.51458 -0.03489,-0.17182 -0.06896,-0.343805 -0.102216,-0.515946 -0.03267,-0.172287 -0.06456,-0.344727 -0.09562,-0.517314 -0.03128,-0.172292 -0.06172,-0.34473 -0.09139,-0.517308 -0.02996,-0.172755 -0.05909,-0.345648 -0.08743,-0.518676 -0.0281,-0.173218 -0.05541,-0.346566 -0.08188,-0.520041 -0.02614,-0.173225 -0.05169,-0.346574 -0.07633,-0.520039 -0.02483,-0.173234 -0.04905,-0.346581 -0.07238,-0.52004 -0.009,-0.06914 -0.0177,-0.138299 -0.02642,-0.207475 -0.014,-0.105063 -0.0276,-0.210164 -0.04094,-0.315303 -0.02166,-0.173701 -0.04274,-0.347505 -0.06287,-0.521403 -0.0198,-0.174168 -0.03903,-0.348427 -0.05732,-0.522773 -0.01796,-0.174174 -0.03534,-0.348431 -0.05177,-0.522766 -0.01664,-0.174635 -0.03269,-0.349348 -0.04781,-0.524134 -0.0082,-0.09644 -0.01611,-0.192895 -0.02377,-0.289371 -0.0064,-0.07824 -0.01241,-0.156495 -0.01849,-0.234759 -0.01347,-0.174652 -0.02642,-0.349364 -0.0383,-0.524135 -0.01162,-0.1746588 -0.02272,-0.3493736 -0.03276,-0.5241358 -0.0084,-0.1560249 -0.01638,-0.3120859 -0.02377,-0.4681776 l -0.0014,-0.057316 c -0.0087,-0.1751268 -0.01664,-0.3502948 -0.02377,-0.5254966 -0.0069,-0.1751373 -0.0132,-0.3503048 -0.01849,-0.5254992 -0.0053,-0.1751479 -0.0095,-0.3503168 -0.0132,-0.5255046 -0.0034,-0.1751532 -0.006,-0.3503196 -0.0079,-0.5254966 -0.0017,-0.1751611 -0.0026,-0.3503296 -0.0026,-0.5254992 v -0.069624 c 5.9e-5,-0.1751717 9.38e-4,-0.3503416 0.0026,-0.5255046 0.0018,-0.1756312 0.0045,-0.351253 0.0079,-0.5268595 0.0037,-0.1751875 0.0079,-0.3503545 0.0132,-0.5254992 0.0053,-0.1751955 0.01162,-0.3503664 0.01849,-0.5255045 0.0064,-0.1747433 0.0132,-0.3494565 0.02113,-0.5241338 0.0084,-0.1752084 0.01743,-0.3503768 0.02747,-0.5254992 0.0098,-0.1702089 0.02008,-0.3403728 0.03144,-0.510486 l 0.0014,-0.015055 c 0.01136,-0.1747686 0.02377,-0.3494826 0.03671,-0.5241363 0.01294,-0.1747745 0.02647,-0.3494876 0.04094,-0.5241337 l 0.0053,-0.057343 c -0.116877,-0.00834 -0.233809,-0.01609 -0.350766,-0.023243 -0.137823,-0.00813 -0.275676,-0.015441 -0.413576,-0.021923 -0.137824,-0.00629 -0.275687,-0.011743 -0.413577,-0.016376 -0.137823,-0.00584 -0.275688,-0.010862 -0.413575,-0.015055 -0.137851,-0.00311 -0.275707,-0.0054 -0.413577,-0.00687 -0.137852,-0.00171 -0.275713,-0.00258 -0.413576,-0.00264 v -0.00137 c -0.05371,3.317e-4 -0.107415,7.887e-4 -0.16112,0.00137 -0.137851,5.59e-5 -0.275724,9.364e-4 -0.413577,0.00264 -0.137876,0.00234 -0.275756,0.00552 -0.413603,0.00951 -0.137427,0.0042 -0.274815,0.00921 -0.412176,0.015056 -0.137903,0.00507 -0.275755,0.010972 -0.413577,0.017697 -0.137453,0.00737 -0.27487,0.015556 -0.412229,0.024565 -0.137454,0.00874 -0.27486,0.018285 -0.412203,0.028659 -0.13748,0.010553 -0.274889,0.021929 -0.412229,0.034126 -0.137031,0.01238 -0.273983,0.025579 -0.410856,0.039594 -0.13748,0.013739 -0.274873,0.028301 -0.412176,0.043688 -0.136582,0.015113 -0.273067,0.031041 -0.409456,0.047782 l -0.04781,0.00687 c -0.121104,0.015285 -0.242129,0.031214 -0.363048,0.047782 -0.13616,0.01875 -0.272208,0.038316 -0.408135,0.05869 -0.136636,0.020111 -0.273133,0.041039 -0.409509,0.062784 -0.135711,0.021942 -0.271294,0.044692 -0.406736,0.068251 -0.13571,0.023761 -0.271305,0.048336 -0.406735,0.073719 -0.135737,0.025127 -0.271312,0.051064 -0.406735,0.077813 -0.134865,0.026948 -0.269546,0.0547 -0.404068,0.083254 -0.134839,0.028311 -0.2695,0.057428 -0.403989,0.087348 -0.134415,0.030136 -0.268647,0.061075 -0.402693,0.092815 -0.13439,0.031499 -0.268588,0.063803 -0.402589,0.09691 -0.133518,0.03333 -0.266836,0.067456 -0.399947,0.1023771 -0.133545,0.034693 -0.266862,0.070183 -0.399974,0.1064713 -0.132593,0.036523 -0.264989,0.073836 -0.397147,0.1119387 -0.132646,0.038333 -0.265053,0.077461 -0.397227,0.1173798 -0.131722,0.039249 -0.26318,0.079284 -0.394426,0.1201004 -0.131749,0.041525 -0.26326,0.08384 -0.394507,0.1269414 -0.130824,0.042441 -0.261384,0.085662 -0.39168,0.1296619 -0.130401,0.044265 -0.260538,0.089309 -0.390385,0.1351294 -0.129953,0.04609 -0.259641,0.092956 -0.389039,0.1405969 -0.129503,0.047457 -0.258743,0.095688 -0.387665,0.1446911 -0.128579,0.048829 -0.256867,0.098425 -0.38484,0.148785 -0.128182,0.050644 -0.256047,0.1020533 -0.383596,0.1542261 -0.127708,0.052019 -0.255071,0.1048029 -0.382145,0.1583465 -0.12681,0.053392 -0.253301,0.1075384 -0.379478,0.1624405 -0.126359,0.055206 -0.252376,0.1111676 -0.378077,0.1678818 -0.125911,0.056572 -0.251505,0.1138985 -0.37673,0.1719757 -0.124564,0.057948 -0.248785,0.1166403 -0.372635,0.1760697 -0.124565,0.059767 -0.248786,0.12028 -0.372637,0.1815373 -0.123198,0.061144 -0.24603,0.1230216 -0.36849,0.1856313 -0.122766,0.06251 -0.245158,0.1257528 -0.367169,0.1897252 -0.122335,0.063875 -0.244287,0.128484 -0.365848,0.1938195 -0.120969,0.065251 -0.241544,0.1312229 -0.361727,0.1979134 -0.120516,0.067073 -0.240626,0.1348679 -0.360328,0.2033808 -0.119611,0.067988 -0.238817,0.1366905 -0.357606,0.2061015 -0.119177,0.06981 -0.23793,0.1403354 -0.356261,0.2115689 -0.117808,0.071186 -0.23519,0.1430745 -0.352139,0.215663 -0.117359,0.072551 -0.234284,0.1458056 -0.350766,0.219757 -0.116009,0.073928 -0.23158,0.1485447 -0.346699,0.223851 -0.115584,0.075748 -0.23071,0.1521897 -0.345377,0.2293186 -0.114187,0.076667 -0.227913,0.1540148 -0.341178,0.2320391 -0.113778,0.078489 -0.227085,0.1576598 -0.33991,0.2375066 -0.112381,0.079409 -0.224287,0.159485 -0.335711,0.2402272 -0.111508,0.080777 -0.222533,0.1622187 -0.333069,0.2443212 -0.110586,0.081241 -0.220687,0.1631405 -0.330296,0.2456947 -0.109704,0.083515 -0.218906,0.1676862 -0.327602,0.2525093 -0.108787,0.084887 -0.217065,0.1704226 -0.324829,0.2566032 -0.107901,0.085798 -0.21529,0.1722426 -0.32216,0.2593239 -0.10655,0.08763 -0.212573,0.175898 -0.318066,0.2647992 -0.105613,0.088548 -0.210695,0.1777233 -0.31524,0.2675252 -0.10427,0.089467 -0.208003,0.1795536 -0.3112,0.270259 -0.103393,0.09129 -0.206239,0.183196 -0.308532,0.275716 -0.102445,0.0922 -0.204342,0.185024 -0.305678,0.27845 -0.101124,0.09357 -0.20169,0.187762 -0.30169,0.282544 -0.100197,0.09449 -0.199829,0.189584 -0.298891,0.285268 -0.09885,0.09587 -0.197142,0.192322 -0.29485,0.289364 -0.09749,0.09724 -0.194405,0.195064 -0.290729,0.29346 -0.09658,0.09816 -0.192578,0.196889 -0.287982,0.296192 -0.0957,0.09952 -0.190792,0.199622 -0.285287,0.300287 -0.09434,0.100447 -0.188067,0.20145 -0.281195,0.303014 -0.06164,0.06755 -0.123002,0.135344 -0.184099,0.203381 -0.03106,0.03451 -0.06206,0.06909 -0.09297,0.103727 -0.09161,0.102737 -0.182604,0.206019 -0.272979,0.309841 -0.0907,0.103654 -0.180779,0.207842 -0.270233,0.312567 -0.08936,0.105024 -0.178092,0.210582 -0.266191,0.316667 -0.08797,0.105943 -0.175314,0.212409 -0.262018,0.319396 -0.08666,0.106861 -0.172678,0.214238 -0.258056,0.322126 -0.0857,0.108227 -0.170753,0.216967 -0.25515,0.326214 -0.08438,0.108694 -0.168112,0.21789 -0.251189,0.327583 -0.08254,0.110072 -0.164421,0.220632 -0.245642,0.331681 -0.08167,0.111436 -0.162673,0.223365 -0.243,0.335774 -0.08026,0.111904 -0.159855,0.224283 -0.238775,0.337139 -0.07895,0.112821 -0.157219,0.226112 -0.234813,0.339868 -0.07754,0.113738 -0.154406,0.22794 -0.230586,0.342596 -0.07624,0.115114 -0.151775,0.230682 -0.226625,0.346699 -0.07482,0.115576 -0.148959,0.231598 -0.222397,0.348062 -0.07351,0.116492 -0.146324,0.233422 -0.218437,0.350783 -0.07167,0.117418 -0.142631,0.235259 -0.21289,0.353524 -0.07079,0.118323 -0.140877,0.237071 -0.210248,0.356233 -0.06895,0.119254 -0.137184,0.238915 -0.204701,0.358982 -0.06808,0.120163 -0.135431,0.240731 -0.202061,0.3617 -0.06622,0.120634 -0.131732,0.241659 -0.196513,0.363074 -0.06491,0.121557 -0.129097,0.243497 -0.192552,0.365822 -0.06351,0.122462 -0.126286,0.245304 -0.188325,0.368516 -0.06166,0.12294 -0.122588,0.246247 -0.182779,0.369916 -0.06035,0.123845 -0.119955,0.24805 -0.178817,0.372609 -0.05903,0.124323 -0.117313,0.248999 -0.174854,0.374018 -0.05763,0.125226 -0.114504,0.250797 -0.170629,0.376703 -0.05579,0.126154 -0.110811,0.252638 -0.165082,0.379451 -0.05447,0.126619 -0.108172,0.253562 -0.16112,0.380824 -0.05306,0.127076 -0.105357,0.254469 -0.156894,0.382171 -0.05175,0.128 -0.102727,0.256307 -0.152932,0.384918 -0.0499,0.128011 -0.09902,0.256321 -0.147385,0.384919 -0.04805,0.129386 -0.09533,0.259059 -0.141838,0.389012 -0.04673,0.129386 -0.09269,0.259052 -0.137876,0.388986 -0.04534,0.130319 -0.08988,0.260908 -0.133651,0.391758 -0.04356,0.130323 -0.08636,0.260902 -0.128368,0.391733 -0.04217,0.131236 -0.08355,0.262723 -0.124141,0.394454 -0.04085,0.131708 -0.08091,0.263663 -0.12018,0.395852 -0.039,0.132161 -0.07721,0.264556 -0.114632,0.397175 -0.03716,0.132638 -0.07352,0.265499 -0.1090864,0.398573 -0.035837,0.133088 -0.07088,0.266388 -0.1051242,0.399895 -0.034432,0.133563 -0.068067,0.267328 -0.1008986,0.401294 -0.03267,0.133576 -0.064543,0.267341 -0.095615,0.401295 l -0.010565,0.05177 c -0.027026,0.117248 -0.053439,0.234628 -0.079239,0.352139 -0.028978,0.134496 -0.057153,0.269177 -0.084522,0.404015 -0.02766,0.134972 -0.054514,0.2701 -0.08056,0.405388 -0.026254,0.135421 -0.051701,0.271023 -0.076334,0.406762 -0.024485,0.135446 -0.048177,0.271018 -0.071051,0.406736 -0.023085,0.135922 -0.045365,0.271957 -0.066826,0.408135 -0.021765,0.136371 -0.042725,0.272864 -0.062863,0.409482 -0.019915,0.135922 -0.039023,0.27196 -0.057316,0.408109 -0.018066,0.136846 -0.035333,0.273801 -0.05177,0.410856 -0.016323,0.136846 -0.031809,0.273796 -0.046487,0.41083 -0.014897,0.136872 -0.028991,0.273822 -0.042261,0.410856 -0.013154,0.137321 -0.025462,0.27473 -0.036978,0.412202 -0.011305,0.1369 -0.021765,0.273843 -0.031431,0.410856 -0.0099,0.137797 -0.018965,0.275665 -0.027205,0.413576 -0.00787,0.137349 -0.014897,0.274763 -0.02113,0.412203 -0.007,0.137824 -0.013154,0.275681 -0.018489,0.413577 -0.00523,0.137374 -0.00961,0.274778 -0.013207,0.412203 -0.00346,0.138298 -0.0061,0.276618 -0.00792,0.41495 -0.00171,0.137849 -0.00258,0.275712 -0.00264,0.413575 -1.251e-4,0.0537 -1.251e-4,0.107423 0,0.161121 9.361e-4,0.137875 0.0027,0.275747 0.00528,0.413602 0.0027,0.137877 0.00621,0.27574 0.010565,0.413577 0.00447,0.137876 0.00975,0.275731 0.015847,0.413549 0.00533,0.137454 0.011516,0.274858 0.018489,0.41223 0.0071,0.137453 0.015029,0.27485 0.023772,0.412203 0.00921,0.137453 0.019255,0.274862 0.030111,0.412203 0.010539,0.13748 0.021897,0.274889 0.034073,0.412229 0.011939,0.13748 0.024723,0.274878 0.038299,0.412203 0.013709,0.137031 0.028236,0.273975 0.043581,0.410829 0.015557,0.137058 0.031933,0.274005 0.049128,0.410856 0.016957,0.136609 0.034754,0.273095 0.053354,0.409482 0.018726,0.136609 0.038275,0.273106 0.058637,0.409482 0.020576,0.13616 0.041976,0.272204 0.064184,0.408109 0.044152,0.280595 0.094533,0.554903 0.1405177,0.814871 0.025172,0.135288 0.051139,0.270415 0.077919,0.405389 0.026926,0.135288 0.054659,0.270425 0.083201,0.405388 0.028336,0.134839 0.057481,0.269519 0.087427,0.404015 l 0.00264,0.0132 z"
         sodipodi:nodetypes="ccccccccccccccccccccccccccccccsccccccccsccsccccccccccccccccccccccccccccccccccccccccccccccccccccccccccccccccccccccccccccccccccccccccscccccccccccccccccccccccccccsscccccccccccccsccccccssccccscccccccccccccccccccccccccccccccccccccccccccccccccccsccccccccccccccccccccccccccccccccccccccccccccccccccsccccccccccccccccccccccccccccccccccccccccccccccccccsccccccccccccccccccccccccccccccccccccsccccccccccccccccccccccccccccccccccccccccccccccccccccccccccccccccccccccccccccccc" />
    </g>
  </g>
</svg>
